<?xml version="1.0" encoding="UTF-8" standalone="no"?>
<!DOCTYPE svg PUBLIC "-//W3C//DTD SVG 1.1//EN"
 "http://www.w3.org/Graphics/SVG/1.1/DTD/svg11.dtd">
<!-- Generated by graphviz version 2.50.0 (0)
 -->
<!-- Pages: 1 -->
<svg width="3362pt" height="375pt"
 viewBox="0.00 0.00 3362.00 375.00" xmlns="http://www.w3.org/2000/svg" xmlns:xlink="http://www.w3.org/1999/xlink">
<g id="graph0" class="graph" transform="scale(1 1) rotate(0) translate(4 371)">
<polygon fill="white" stroke="transparent" points="-4,4 -4,-371 3358,-371 3358,4 -4,4"/>
<!-- 140248321103888 -->
<g id="node1" class="node">
<title>140248321103888</title>
<polygon fill="none" stroke="black" points="2814,-213.5 2814,-249.5 2996,-249.5 2996,-213.5 2814,-213.5"/>
<text text-anchor="middle" x="2824" y="-227.8" font-family="Times,serif" font-size="14.00"> </text>
<polyline fill="none" stroke="black" points="2834,-213.5 2834,-249.5 "/>
<text text-anchor="middle" x="2874" y="-227.8" font-family="Times,serif" font-size="14.00">data 0.5000</text>
<polyline fill="none" stroke="black" points="2914,-213.5 2914,-249.5 "/>
<text text-anchor="middle" x="2955" y="-227.8" font-family="Times,serif" font-size="14.00">grad 0.0000</text>
</g>
<!-- 140248321108304* -->
<g id="node15" class="node">
<title>140248321108304*</title>
<ellipse fill="none" stroke="black" cx="3059" cy="-203.5" rx="27" ry="18"/>
<text text-anchor="middle" x="3059" y="-199.8" font-family="Times,serif" font-size="14.00">*</text>
</g>
<!-- 140248321103888&#45;&gt;140248321108304* -->
<g id="edge31" class="edge">
<title>140248321103888&#45;&gt;140248321108304*</title>
<path fill="none" stroke="black" d="M2996.18,-214.89C3005.61,-213.15 3014.75,-211.47 3022.98,-209.95"/>
<polygon fill="black" stroke="black" points="3023.66,-213.39 3032.86,-208.13 3022.39,-206.5 3023.66,-213.39"/>
</g>
<!-- 140248321099856 -->
<g id="node2" class="node">
<title>140248321099856</title>
<polygon fill="none" stroke="black" points="385,-220.5 385,-256.5 644,-256.5 644,-220.5 385,-220.5"/>
<text text-anchor="middle" x="431" y="-234.8" font-family="Times,serif" font-size="14.00">L0w1&#45;&gt;L1w1</text>
<polyline fill="none" stroke="black" points="477,-220.5 477,-256.5 "/>
<text text-anchor="middle" x="519.5" y="-234.8" font-family="Times,serif" font-size="14.00">data &#45;0.6204</text>
<polyline fill="none" stroke="black" points="562,-220.5 562,-256.5 "/>
<text text-anchor="middle" x="603" y="-234.8" font-family="Times,serif" font-size="14.00">grad 0.0000</text>
</g>
<!-- 140248321106096* -->
<g id="node7" class="node">
<title>140248321106096*</title>
<ellipse fill="none" stroke="black" cx="707" cy="-238.5" rx="27" ry="18"/>
<text text-anchor="middle" x="707" y="-234.8" font-family="Times,serif" font-size="14.00">*</text>
</g>
<!-- 140248321099856&#45;&gt;140248321106096* -->
<g id="edge23" class="edge">
<title>140248321099856&#45;&gt;140248321106096*</title>
<path fill="none" stroke="black" d="M644.15,-238.5C653.34,-238.5 662.05,-238.5 669.89,-238.5"/>
<polygon fill="black" stroke="black" points="669.98,-242 679.98,-238.5 669.98,-235 669.98,-242"/>
</g>
<!-- 140248321101920 -->
<g id="node3" class="node">
<title>140248321101920</title>
<polygon fill="none" stroke="black" points="770,-275.5 770,-311.5 957,-311.5 957,-275.5 770,-275.5"/>
<text text-anchor="middle" x="780" y="-289.8" font-family="Times,serif" font-size="14.00"> </text>
<polyline fill="none" stroke="black" points="790,-275.5 790,-311.5 "/>
<text text-anchor="middle" x="832.5" y="-289.8" font-family="Times,serif" font-size="14.00">data &#45;0.0716</text>
<polyline fill="none" stroke="black" points="875,-275.5 875,-311.5 "/>
<text text-anchor="middle" x="916" y="-289.8" font-family="Times,serif" font-size="14.00">grad 0.0000</text>
</g>
<!-- 140248321099184+ -->
<g id="node34" class="node">
<title>140248321099184+</title>
<ellipse fill="none" stroke="black" cx="1020" cy="-245.5" rx="27" ry="18"/>
<text text-anchor="middle" x="1020" y="-241.8" font-family="Times,serif" font-size="14.00">+</text>
</g>
<!-- 140248321101920&#45;&gt;140248321099184+ -->
<g id="edge18" class="edge">
<title>140248321101920&#45;&gt;140248321099184+</title>
<path fill="none" stroke="black" d="M927.8,-275.41C937.6,-272.5 947.59,-269.47 957,-266.5 966.47,-263.51 976.7,-260.12 986.07,-256.94"/>
<polygon fill="black" stroke="black" points="987.49,-260.16 995.82,-253.61 985.22,-253.53 987.49,-260.16"/>
</g>
<!-- 140248321101920+ -->
<g id="node4" class="node">
<title>140248321101920+</title>
<ellipse fill="none" stroke="black" cx="707" cy="-293.5" rx="27" ry="18"/>
<text text-anchor="middle" x="707" y="-289.8" font-family="Times,serif" font-size="14.00">+</text>
</g>
<!-- 140248321101920+&#45;&gt;140248321101920 -->
<g id="edge1" class="edge">
<title>140248321101920+&#45;&gt;140248321101920</title>
<path fill="none" stroke="black" d="M734.21,-293.5C741.73,-293.5 750.43,-293.5 759.67,-293.5"/>
<polygon fill="black" stroke="black" points="759.89,-297 769.89,-293.5 759.89,-290 759.89,-297"/>
</g>
<!-- 140248321097840 -->
<g id="node5" class="node">
<title>140248321097840</title>
<polygon fill="none" stroke="black" points="408.5,-275.5 408.5,-311.5 620.5,-311.5 620.5,-275.5 408.5,-275.5"/>
<text text-anchor="middle" x="431" y="-289.8" font-family="Times,serif" font-size="14.00">L1b1</text>
<polyline fill="none" stroke="black" points="453.5,-275.5 453.5,-311.5 "/>
<text text-anchor="middle" x="496" y="-289.8" font-family="Times,serif" font-size="14.00">data &#45;0.0705</text>
<polyline fill="none" stroke="black" points="538.5,-275.5 538.5,-311.5 "/>
<text text-anchor="middle" x="579.5" y="-289.8" font-family="Times,serif" font-size="14.00">grad 0.0000</text>
</g>
<!-- 140248321097840&#45;&gt;140248321101920+ -->
<g id="edge46" class="edge">
<title>140248321097840&#45;&gt;140248321101920+</title>
<path fill="none" stroke="black" d="M620.5,-293.5C638.1,-293.5 655.24,-293.5 669.51,-293.5"/>
<polygon fill="black" stroke="black" points="669.81,-297 679.81,-293.5 669.81,-290 669.81,-297"/>
</g>
<!-- 140248321106096 -->
<g id="node6" class="node">
<title>140248321106096</title>
<polygon fill="none" stroke="black" points="770,-220.5 770,-256.5 957,-256.5 957,-220.5 770,-220.5"/>
<text text-anchor="middle" x="780" y="-234.8" font-family="Times,serif" font-size="14.00"> </text>
<polyline fill="none" stroke="black" points="790,-220.5 790,-256.5 "/>
<text text-anchor="middle" x="832.5" y="-234.8" font-family="Times,serif" font-size="14.00">data &#45;0.5584</text>
<polyline fill="none" stroke="black" points="875,-220.5 875,-256.5 "/>
<text text-anchor="middle" x="916" y="-234.8" font-family="Times,serif" font-size="14.00">grad 0.0000</text>
</g>
<!-- 140248321106096&#45;&gt;140248321099184+ -->
<g id="edge41" class="edge">
<title>140248321106096&#45;&gt;140248321099184+</title>
<path fill="none" stroke="black" d="M957.05,-242.69C966.06,-243.1 974.79,-243.5 982.7,-243.86"/>
<polygon fill="black" stroke="black" points="982.8,-247.36 992.95,-244.32 983.12,-240.37 982.8,-247.36"/>
</g>
<!-- 140248321106096*&#45;&gt;140248321106096 -->
<g id="edge2" class="edge">
<title>140248321106096*&#45;&gt;140248321106096</title>
<path fill="none" stroke="black" d="M734.21,-238.5C741.73,-238.5 750.43,-238.5 759.67,-238.5"/>
<polygon fill="black" stroke="black" points="759.89,-242 769.89,-238.5 759.89,-235 759.89,-242"/>
</g>
<!-- 140248321102016 -->
<g id="node8" class="node">
<title>140248321102016</title>
<polygon fill="none" stroke="black" points="770,-55.5 770,-91.5 957,-91.5 957,-55.5 770,-55.5"/>
<text text-anchor="middle" x="780" y="-69.8" font-family="Times,serif" font-size="14.00"> </text>
<polyline fill="none" stroke="black" points="790,-55.5 790,-91.5 "/>
<text text-anchor="middle" x="832.5" y="-69.8" font-family="Times,serif" font-size="14.00">data &#45;0.1971</text>
<polyline fill="none" stroke="black" points="875,-55.5 875,-91.5 "/>
<text text-anchor="middle" x="916" y="-69.8" font-family="Times,serif" font-size="14.00">grad 0.0000</text>
</g>
<!-- 140248321100864+ -->
<g id="node30" class="node">
<title>140248321100864+</title>
<ellipse fill="none" stroke="black" cx="1020" cy="-121.5" rx="27" ry="18"/>
<text text-anchor="middle" x="1020" y="-117.8" font-family="Times,serif" font-size="14.00">+</text>
</g>
<!-- 140248321102016&#45;&gt;140248321100864+ -->
<g id="edge19" class="edge">
<title>140248321102016&#45;&gt;140248321100864+</title>
<path fill="none" stroke="black" d="M927.8,-91.59C937.6,-94.5 947.59,-97.53 957,-100.5 966.47,-103.49 976.7,-106.88 986.07,-110.06"/>
<polygon fill="black" stroke="black" points="985.22,-113.47 995.82,-113.39 987.49,-106.84 985.22,-113.47"/>
</g>
<!-- 140248321102016+ -->
<g id="node9" class="node">
<title>140248321102016+</title>
<ellipse fill="none" stroke="black" cx="707" cy="-73.5" rx="27" ry="18"/>
<text text-anchor="middle" x="707" y="-69.8" font-family="Times,serif" font-size="14.00">+</text>
</g>
<!-- 140248321102016+&#45;&gt;140248321102016 -->
<g id="edge3" class="edge">
<title>140248321102016+&#45;&gt;140248321102016</title>
<path fill="none" stroke="black" d="M734.21,-73.5C741.73,-73.5 750.43,-73.5 759.67,-73.5"/>
<polygon fill="black" stroke="black" points="759.89,-77 769.89,-73.5 759.89,-70 759.89,-77"/>
</g>
<!-- 140248321104080 -->
<g id="node10" class="node">
<title>140248321104080</title>
<polygon fill="none" stroke="black" points="1420,-227.5 1420,-263.5 1631,-263.5 1631,-227.5 1420,-227.5"/>
<text text-anchor="middle" x="1442" y="-241.8" font-family="Times,serif" font-size="14.00">L1a1</text>
<polyline fill="none" stroke="black" points="1464,-227.5 1464,-263.5 "/>
<text text-anchor="middle" x="1506.5" y="-241.8" font-family="Times,serif" font-size="14.00">data &#45;0.5580</text>
<polyline fill="none" stroke="black" points="1549,-227.5 1549,-263.5 "/>
<text text-anchor="middle" x="1590" y="-241.8" font-family="Times,serif" font-size="14.00">grad 0.0000</text>
</g>
<!-- 140248321100768+ -->
<g id="node28" class="node">
<title>140248321100768+</title>
<ellipse fill="none" stroke="black" cx="1694" cy="-204.5" rx="27" ry="18"/>
<text text-anchor="middle" x="1694" y="-200.8" font-family="Times,serif" font-size="14.00">+</text>
</g>
<!-- 140248321104080&#45;&gt;140248321100768+ -->
<g id="edge27" class="edge">
<title>140248321104080&#45;&gt;140248321100768+</title>
<path fill="none" stroke="black" d="M1600.01,-227.4C1620.36,-222.39 1641.49,-217.18 1658.46,-213.01"/>
<polygon fill="black" stroke="black" points="1659.56,-216.34 1668.44,-210.55 1657.89,-209.54 1659.56,-216.34"/>
</g>
<!-- 140248321104080tanh -->
<g id="node11" class="node">
<title>140248321104080tanh</title>
<ellipse fill="none" stroke="black" cx="1357" cy="-245.5" rx="27" ry="18"/>
<text text-anchor="middle" x="1357" y="-241.8" font-family="Times,serif" font-size="14.00">tanh</text>
</g>
<!-- 140248321104080tanh&#45;&gt;140248321104080 -->
<g id="edge4" class="edge">
<title>140248321104080tanh&#45;&gt;140248321104080</title>
<path fill="none" stroke="black" d="M1384.02,-245.5C1391.62,-245.5 1400.46,-245.5 1409.93,-245.5"/>
<polygon fill="black" stroke="black" points="1410,-249 1420,-245.5 1410,-242 1410,-249"/>
</g>
<!-- 140248321106192 -->
<g id="node12" class="node">
<title>140248321106192</title>
<polygon fill="none" stroke="black" points="1420,-103.5 1420,-139.5 1631,-139.5 1631,-103.5 1420,-103.5"/>
<text text-anchor="middle" x="1442" y="-117.8" font-family="Times,serif" font-size="14.00">L1a0</text>
<polyline fill="none" stroke="black" points="1464,-103.5 1464,-139.5 "/>
<text text-anchor="middle" x="1506.5" y="-117.8" font-family="Times,serif" font-size="14.00">data &#45;0.7679</text>
<polyline fill="none" stroke="black" points="1549,-103.5 1549,-139.5 "/>
<text text-anchor="middle" x="1590" y="-117.8" font-family="Times,serif" font-size="14.00">grad 0.0000</text>
</g>
<!-- 140248321107440+ -->
<g id="node36" class="node">
<title>140248321107440+</title>
<ellipse fill="none" stroke="black" cx="1694" cy="-98.5" rx="27" ry="18"/>
<text text-anchor="middle" x="1694" y="-94.8" font-family="Times,serif" font-size="14.00">+</text>
</g>
<!-- 140248321106192&#45;&gt;140248321107440+ -->
<g id="edge40" class="edge">
<title>140248321106192&#45;&gt;140248321107440+</title>
<path fill="none" stroke="black" d="M1631,-107.06C1640.36,-105.77 1649.33,-104.53 1657.41,-103.42"/>
<polygon fill="black" stroke="black" points="1658.03,-106.86 1667.46,-102.03 1657.07,-99.93 1658.03,-106.86"/>
</g>
<!-- 140248321106192tanh -->
<g id="node13" class="node">
<title>140248321106192tanh</title>
<ellipse fill="none" stroke="black" cx="1357" cy="-121.5" rx="27" ry="18"/>
<text text-anchor="middle" x="1357" y="-117.8" font-family="Times,serif" font-size="14.00">tanh</text>
</g>
<!-- 140248321106192tanh&#45;&gt;140248321106192 -->
<g id="edge5" class="edge">
<title>140248321106192tanh&#45;&gt;140248321106192</title>
<path fill="none" stroke="black" d="M1384.02,-121.5C1391.62,-121.5 1400.46,-121.5 1409.93,-121.5"/>
<polygon fill="black" stroke="black" points="1410,-125 1420,-121.5 1410,-118 1410,-125"/>
</g>
<!-- 140248321108304 -->
<g id="node14" class="node">
<title>140248321108304</title>
<polygon fill="none" stroke="black" points="3122,-185.5 3122,-221.5 3354,-221.5 3354,-185.5 3122,-185.5"/>
<text text-anchor="middle" x="3157" y="-199.8" font-family="Times,serif" font-size="14.00">MSE loss</text>
<polyline fill="none" stroke="black" points="3192,-185.5 3192,-221.5 "/>
<text text-anchor="middle" x="3232" y="-199.8" font-family="Times,serif" font-size="14.00">data 1.6604</text>
<polyline fill="none" stroke="black" points="3272,-185.5 3272,-221.5 "/>
<text text-anchor="middle" x="3313" y="-199.8" font-family="Times,serif" font-size="14.00">grad 0.0000</text>
</g>
<!-- 140248321108304*&#45;&gt;140248321108304 -->
<g id="edge6" class="edge">
<title>140248321108304*&#45;&gt;140248321108304</title>
<path fill="none" stroke="black" d="M3086.12,-203.5C3093.53,-203.5 3102.14,-203.5 3111.4,-203.5"/>
<polygon fill="black" stroke="black" points="3111.69,-207 3121.69,-203.5 3111.69,-200 3111.69,-207"/>
</g>
<!-- 140248321108352 -->
<g id="node16" class="node">
<title>140248321108352</title>
<polygon fill="none" stroke="black" points="385,-110.5 385,-146.5 644,-146.5 644,-110.5 385,-110.5"/>
<text text-anchor="middle" x="431" y="-124.8" font-family="Times,serif" font-size="14.00">L0w1&#45;&gt;L1w0</text>
<polyline fill="none" stroke="black" points="477,-110.5 477,-146.5 "/>
<text text-anchor="middle" x="519.5" y="-124.8" font-family="Times,serif" font-size="14.00">data &#45;0.9090</text>
<polyline fill="none" stroke="black" points="562,-110.5 562,-146.5 "/>
<text text-anchor="middle" x="603" y="-124.8" font-family="Times,serif" font-size="14.00">grad 0.0000</text>
</g>
<!-- 140248321101152* -->
<g id="node32" class="node">
<title>140248321101152*</title>
<ellipse fill="none" stroke="black" cx="707" cy="-128.5" rx="27" ry="18"/>
<text text-anchor="middle" x="707" y="-124.8" font-family="Times,serif" font-size="14.00">*</text>
</g>
<!-- 140248321108352&#45;&gt;140248321101152* -->
<g id="edge21" class="edge">
<title>140248321108352&#45;&gt;140248321101152*</title>
<path fill="none" stroke="black" d="M644.15,-128.5C653.34,-128.5 662.05,-128.5 669.89,-128.5"/>
<polygon fill="black" stroke="black" points="669.98,-132 679.98,-128.5 669.98,-125 669.98,-132"/>
</g>
<!-- 140248321104272 -->
<g id="node17" class="node">
<title>140248321104272</title>
<polygon fill="none" stroke="black" points="1432,-48.5 1432,-84.5 1619,-84.5 1619,-48.5 1432,-48.5"/>
<text text-anchor="middle" x="1442" y="-62.8" font-family="Times,serif" font-size="14.00"> </text>
<polyline fill="none" stroke="black" points="1452,-48.5 1452,-84.5 "/>
<text text-anchor="middle" x="1494.5" y="-62.8" font-family="Times,serif" font-size="14.00">data &#45;1.0000</text>
<polyline fill="none" stroke="black" points="1537,-48.5 1537,-84.5 "/>
<text text-anchor="middle" x="1578" y="-62.8" font-family="Times,serif" font-size="14.00">grad 0.0000</text>
</g>
<!-- 140248321104272&#45;&gt;140248321107440+ -->
<g id="edge22" class="edge">
<title>140248321104272&#45;&gt;140248321107440+</title>
<path fill="none" stroke="black" d="M1619,-84.28C1632.75,-86.92 1646.17,-89.5 1657.71,-91.72"/>
<polygon fill="black" stroke="black" points="1657.27,-95.2 1667.75,-93.65 1658.59,-88.32 1657.27,-95.2"/>
</g>
<!-- 140248321108400 -->
<g id="node18" class="node">
<title>140248321108400</title>
<polygon fill="none" stroke="black" points="408.5,-55.5 408.5,-91.5 620.5,-91.5 620.5,-55.5 408.5,-55.5"/>
<text text-anchor="middle" x="431" y="-69.8" font-family="Times,serif" font-size="14.00">L1b0</text>
<polyline fill="none" stroke="black" points="453.5,-55.5 453.5,-91.5 "/>
<text text-anchor="middle" x="496" y="-69.8" font-family="Times,serif" font-size="14.00">data &#45;0.1897</text>
<polyline fill="none" stroke="black" points="538.5,-55.5 538.5,-91.5 "/>
<text text-anchor="middle" x="579.5" y="-69.8" font-family="Times,serif" font-size="14.00">grad 0.0000</text>
</g>
<!-- 140248321108400&#45;&gt;140248321102016+ -->
<g id="edge47" class="edge">
<title>140248321108400&#45;&gt;140248321102016+</title>
<path fill="none" stroke="black" d="M620.5,-73.5C638.1,-73.5 655.24,-73.5 669.51,-73.5"/>
<polygon fill="black" stroke="black" points="669.81,-77 679.81,-73.5 669.81,-70 669.81,-77"/>
</g>
<!-- 140248321104368 -->
<g id="node19" class="node">
<title>140248321104368</title>
<polygon fill="none" stroke="black" points="33.5,-192.5 33.5,-228.5 225.5,-228.5 225.5,-192.5 33.5,-192.5"/>
<text text-anchor="middle" x="48.5" y="-206.8" font-family="Times,serif" font-size="14.00">x0</text>
<polyline fill="none" stroke="black" points="63.5,-192.5 63.5,-228.5 "/>
<text text-anchor="middle" x="103.5" y="-206.8" font-family="Times,serif" font-size="14.00">data 0.1000</text>
<polyline fill="none" stroke="black" points="143.5,-192.5 143.5,-228.5 "/>
<text text-anchor="middle" x="184.5" y="-206.8" font-family="Times,serif" font-size="14.00">grad 0.0000</text>
</g>
<!-- 140248321100672* -->
<g id="node25" class="node">
<title>140248321100672*</title>
<ellipse fill="none" stroke="black" cx="322" cy="-45.5" rx="27" ry="18"/>
<text text-anchor="middle" x="322" y="-41.8" font-family="Times,serif" font-size="14.00">*</text>
</g>
<!-- 140248321104368&#45;&gt;140248321100672* -->
<g id="edge24" class="edge">
<title>140248321104368&#45;&gt;140248321100672*</title>
<path fill="none" stroke="black" d="M151.61,-192.21C187.28,-161.32 259.23,-99 296.85,-66.42"/>
<polygon fill="black" stroke="black" points="299.5,-68.76 304.76,-59.56 294.91,-63.46 299.5,-68.76"/>
</g>
<!-- 140248321105664* -->
<g id="node40" class="node">
<title>140248321105664*</title>
<ellipse fill="none" stroke="black" cx="322" cy="-320.5" rx="27" ry="18"/>
<text text-anchor="middle" x="322" y="-316.8" font-family="Times,serif" font-size="14.00">*</text>
</g>
<!-- 140248321104368&#45;&gt;140248321105664* -->
<g id="edge45" class="edge">
<title>140248321104368&#45;&gt;140248321105664*</title>
<path fill="none" stroke="black" d="M161.96,-228.66C198.14,-249.56 257.06,-283.58 292.12,-303.82"/>
<polygon fill="black" stroke="black" points="290.5,-306.93 300.91,-308.9 294,-300.87 290.5,-306.93"/>
</g>
<!-- 140248321110512 -->
<g id="node20" class="node">
<title>140248321110512</title>
<polygon fill="none" stroke="black" points="418.5,-165.5 418.5,-201.5 610.5,-201.5 610.5,-165.5 418.5,-165.5"/>
<text text-anchor="middle" x="433.5" y="-179.8" font-family="Times,serif" font-size="14.00">x1</text>
<polyline fill="none" stroke="black" points="448.5,-165.5 448.5,-201.5 "/>
<text text-anchor="middle" x="488.5" y="-179.8" font-family="Times,serif" font-size="14.00">data 0.9000</text>
<polyline fill="none" stroke="black" points="528.5,-165.5 528.5,-201.5 "/>
<text text-anchor="middle" x="569.5" y="-179.8" font-family="Times,serif" font-size="14.00">grad 0.0000</text>
</g>
<!-- 140248321110512&#45;&gt;140248321106096* -->
<g id="edge38" class="edge">
<title>140248321110512&#45;&gt;140248321106096*</title>
<path fill="none" stroke="black" d="M610.51,-201.02C621.89,-203.84 633.27,-207 644,-210.5 654.72,-214 666.07,-218.79 676.09,-223.41"/>
<polygon fill="black" stroke="black" points="674.68,-226.62 685.22,-227.75 677.69,-220.29 674.68,-226.62"/>
</g>
<!-- 140248321110512&#45;&gt;140248321101152* -->
<g id="edge44" class="edge">
<title>140248321110512&#45;&gt;140248321101152*</title>
<path fill="none" stroke="black" d="M608.73,-165.45C620.69,-162.48 632.7,-159.15 644,-155.5 654.47,-152.11 665.59,-147.59 675.48,-143.21"/>
<polygon fill="black" stroke="black" points="677.23,-146.26 684.88,-138.93 674.33,-139.89 677.23,-146.26"/>
</g>
<!-- 140248321108640 -->
<g id="node21" class="node">
<title>140248321108640</title>
<polygon fill="none" stroke="black" points="0,-302.5 0,-338.5 259,-338.5 259,-302.5 0,-302.5"/>
<text text-anchor="middle" x="46" y="-316.8" font-family="Times,serif" font-size="14.00">L0w0&#45;&gt;L1w1</text>
<polyline fill="none" stroke="black" points="92,-302.5 92,-338.5 "/>
<text text-anchor="middle" x="134.5" y="-316.8" font-family="Times,serif" font-size="14.00">data &#45;0.0113</text>
<polyline fill="none" stroke="black" points="177,-302.5 177,-338.5 "/>
<text text-anchor="middle" x="218" y="-316.8" font-family="Times,serif" font-size="14.00">grad 0.0000</text>
</g>
<!-- 140248321108640&#45;&gt;140248321105664* -->
<g id="edge39" class="edge">
<title>140248321108640&#45;&gt;140248321105664*</title>
<path fill="none" stroke="black" d="M259.15,-320.5C268.34,-320.5 277.05,-320.5 284.89,-320.5"/>
<polygon fill="black" stroke="black" points="284.98,-324 294.98,-320.5 284.98,-317 284.98,-324"/>
</g>
<!-- 140248321100528 -->
<g id="node22" class="node">
<title>140248321100528</title>
<polygon fill="none" stroke="black" points="1434.5,-172.5 1434.5,-208.5 1616.5,-208.5 1616.5,-172.5 1434.5,-172.5"/>
<text text-anchor="middle" x="1444.5" y="-186.8" font-family="Times,serif" font-size="14.00"> </text>
<polyline fill="none" stroke="black" points="1454.5,-172.5 1454.5,-208.5 "/>
<text text-anchor="middle" x="1494.5" y="-186.8" font-family="Times,serif" font-size="14.00">data 1.0000</text>
<polyline fill="none" stroke="black" points="1534.5,-172.5 1534.5,-208.5 "/>
<text text-anchor="middle" x="1575.5" y="-186.8" font-family="Times,serif" font-size="14.00">grad 0.0000</text>
</g>
<!-- 140248321100528&#45;&gt;140248321100768+ -->
<g id="edge25" class="edge">
<title>140248321100528&#45;&gt;140248321100768+</title>
<path fill="none" stroke="black" d="M1616.57,-198.07C1630.91,-199.28 1644.98,-200.46 1657.06,-201.48"/>
<polygon fill="black" stroke="black" points="1656.87,-204.97 1667.12,-202.32 1657.45,-198 1656.87,-204.97"/>
</g>
<!-- 140248321104752 -->
<g id="node23" class="node">
<title>140248321104752</title>
<polygon fill="none" stroke="black" points="2070,-135.5 2070,-171.5 2252,-171.5 2252,-135.5 2070,-135.5"/>
<text text-anchor="middle" x="2080" y="-149.8" font-family="Times,serif" font-size="14.00"> </text>
<polyline fill="none" stroke="black" points="2090,-135.5 2090,-171.5 "/>
<text text-anchor="middle" x="2130" y="-149.8" font-family="Times,serif" font-size="14.00">data 0.0000</text>
<polyline fill="none" stroke="black" points="2170,-135.5 2170,-171.5 "/>
<text text-anchor="middle" x="2211" y="-149.8" font-family="Times,serif" font-size="14.00">grad 0.0000</text>
</g>
<!-- 140248321109840+ -->
<g id="node44" class="node">
<title>140248321109840+</title>
<ellipse fill="none" stroke="black" cx="2379" cy="-149.5" rx="27" ry="18"/>
<text text-anchor="middle" x="2379" y="-145.8" font-family="Times,serif" font-size="14.00">+</text>
</g>
<!-- 140248321104752&#45;&gt;140248321109840+ -->
<g id="edge30" class="edge">
<title>140248321104752&#45;&gt;140248321109840+</title>
<path fill="none" stroke="black" d="M2252.04,-151.83C2283.5,-151.25 2317.05,-150.63 2341.61,-150.17"/>
<polygon fill="black" stroke="black" points="2341.95,-153.67 2351.89,-149.98 2341.83,-146.67 2341.95,-153.67"/>
</g>
<!-- 140248321100672 -->
<g id="node24" class="node">
<title>140248321100672</title>
<polygon fill="none" stroke="black" points="421,-0.5 421,-36.5 608,-36.5 608,-0.5 421,-0.5"/>
<text text-anchor="middle" x="431" y="-14.8" font-family="Times,serif" font-size="14.00"> </text>
<polyline fill="none" stroke="black" points="441,-0.5 441,-36.5 "/>
<text text-anchor="middle" x="483.5" y="-14.8" font-family="Times,serif" font-size="14.00">data &#45;0.0074</text>
<polyline fill="none" stroke="black" points="526,-0.5 526,-36.5 "/>
<text text-anchor="middle" x="567" y="-14.8" font-family="Times,serif" font-size="14.00">grad 0.0000</text>
</g>
<!-- 140248321100672&#45;&gt;140248321102016+ -->
<g id="edge36" class="edge">
<title>140248321100672&#45;&gt;140248321102016+</title>
<path fill="none" stroke="black" d="M608.09,-35.43C620.28,-38.39 632.51,-41.75 644,-45.5 654.72,-49 666.07,-53.79 676.09,-58.41"/>
<polygon fill="black" stroke="black" points="674.68,-61.62 685.22,-62.75 677.69,-55.29 674.68,-61.62"/>
</g>
<!-- 140248321100672*&#45;&gt;140248321100672 -->
<g id="edge7" class="edge">
<title>140248321100672*&#45;&gt;140248321100672</title>
<path fill="none" stroke="black" d="M348.69,-41.86C365.13,-39.53 387.65,-36.34 410.76,-33.06"/>
<polygon fill="black" stroke="black" points="411.28,-36.52 420.68,-31.65 410.29,-29.59 411.28,-36.52"/>
</g>
<!-- 140248321102736 -->
<g id="node26" class="node">
<title>140248321102736</title>
<polygon fill="none" stroke="black" points="0,-27.5 0,-63.5 259,-63.5 259,-27.5 0,-27.5"/>
<text text-anchor="middle" x="46" y="-41.8" font-family="Times,serif" font-size="14.00">L0w0&#45;&gt;L1w0</text>
<polyline fill="none" stroke="black" points="92,-27.5 92,-63.5 "/>
<text text-anchor="middle" x="134.5" y="-41.8" font-family="Times,serif" font-size="14.00">data &#45;0.0739</text>
<polyline fill="none" stroke="black" points="177,-27.5 177,-63.5 "/>
<text text-anchor="middle" x="218" y="-41.8" font-family="Times,serif" font-size="14.00">grad 0.0000</text>
</g>
<!-- 140248321102736&#45;&gt;140248321100672* -->
<g id="edge35" class="edge">
<title>140248321102736&#45;&gt;140248321100672*</title>
<path fill="none" stroke="black" d="M259.15,-45.5C268.34,-45.5 277.05,-45.5 284.89,-45.5"/>
<polygon fill="black" stroke="black" points="284.98,-49 294.98,-45.5 284.98,-42 284.98,-49"/>
</g>
<!-- 140248321100768 -->
<g id="node27" class="node">
<title>140248321100768</title>
<polygon fill="none" stroke="black" points="1759.5,-186.5 1759.5,-222.5 1941.5,-222.5 1941.5,-186.5 1759.5,-186.5"/>
<text text-anchor="middle" x="1769.5" y="-200.8" font-family="Times,serif" font-size="14.00"> </text>
<polyline fill="none" stroke="black" points="1779.5,-186.5 1779.5,-222.5 "/>
<text text-anchor="middle" x="1819.5" y="-200.8" font-family="Times,serif" font-size="14.00">data 0.4420</text>
<polyline fill="none" stroke="black" points="1859.5,-186.5 1859.5,-222.5 "/>
<text text-anchor="middle" x="1900.5" y="-200.8" font-family="Times,serif" font-size="14.00">grad 0.0000</text>
</g>
<!-- 140248321111616**2 -->
<g id="node38" class="node">
<title>140248321111616**2</title>
<ellipse fill="none" stroke="black" cx="2007" cy="-204.5" rx="27" ry="18"/>
<text text-anchor="middle" x="2007" y="-200.8" font-family="Times,serif" font-size="14.00">**2</text>
</g>
<!-- 140248321100768&#45;&gt;140248321111616**2 -->
<g id="edge26" class="edge">
<title>140248321100768&#45;&gt;140248321111616**2</title>
<path fill="none" stroke="black" d="M1941.82,-204.5C1951.57,-204.5 1961.04,-204.5 1969.57,-204.5"/>
<polygon fill="black" stroke="black" points="1969.83,-208 1979.83,-204.5 1969.83,-201 1969.83,-208"/>
</g>
<!-- 140248321100768+&#45;&gt;140248321100768 -->
<g id="edge8" class="edge">
<title>140248321100768+&#45;&gt;140248321100768</title>
<path fill="none" stroke="black" d="M1721.21,-204.5C1729.34,-204.5 1738.85,-204.5 1748.94,-204.5"/>
<polygon fill="black" stroke="black" points="1749.19,-208 1759.19,-204.5 1749.19,-201 1749.19,-208"/>
</g>
<!-- 140248321100864 -->
<g id="node29" class="node">
<title>140248321100864</title>
<polygon fill="none" stroke="black" points="1083,-103.5 1083,-139.5 1294,-139.5 1294,-103.5 1083,-103.5"/>
<text text-anchor="middle" x="1105" y="-117.8" font-family="Times,serif" font-size="14.00">L1z0</text>
<polyline fill="none" stroke="black" points="1127,-103.5 1127,-139.5 "/>
<text text-anchor="middle" x="1169.5" y="-117.8" font-family="Times,serif" font-size="14.00">data &#45;1.0153</text>
<polyline fill="none" stroke="black" points="1212,-103.5 1212,-139.5 "/>
<text text-anchor="middle" x="1253" y="-117.8" font-family="Times,serif" font-size="14.00">grad 0.0000</text>
</g>
<!-- 140248321100864&#45;&gt;140248321106192tanh -->
<g id="edge34" class="edge">
<title>140248321100864&#45;&gt;140248321106192tanh</title>
<path fill="none" stroke="black" d="M1294,-121.5C1303.08,-121.5 1311.79,-121.5 1319.67,-121.5"/>
<polygon fill="black" stroke="black" points="1319.85,-125 1329.85,-121.5 1319.85,-118 1319.85,-125"/>
</g>
<!-- 140248321100864+&#45;&gt;140248321100864 -->
<g id="edge9" class="edge">
<title>140248321100864+&#45;&gt;140248321100864</title>
<path fill="none" stroke="black" d="M1047.02,-121.5C1054.62,-121.5 1063.46,-121.5 1072.93,-121.5"/>
<polygon fill="black" stroke="black" points="1073,-125 1083,-121.5 1073,-118 1073,-125"/>
</g>
<!-- 140248321101152 -->
<g id="node31" class="node">
<title>140248321101152</title>
<polygon fill="none" stroke="black" points="770,-110.5 770,-146.5 957,-146.5 957,-110.5 770,-110.5"/>
<text text-anchor="middle" x="780" y="-124.8" font-family="Times,serif" font-size="14.00"> </text>
<polyline fill="none" stroke="black" points="790,-110.5 790,-146.5 "/>
<text text-anchor="middle" x="832.5" y="-124.8" font-family="Times,serif" font-size="14.00">data &#45;0.8181</text>
<polyline fill="none" stroke="black" points="875,-110.5 875,-146.5 "/>
<text text-anchor="middle" x="916" y="-124.8" font-family="Times,serif" font-size="14.00">grad 0.0000</text>
</g>
<!-- 140248321101152&#45;&gt;140248321100864+ -->
<g id="edge37" class="edge">
<title>140248321101152&#45;&gt;140248321100864+</title>
<path fill="none" stroke="black" d="M957.05,-124.31C966.06,-123.9 974.79,-123.5 982.7,-123.14"/>
<polygon fill="black" stroke="black" points="983.12,-126.63 992.95,-122.68 982.8,-119.64 983.12,-126.63"/>
</g>
<!-- 140248321101152*&#45;&gt;140248321101152 -->
<g id="edge10" class="edge">
<title>140248321101152*&#45;&gt;140248321101152</title>
<path fill="none" stroke="black" d="M734.21,-128.5C741.73,-128.5 750.43,-128.5 759.67,-128.5"/>
<polygon fill="black" stroke="black" points="759.89,-132 769.89,-128.5 759.89,-125 759.89,-132"/>
</g>
<!-- 140248321099184 -->
<g id="node33" class="node">
<title>140248321099184</title>
<polygon fill="none" stroke="black" points="1083,-227.5 1083,-263.5 1294,-263.5 1294,-227.5 1083,-227.5"/>
<text text-anchor="middle" x="1105" y="-241.8" font-family="Times,serif" font-size="14.00">L1z1</text>
<polyline fill="none" stroke="black" points="1127,-227.5 1127,-263.5 "/>
<text text-anchor="middle" x="1169.5" y="-241.8" font-family="Times,serif" font-size="14.00">data &#45;0.6300</text>
<polyline fill="none" stroke="black" points="1212,-227.5 1212,-263.5 "/>
<text text-anchor="middle" x="1253" y="-241.8" font-family="Times,serif" font-size="14.00">grad 0.0000</text>
</g>
<!-- 140248321099184&#45;&gt;140248321104080tanh -->
<g id="edge33" class="edge">
<title>140248321099184&#45;&gt;140248321104080tanh</title>
<path fill="none" stroke="black" d="M1294,-245.5C1303.08,-245.5 1311.79,-245.5 1319.67,-245.5"/>
<polygon fill="black" stroke="black" points="1319.85,-249 1329.85,-245.5 1319.85,-242 1319.85,-249"/>
</g>
<!-- 140248321099184+&#45;&gt;140248321099184 -->
<g id="edge11" class="edge">
<title>140248321099184+&#45;&gt;140248321099184</title>
<path fill="none" stroke="black" d="M1047.02,-245.5C1054.62,-245.5 1063.46,-245.5 1072.93,-245.5"/>
<polygon fill="black" stroke="black" points="1073,-249 1083,-245.5 1073,-242 1073,-249"/>
</g>
<!-- 140248321107440 -->
<g id="node35" class="node">
<title>140248321107440</title>
<polygon fill="none" stroke="black" points="1757,-80.5 1757,-116.5 1944,-116.5 1944,-80.5 1757,-80.5"/>
<text text-anchor="middle" x="1767" y="-94.8" font-family="Times,serif" font-size="14.00"> </text>
<polyline fill="none" stroke="black" points="1777,-80.5 1777,-116.5 "/>
<text text-anchor="middle" x="1819.5" y="-94.8" font-family="Times,serif" font-size="14.00">data &#45;1.7679</text>
<polyline fill="none" stroke="black" points="1862,-80.5 1862,-116.5 "/>
<text text-anchor="middle" x="1903" y="-94.8" font-family="Times,serif" font-size="14.00">grad 0.0000</text>
</g>
<!-- 140248321101632**2 -->
<g id="node42" class="node">
<title>140248321101632**2</title>
<ellipse fill="none" stroke="black" cx="2007" cy="-98.5" rx="27" ry="18"/>
<text text-anchor="middle" x="2007" y="-94.8" font-family="Times,serif" font-size="14.00">**2</text>
</g>
<!-- 140248321107440&#45;&gt;140248321101632**2 -->
<g id="edge28" class="edge">
<title>140248321107440&#45;&gt;140248321101632**2</title>
<path fill="none" stroke="black" d="M1944.05,-98.5C1953.06,-98.5 1961.79,-98.5 1969.7,-98.5"/>
<polygon fill="black" stroke="black" points="1969.95,-102 1979.95,-98.5 1969.95,-95 1969.95,-102"/>
</g>
<!-- 140248321107440+&#45;&gt;140248321107440 -->
<g id="edge12" class="edge">
<title>140248321107440+&#45;&gt;140248321107440</title>
<path fill="none" stroke="black" d="M1721.21,-98.5C1728.73,-98.5 1737.43,-98.5 1746.67,-98.5"/>
<polygon fill="black" stroke="black" points="1746.89,-102 1756.89,-98.5 1746.89,-95 1746.89,-102"/>
</g>
<!-- 140248321111616 -->
<g id="node37" class="node">
<title>140248321111616</title>
<polygon fill="none" stroke="black" points="2288,-186.5 2288,-222.5 2470,-222.5 2470,-186.5 2288,-186.5"/>
<text text-anchor="middle" x="2298" y="-200.8" font-family="Times,serif" font-size="14.00"> </text>
<polyline fill="none" stroke="black" points="2308,-186.5 2308,-222.5 "/>
<text text-anchor="middle" x="2348" y="-200.8" font-family="Times,serif" font-size="14.00">data 0.1953</text>
<polyline fill="none" stroke="black" points="2388,-186.5 2388,-222.5 "/>
<text text-anchor="middle" x="2429" y="-200.8" font-family="Times,serif" font-size="14.00">grad 0.0000</text>
</g>
<!-- 140248321103744+ -->
<g id="node46" class="node">
<title>140248321103744+</title>
<ellipse fill="none" stroke="black" cx="2751" cy="-176.5" rx="27" ry="18"/>
<text text-anchor="middle" x="2751" y="-172.8" font-family="Times,serif" font-size="14.00">+</text>
</g>
<!-- 140248321111616&#45;&gt;140248321103744+ -->
<g id="edge29" class="edge">
<title>140248321111616&#45;&gt;140248321103744+</title>
<path fill="none" stroke="black" d="M2470.04,-197.69C2548.41,-191.76 2657.98,-183.46 2713.96,-179.23"/>
<polygon fill="black" stroke="black" points="2714.39,-182.7 2724.1,-178.46 2713.86,-175.72 2714.39,-182.7"/>
</g>
<!-- 140248321111616**2&#45;&gt;140248321111616 -->
<g id="edge13" class="edge">
<title>140248321111616**2&#45;&gt;140248321111616</title>
<path fill="none" stroke="black" d="M2034.02,-204.5C2083.84,-204.5 2195.08,-204.5 2277.65,-204.5"/>
<polygon fill="black" stroke="black" points="2277.82,-208 2287.82,-204.5 2277.82,-201 2277.82,-208"/>
</g>
<!-- 140248321105664 -->
<g id="node39" class="node">
<title>140248321105664</title>
<polygon fill="none" stroke="black" points="421,-330.5 421,-366.5 608,-366.5 608,-330.5 421,-330.5"/>
<text text-anchor="middle" x="431" y="-344.8" font-family="Times,serif" font-size="14.00"> </text>
<polyline fill="none" stroke="black" points="441,-330.5 441,-366.5 "/>
<text text-anchor="middle" x="483.5" y="-344.8" font-family="Times,serif" font-size="14.00">data &#45;0.0011</text>
<polyline fill="none" stroke="black" points="526,-330.5 526,-366.5 "/>
<text text-anchor="middle" x="567" y="-344.8" font-family="Times,serif" font-size="14.00">grad 0.0000</text>
</g>
<!-- 140248321105664&#45;&gt;140248321101920+ -->
<g id="edge42" class="edge">
<title>140248321105664&#45;&gt;140248321101920+</title>
<path fill="none" stroke="black" d="M608.09,-331.57C620.28,-328.61 632.51,-325.25 644,-321.5 654.72,-318 666.07,-313.21 676.09,-308.59"/>
<polygon fill="black" stroke="black" points="677.69,-311.71 685.22,-304.25 674.68,-305.38 677.69,-311.71"/>
</g>
<!-- 140248321105664*&#45;&gt;140248321105664 -->
<g id="edge14" class="edge">
<title>140248321105664*&#45;&gt;140248321105664</title>
<path fill="none" stroke="black" d="M348.69,-324.28C365.13,-326.69 387.65,-330 410.76,-333.4"/>
<polygon fill="black" stroke="black" points="410.28,-336.87 420.68,-334.86 411.3,-329.94 410.28,-336.87"/>
</g>
<!-- 140248321101632 -->
<g id="node41" class="node">
<title>140248321101632</title>
<polygon fill="none" stroke="black" points="2070,-80.5 2070,-116.5 2252,-116.5 2252,-80.5 2070,-80.5"/>
<text text-anchor="middle" x="2080" y="-94.8" font-family="Times,serif" font-size="14.00"> </text>
<polyline fill="none" stroke="black" points="2090,-80.5 2090,-116.5 "/>
<text text-anchor="middle" x="2130" y="-94.8" font-family="Times,serif" font-size="14.00">data 3.1256</text>
<polyline fill="none" stroke="black" points="2170,-80.5 2170,-116.5 "/>
<text text-anchor="middle" x="2211" y="-94.8" font-family="Times,serif" font-size="14.00">grad 0.0000</text>
</g>
<!-- 140248321101632&#45;&gt;140248321109840+ -->
<g id="edge20" class="edge">
<title>140248321101632&#45;&gt;140248321109840+</title>
<path fill="none" stroke="black" d="M2238.46,-116.55C2274.34,-125.03 2315.32,-134.7 2343.54,-141.36"/>
<polygon fill="black" stroke="black" points="2342.79,-144.78 2353.33,-143.67 2344.4,-137.97 2342.79,-144.78"/>
</g>
<!-- 140248321101632**2&#45;&gt;140248321101632 -->
<g id="edge15" class="edge">
<title>140248321101632**2&#45;&gt;140248321101632</title>
<path fill="none" stroke="black" d="M2034.13,-98.5C2041.67,-98.5 2050.39,-98.5 2059.64,-98.5"/>
<polygon fill="black" stroke="black" points="2059.87,-102 2069.87,-98.5 2059.87,-95 2059.87,-102"/>
</g>
<!-- 140248321109840 -->
<g id="node43" class="node">
<title>140248321109840</title>
<polygon fill="none" stroke="black" points="2506,-135.5 2506,-171.5 2688,-171.5 2688,-135.5 2506,-135.5"/>
<text text-anchor="middle" x="2516" y="-149.8" font-family="Times,serif" font-size="14.00"> </text>
<polyline fill="none" stroke="black" points="2526,-135.5 2526,-171.5 "/>
<text text-anchor="middle" x="2566" y="-149.8" font-family="Times,serif" font-size="14.00">data 3.1256</text>
<polyline fill="none" stroke="black" points="2606,-135.5 2606,-171.5 "/>
<text text-anchor="middle" x="2647" y="-149.8" font-family="Times,serif" font-size="14.00">grad 0.0000</text>
</g>
<!-- 140248321109840&#45;&gt;140248321103744+ -->
<g id="edge43" class="edge">
<title>140248321109840&#45;&gt;140248321103744+</title>
<path fill="none" stroke="black" d="M2688.18,-167.15C2697.42,-168.54 2706.38,-169.9 2714.47,-171.12"/>
<polygon fill="black" stroke="black" points="2714.15,-174.61 2724.56,-172.65 2715.19,-167.69 2714.15,-174.61"/>
</g>
<!-- 140248321109840+&#45;&gt;140248321109840 -->
<g id="edge16" class="edge">
<title>140248321109840+&#45;&gt;140248321109840</title>
<path fill="none" stroke="black" d="M2406.05,-149.98C2428.53,-150.4 2462.48,-151.03 2495.5,-151.64"/>
<polygon fill="black" stroke="black" points="2495.64,-155.14 2505.7,-151.83 2495.77,-148.14 2495.64,-155.14"/>
</g>
<!-- 140248321103744 -->
<g id="node45" class="node">
<title>140248321103744</title>
<polygon fill="none" stroke="black" points="2814,-158.5 2814,-194.5 2996,-194.5 2996,-158.5 2814,-158.5"/>
<text text-anchor="middle" x="2824" y="-172.8" font-family="Times,serif" font-size="14.00"> </text>
<polyline fill="none" stroke="black" points="2834,-158.5 2834,-194.5 "/>
<text text-anchor="middle" x="2874" y="-172.8" font-family="Times,serif" font-size="14.00">data 3.3209</text>
<polyline fill="none" stroke="black" points="2914,-158.5 2914,-194.5 "/>
<text text-anchor="middle" x="2955" y="-172.8" font-family="Times,serif" font-size="14.00">grad 0.0000</text>
</g>
<!-- 140248321103744&#45;&gt;140248321108304* -->
<g id="edge32" class="edge">
<title>140248321103744&#45;&gt;140248321108304*</title>
<path fill="none" stroke="black" d="M2996.18,-192.52C3005.42,-194.16 3014.38,-195.75 3022.47,-197.19"/>
<polygon fill="black" stroke="black" points="3022.1,-200.68 3032.56,-198.98 3023.32,-193.79 3022.1,-200.68"/>
</g>
<!-- 140248321103744+&#45;&gt;140248321103744 -->
<g id="edge17" class="edge">
<title>140248321103744+&#45;&gt;140248321103744</title>
<path fill="none" stroke="black" d="M2778.13,-176.5C2785.67,-176.5 2794.39,-176.5 2803.64,-176.5"/>
<polygon fill="black" stroke="black" points="2803.87,-180 2813.87,-176.5 2803.87,-173 2803.87,-180"/>
</g>
</g>
</svg>
