<?xml version="1.0" encoding="UTF-8" standalone="no"?>
<!DOCTYPE svg PUBLIC "-//W3C//DTD SVG 1.1//EN"
 "http://www.w3.org/Graphics/SVG/1.1/DTD/svg11.dtd">
<!-- Generated by graphviz version 2.50.0 (0)
 -->
<!-- Pages: 1 -->
<svg width="2664pt" height="210pt"
 viewBox="0.00 0.00 2664.09 210.00" xmlns="http://www.w3.org/2000/svg" xmlns:xlink="http://www.w3.org/1999/xlink">
<g id="graph0" class="graph" transform="scale(1 1) rotate(0) translate(4 206)">
<polygon fill="white" stroke="transparent" points="-4,4 -4,-206 2660.09,-206 2660.09,4 -4,4"/>
<!-- 140379947093008 -->
<g id="node1" class="node">
<title>140379947093008</title>
<polygon fill="none" stroke="black" points="1806.59,-54.5 1806.59,-90.5 1988.59,-90.5 1988.59,-54.5 1806.59,-54.5"/>
<text text-anchor="middle" x="1816.59" y="-68.8" font-family="Times,serif" font-size="14.00"> </text>
<polyline fill="none" stroke="black" points="1826.59,-54.5 1826.59,-90.5 "/>
<text text-anchor="middle" x="1866.59" y="-68.8" font-family="Times,serif" font-size="14.00">data 0.0128</text>
<polyline fill="none" stroke="black" points="1906.59,-54.5 1906.59,-90.5 "/>
<text text-anchor="middle" x="1947.59" y="-68.8" font-family="Times,serif" font-size="14.00">grad 1.4255</text>
</g>
<!-- 140379947092816+ -->
<g id="node19" class="node">
<title>140379947092816+</title>
<ellipse fill="none" stroke="black" cx="2053.09" cy="-99.5" rx="27" ry="18"/>
<text text-anchor="middle" x="2053.09" y="-95.8" font-family="Times,serif" font-size="14.00">+</text>
</g>
<!-- 140379947093008&#45;&gt;140379947092816+ -->
<g id="edge11" class="edge">
<title>140379947093008&#45;&gt;140379947092816+</title>
<path fill="none" stroke="black" d="M1988.77,-88.36C1998.7,-90.11 2008.32,-91.8 2016.94,-93.32"/>
<polygon fill="black" stroke="black" points="2016.45,-96.78 2026.9,-95.07 2017.66,-89.89 2016.45,-96.78"/>
</g>
<!-- 140379947093008* -->
<g id="node2" class="node">
<title>140379947093008*</title>
<ellipse fill="none" stroke="black" cx="1742.09" cy="-72.5" rx="27" ry="18"/>
<text text-anchor="middle" x="1742.09" y="-68.8" font-family="Times,serif" font-size="14.00">*</text>
</g>
<!-- 140379947093008*&#45;&gt;140379947093008 -->
<g id="edge1" class="edge">
<title>140379947093008*&#45;&gt;140379947093008</title>
<path fill="none" stroke="black" d="M1769.13,-72.5C1777.15,-72.5 1786.51,-72.5 1796.44,-72.5"/>
<polygon fill="black" stroke="black" points="1796.54,-76 1806.54,-72.5 1796.54,-69 1796.54,-76"/>
</g>
<!-- 140379947093056 -->
<g id="node3" class="node">
<title>140379947093056</title>
<polygon fill="none" stroke="black" points="1464.09,-82.5 1464.09,-118.5 1679.09,-118.5 1679.09,-82.5 1464.09,-82.5"/>
<text text-anchor="middle" x="1486.09" y="-96.8" font-family="Times,serif" font-size="14.00">L1a0</text>
<polyline fill="none" stroke="black" points="1508.09,-82.5 1508.09,-118.5 "/>
<text text-anchor="middle" x="1550.59" y="-96.8" font-family="Times,serif" font-size="14.00">data &#45;0.0128</text>
<polyline fill="none" stroke="black" points="1593.09,-82.5 1593.09,-118.5 "/>
<text text-anchor="middle" x="1636.09" y="-96.8" font-family="Times,serif" font-size="14.00">grad &#45;1.4255</text>
</g>
<!-- 140379947093056&#45;&gt;140379947093008* -->
<g id="edge13" class="edge">
<title>140379947093056&#45;&gt;140379947093008*</title>
<path fill="none" stroke="black" d="M1679.31,-82.77C1688.66,-81.21 1697.62,-79.72 1705.67,-78.39"/>
<polygon fill="black" stroke="black" points="1706.39,-81.81 1715.68,-76.72 1705.24,-74.91 1706.39,-81.81"/>
</g>
<!-- 140379947093056leakyrelu -->
<g id="node4" class="node">
<title>140379947093056leakyrelu</title>
<ellipse fill="none" stroke="black" cx="1384.55" cy="-100.5" rx="43.59" ry="18"/>
<text text-anchor="middle" x="1384.55" y="-96.8" font-family="Times,serif" font-size="14.00">leakyrelu</text>
</g>
<!-- 140379947093056leakyrelu&#45;&gt;140379947093056 -->
<g id="edge2" class="edge">
<title>140379947093056leakyrelu&#45;&gt;140379947093056</title>
<path fill="none" stroke="black" d="M1428.46,-100.5C1436.38,-100.5 1444.98,-100.5 1453.9,-100.5"/>
<polygon fill="black" stroke="black" points="1454.09,-104 1464.09,-100.5 1454.09,-97 1454.09,-104"/>
</g>
<!-- 140379947815536 -->
<g id="node5" class="node">
<title>140379947815536</title>
<polygon fill="none" stroke="black" points="31,-138.5 31,-174.5 227,-174.5 227,-138.5 31,-138.5"/>
<text text-anchor="middle" x="46" y="-152.8" font-family="Times,serif" font-size="14.00">x0</text>
<polyline fill="none" stroke="black" points="61,-138.5 61,-174.5 "/>
<text text-anchor="middle" x="101" y="-152.8" font-family="Times,serif" font-size="14.00">data 0.1000</text>
<polyline fill="none" stroke="black" points="141,-138.5 141,-174.5 "/>
<text text-anchor="middle" x="184" y="-152.8" font-family="Times,serif" font-size="14.00">grad &#45;0.0040</text>
</g>
<!-- 140379947093920* -->
<g id="node23" class="node">
<title>140379947093920*</title>
<ellipse fill="none" stroke="black" cx="321" cy="-128.5" rx="27" ry="18"/>
<text text-anchor="middle" x="321" y="-124.8" font-family="Times,serif" font-size="14.00">*</text>
</g>
<!-- 140379947815536&#45;&gt;140379947093920* -->
<g id="edge14" class="edge">
<title>140379947815536&#45;&gt;140379947093920*</title>
<path fill="none" stroke="black" d="M227.23,-142.17C247.6,-139.17 267.83,-136.19 284.18,-133.78"/>
<polygon fill="black" stroke="black" points="284.94,-137.2 294.33,-132.28 283.92,-130.28 284.94,-137.2"/>
</g>
<!-- 140379947093632 -->
<g id="node6" class="node">
<title>140379947093632</title>
<polygon fill="none" stroke="red" points="384,-55.5 384,-91.5 647,-91.5 647,-55.5 384,-55.5"/>
<text text-anchor="middle" x="430" y="-69.8" font-family="Times,serif" font-size="14.00">L0w1&#45;&gt;L1w0</text>
<polyline fill="none" stroke="red" points="476,-55.5 476,-91.5 "/>
<text text-anchor="middle" x="518.5" y="-69.8" font-family="Times,serif" font-size="14.00">data &#45;0.9500</text>
<polyline fill="none" stroke="red" points="561,-55.5 561,-91.5 "/>
<text text-anchor="middle" x="604" y="-69.8" font-family="Times,serif" font-size="14.00">grad &#45;0.0128</text>
</g>
<!-- 140379947090320* -->
<g id="node21" class="node">
<title>140379947090320*</title>
<ellipse fill="none" stroke="black" cx="710" cy="-73.5" rx="27" ry="18"/>
<text text-anchor="middle" x="710" y="-69.8" font-family="Times,serif" font-size="14.00">*</text>
</g>
<!-- 140379947093632&#45;&gt;140379947090320* -->
<g id="edge16" class="edge">
<title>140379947093632&#45;&gt;140379947090320*</title>
<path fill="none" stroke="black" d="M647.03,-73.5C656.25,-73.5 664.99,-73.5 672.84,-73.5"/>
<polygon fill="black" stroke="black" points="672.95,-77 682.95,-73.5 672.95,-70 672.95,-77"/>
</g>
<!-- 140379947092624 -->
<g id="node7" class="node">
<title>140379947092624</title>
<polygon fill="none" stroke="black" points="2424.09,-81.5 2424.09,-117.5 2656.09,-117.5 2656.09,-81.5 2424.09,-81.5"/>
<text text-anchor="middle" x="2459.09" y="-95.8" font-family="Times,serif" font-size="14.00">MSE loss</text>
<polyline fill="none" stroke="black" points="2494.09,-81.5 2494.09,-117.5 "/>
<text text-anchor="middle" x="2534.09" y="-95.8" font-family="Times,serif" font-size="14.00">data 0.5080</text>
<polyline fill="none" stroke="black" points="2574.09,-81.5 2574.09,-117.5 "/>
<text text-anchor="middle" x="2615.09" y="-95.8" font-family="Times,serif" font-size="14.00">grad 1.0000</text>
</g>
<!-- 140379947092624**2 -->
<g id="node8" class="node">
<title>140379947092624**2</title>
<ellipse fill="none" stroke="black" cx="2361.09" cy="-99.5" rx="27" ry="18"/>
<text text-anchor="middle" x="2361.09" y="-95.8" font-family="Times,serif" font-size="14.00">**2</text>
</g>
<!-- 140379947092624**2&#45;&gt;140379947092624 -->
<g id="edge3" class="edge">
<title>140379947092624**2&#45;&gt;140379947092624</title>
<path fill="none" stroke="black" d="M2388.21,-99.5C2395.62,-99.5 2404.23,-99.5 2413.49,-99.5"/>
<polygon fill="black" stroke="black" points="2413.78,-103 2423.78,-99.5 2413.78,-96 2413.78,-103"/>
</g>
<!-- 140379947093152 -->
<g id="node9" class="node">
<title>140379947093152</title>
<polygon fill="none" stroke="black" points="1090,-82.5 1090,-118.5 1305,-118.5 1305,-82.5 1090,-82.5"/>
<text text-anchor="middle" x="1112" y="-96.8" font-family="Times,serif" font-size="14.00">L1z0</text>
<polyline fill="none" stroke="black" points="1134,-82.5 1134,-118.5 "/>
<text text-anchor="middle" x="1176.5" y="-96.8" font-family="Times,serif" font-size="14.00">data &#45;1.2770</text>
<polyline fill="none" stroke="black" points="1219,-82.5 1219,-118.5 "/>
<text text-anchor="middle" x="1262" y="-96.8" font-family="Times,serif" font-size="14.00">grad &#45;0.0143</text>
</g>
<!-- 140379947093152&#45;&gt;140379947093056leakyrelu -->
<g id="edge17" class="edge">
<title>140379947093152&#45;&gt;140379947093056leakyrelu</title>
<path fill="none" stroke="black" d="M1305.07,-100.5C1313.88,-100.5 1322.52,-100.5 1330.65,-100.5"/>
<polygon fill="black" stroke="black" points="1330.66,-104 1340.66,-100.5 1330.66,-97 1330.66,-104"/>
</g>
<!-- 140379947093152+ -->
<g id="node10" class="node">
<title>140379947093152+</title>
<ellipse fill="none" stroke="black" cx="1027" cy="-100.5" rx="27" ry="18"/>
<text text-anchor="middle" x="1027" y="-96.8" font-family="Times,serif" font-size="14.00">+</text>
</g>
<!-- 140379947093152+&#45;&gt;140379947093152 -->
<g id="edge4" class="edge">
<title>140379947093152+&#45;&gt;140379947093152</title>
<path fill="none" stroke="black" d="M1054.33,-100.5C1061.74,-100.5 1070.3,-100.5 1079.49,-100.5"/>
<polygon fill="black" stroke="black" points="1079.67,-104 1089.67,-100.5 1079.67,-97 1079.67,-104"/>
</g>
<!-- 140379947093680 -->
<g id="node11" class="node">
<title>140379947093680</title>
<polygon fill="none" stroke="red" points="407.5,-165.5 407.5,-201.5 623.5,-201.5 623.5,-165.5 407.5,-165.5"/>
<text text-anchor="middle" x="430" y="-179.8" font-family="Times,serif" font-size="14.00">L1b0</text>
<polyline fill="none" stroke="red" points="452.5,-165.5 452.5,-201.5 "/>
<text text-anchor="middle" x="495" y="-179.8" font-family="Times,serif" font-size="14.00">data &#45;0.4499</text>
<polyline fill="none" stroke="red" points="537.5,-165.5 537.5,-201.5 "/>
<text text-anchor="middle" x="580.5" y="-179.8" font-family="Times,serif" font-size="14.00">grad &#45;0.0143</text>
</g>
<!-- 140379947090128+ -->
<g id="node14" class="node">
<title>140379947090128+</title>
<ellipse fill="none" stroke="black" cx="710" cy="-128.5" rx="27" ry="18"/>
<text text-anchor="middle" x="710" y="-124.8" font-family="Times,serif" font-size="14.00">+</text>
</g>
<!-- 140379947093680&#45;&gt;140379947090128+ -->
<g id="edge15" class="edge">
<title>140379947093680&#45;&gt;140379947090128+</title>
<path fill="none" stroke="black" d="M615.44,-165.44C626.18,-162.77 636.88,-159.79 647,-156.5 657.73,-153.02 669.08,-148.24 679.09,-143.61"/>
<polygon fill="black" stroke="black" points="680.69,-146.72 688.22,-139.27 677.69,-140.4 680.69,-146.72"/>
</g>
<!-- 140379947090032 -->
<g id="node12" class="node">
<title>140379947090032</title>
<polygon fill="none" stroke="black" points="1476.09,-27.5 1476.09,-63.5 1667.09,-63.5 1667.09,-27.5 1476.09,-27.5"/>
<text text-anchor="middle" x="1486.09" y="-41.8" font-family="Times,serif" font-size="14.00"> </text>
<polyline fill="none" stroke="black" points="1496.09,-27.5 1496.09,-63.5 "/>
<text text-anchor="middle" x="1538.59" y="-41.8" font-family="Times,serif" font-size="14.00">data &#45;1.0000</text>
<polyline fill="none" stroke="black" points="1581.09,-27.5 1581.09,-63.5 "/>
<text text-anchor="middle" x="1624.09" y="-41.8" font-family="Times,serif" font-size="14.00">grad &#45;0.0182</text>
</g>
<!-- 140379947090032&#45;&gt;140379947093008* -->
<g id="edge10" class="edge">
<title>140379947090032&#45;&gt;140379947093008*</title>
<path fill="none" stroke="black" d="M1667.19,-60.66C1680.86,-62.85 1694.16,-64.98 1705.62,-66.82"/>
<polygon fill="black" stroke="black" points="1705.16,-70.29 1715.59,-68.41 1706.27,-63.38 1705.16,-70.29"/>
</g>
<!-- 140379947090128 -->
<g id="node13" class="node">
<title>140379947090128</title>
<polygon fill="none" stroke="black" points="773,-110.5 773,-146.5 964,-146.5 964,-110.5 773,-110.5"/>
<text text-anchor="middle" x="783" y="-124.8" font-family="Times,serif" font-size="14.00"> </text>
<polyline fill="none" stroke="black" points="793,-110.5 793,-146.5 "/>
<text text-anchor="middle" x="835.5" y="-124.8" font-family="Times,serif" font-size="14.00">data &#45;0.4221</text>
<polyline fill="none" stroke="black" points="878,-110.5 878,-146.5 "/>
<text text-anchor="middle" x="921" y="-124.8" font-family="Times,serif" font-size="14.00">grad &#45;0.0143</text>
</g>
<!-- 140379947090128&#45;&gt;140379947093152+ -->
<g id="edge21" class="edge">
<title>140379947090128&#45;&gt;140379947093152+</title>
<path fill="none" stroke="black" d="M964.15,-111.57C973.46,-109.9 982.44,-108.29 990.54,-106.84"/>
<polygon fill="black" stroke="black" points="991.41,-110.24 1000.64,-105.04 990.18,-103.35 991.41,-110.24"/>
</g>
<!-- 140379947090128+&#45;&gt;140379947090128 -->
<g id="edge5" class="edge">
<title>140379947090128+&#45;&gt;140379947090128</title>
<path fill="none" stroke="black" d="M737.19,-128.5C744.67,-128.5 753.31,-128.5 762.51,-128.5"/>
<polygon fill="black" stroke="black" points="762.68,-132 772.68,-128.5 762.68,-125 762.68,-132"/>
</g>
<!-- 140379947093728 -->
<g id="node15" class="node">
<title>140379947093728</title>
<polygon fill="none" stroke="red" points="0,-83.5 0,-119.5 258,-119.5 258,-83.5 0,-83.5"/>
<text text-anchor="middle" x="46" y="-97.8" font-family="Times,serif" font-size="14.00">L0w0&#45;&gt;L1w0</text>
<polyline fill="none" stroke="red" points="92,-83.5 92,-119.5 "/>
<text text-anchor="middle" x="132" y="-97.8" font-family="Times,serif" font-size="14.00">data 0.2789</text>
<polyline fill="none" stroke="red" points="172,-83.5 172,-119.5 "/>
<text text-anchor="middle" x="215" y="-97.8" font-family="Times,serif" font-size="14.00">grad &#45;0.0014</text>
</g>
<!-- 140379947093728&#45;&gt;140379947093920* -->
<g id="edge19" class="edge">
<title>140379947093728&#45;&gt;140379947093920*</title>
<path fill="none" stroke="black" d="M256.73,-119.51C266.69,-120.92 276.12,-122.26 284.51,-123.46"/>
<polygon fill="black" stroke="black" points="284.16,-126.94 294.55,-124.88 285.14,-120.01 284.16,-126.94"/>
</g>
<!-- 140379947814048 -->
<g id="node16" class="node">
<title>140379947814048</title>
<polygon fill="none" stroke="black" points="1805.09,-109.5 1805.09,-145.5 1990.09,-145.5 1990.09,-109.5 1805.09,-109.5"/>
<text text-anchor="middle" x="1816.59" y="-123.8" font-family="Times,serif" font-size="14.00">y</text>
<polyline fill="none" stroke="black" points="1828.09,-109.5 1828.09,-145.5 "/>
<text text-anchor="middle" x="1868.09" y="-123.8" font-family="Times,serif" font-size="14.00">data 0.7000</text>
<polyline fill="none" stroke="black" points="1908.09,-109.5 1908.09,-145.5 "/>
<text text-anchor="middle" x="1949.09" y="-123.8" font-family="Times,serif" font-size="14.00">grad 1.4255</text>
</g>
<!-- 140379947814048&#45;&gt;140379947092816+ -->
<g id="edge20" class="edge">
<title>140379947814048&#45;&gt;140379947092816+</title>
<path fill="none" stroke="black" d="M1990.1,-110.81C1999.58,-109.08 2008.75,-107.41 2017,-105.9"/>
<polygon fill="black" stroke="black" points="2017.7,-109.33 2026.9,-104.09 2016.44,-102.45 2017.7,-109.33"/>
</g>
<!-- 140379947813664 -->
<g id="node17" class="node">
<title>140379947813664</title>
<polygon fill="none" stroke="black" points="419.5,-0.5 419.5,-36.5 611.5,-36.5 611.5,-0.5 419.5,-0.5"/>
<text text-anchor="middle" x="434.5" y="-14.8" font-family="Times,serif" font-size="14.00">x1</text>
<polyline fill="none" stroke="black" points="449.5,-0.5 449.5,-36.5 "/>
<text text-anchor="middle" x="489.5" y="-14.8" font-family="Times,serif" font-size="14.00">data 0.9000</text>
<polyline fill="none" stroke="black" points="529.5,-0.5 529.5,-36.5 "/>
<text text-anchor="middle" x="570.5" y="-14.8" font-family="Times,serif" font-size="14.00">grad 0.0135</text>
</g>
<!-- 140379947813664&#45;&gt;140379947090320* -->
<g id="edge9" class="edge">
<title>140379947813664&#45;&gt;140379947090320*</title>
<path fill="none" stroke="black" d="M611.59,-35.61C623.61,-38.53 635.67,-41.82 647,-45.5 657.73,-48.98 669.08,-53.76 679.09,-58.39"/>
<polygon fill="black" stroke="black" points="677.69,-61.6 688.22,-62.73 680.69,-55.28 677.69,-61.6"/>
</g>
<!-- 140379947092816 -->
<g id="node18" class="node">
<title>140379947092816</title>
<polygon fill="none" stroke="black" points="2116.09,-81.5 2116.09,-117.5 2298.09,-117.5 2298.09,-81.5 2116.09,-81.5"/>
<text text-anchor="middle" x="2126.09" y="-95.8" font-family="Times,serif" font-size="14.00"> </text>
<polyline fill="none" stroke="black" points="2136.09,-81.5 2136.09,-117.5 "/>
<text text-anchor="middle" x="2176.09" y="-95.8" font-family="Times,serif" font-size="14.00">data 0.7128</text>
<polyline fill="none" stroke="black" points="2216.09,-81.5 2216.09,-117.5 "/>
<text text-anchor="middle" x="2257.09" y="-95.8" font-family="Times,serif" font-size="14.00">grad 1.4255</text>
</g>
<!-- 140379947092816&#45;&gt;140379947092624**2 -->
<g id="edge22" class="edge">
<title>140379947092816&#45;&gt;140379947092624**2</title>
<path fill="none" stroke="black" d="M2298.27,-99.5C2307.23,-99.5 2315.93,-99.5 2323.82,-99.5"/>
<polygon fill="black" stroke="black" points="2324.05,-103 2334.05,-99.5 2324.05,-96 2324.05,-103"/>
</g>
<!-- 140379947092816+&#45;&gt;140379947092816 -->
<g id="edge6" class="edge">
<title>140379947092816+&#45;&gt;140379947092816</title>
<path fill="none" stroke="black" d="M2080.22,-99.5C2087.76,-99.5 2096.48,-99.5 2105.73,-99.5"/>
<polygon fill="black" stroke="black" points="2105.96,-103 2115.96,-99.5 2105.96,-96 2105.96,-103"/>
</g>
<!-- 140379947090320 -->
<g id="node20" class="node">
<title>140379947090320</title>
<polygon fill="none" stroke="black" points="773,-55.5 773,-91.5 964,-91.5 964,-55.5 773,-55.5"/>
<text text-anchor="middle" x="783" y="-69.8" font-family="Times,serif" font-size="14.00"> </text>
<polyline fill="none" stroke="black" points="793,-55.5 793,-91.5 "/>
<text text-anchor="middle" x="835.5" y="-69.8" font-family="Times,serif" font-size="14.00">data &#45;0.8550</text>
<polyline fill="none" stroke="black" points="878,-55.5 878,-91.5 "/>
<text text-anchor="middle" x="921" y="-69.8" font-family="Times,serif" font-size="14.00">grad &#45;0.0143</text>
</g>
<!-- 140379947090320&#45;&gt;140379947093152+ -->
<g id="edge18" class="edge">
<title>140379947090320&#45;&gt;140379947093152+</title>
<path fill="none" stroke="black" d="M964.15,-89.83C973.46,-91.44 982.44,-92.99 990.54,-94.38"/>
<polygon fill="black" stroke="black" points="990.19,-97.87 1000.64,-96.12 991.38,-90.98 990.19,-97.87"/>
</g>
<!-- 140379947090320*&#45;&gt;140379947090320 -->
<g id="edge7" class="edge">
<title>140379947090320*&#45;&gt;140379947090320</title>
<path fill="none" stroke="black" d="M737.19,-73.5C744.67,-73.5 753.31,-73.5 762.51,-73.5"/>
<polygon fill="black" stroke="black" points="762.68,-77 772.68,-73.5 762.68,-70 762.68,-77"/>
</g>
<!-- 140379947093920 -->
<g id="node22" class="node">
<title>140379947093920</title>
<polygon fill="none" stroke="black" points="422.5,-110.5 422.5,-146.5 608.5,-146.5 608.5,-110.5 422.5,-110.5"/>
<text text-anchor="middle" x="432.5" y="-124.8" font-family="Times,serif" font-size="14.00"> </text>
<polyline fill="none" stroke="black" points="442.5,-110.5 442.5,-146.5 "/>
<text text-anchor="middle" x="482.5" y="-124.8" font-family="Times,serif" font-size="14.00">data 0.0279</text>
<polyline fill="none" stroke="black" points="522.5,-110.5 522.5,-146.5 "/>
<text text-anchor="middle" x="565.5" y="-124.8" font-family="Times,serif" font-size="14.00">grad &#45;0.0143</text>
</g>
<!-- 140379947093920&#45;&gt;140379947090128+ -->
<g id="edge12" class="edge">
<title>140379947093920&#45;&gt;140379947090128+</title>
<path fill="none" stroke="black" d="M608.52,-128.5C631.31,-128.5 654.41,-128.5 672.71,-128.5"/>
<polygon fill="black" stroke="black" points="672.89,-132 682.89,-128.5 672.89,-125 672.89,-132"/>
</g>
<!-- 140379947093920*&#45;&gt;140379947093920 -->
<g id="edge8" class="edge">
<title>140379947093920*&#45;&gt;140379947093920</title>
<path fill="none" stroke="black" d="M348.36,-128.5C365.3,-128.5 388.51,-128.5 412.2,-128.5"/>
<polygon fill="black" stroke="black" points="412.37,-132 422.37,-128.5 412.37,-125 412.37,-132"/>
</g>
</g>
</svg>
