<?xml version="1.0" encoding="UTF-8" standalone="no"?>
<!DOCTYPE svg PUBLIC "-//W3C//DTD SVG 1.1//EN"
 "http://www.w3.org/Graphics/SVG/1.1/DTD/svg11.dtd">
<!-- Generated by graphviz version 2.50.0 (0)
 -->
<!-- Pages: 1 -->
<svg width="3670pt" height="375pt"
 viewBox="0.00 0.00 3670.00 375.00" xmlns="http://www.w3.org/2000/svg" xmlns:xlink="http://www.w3.org/1999/xlink">
<g id="graph0" class="graph" transform="scale(1 1) rotate(0) translate(4 371)">
<polygon fill="white" stroke="transparent" points="-4,4 -4,-371 3666,-371 3666,4 -4,4"/>
<!-- 140306462349328 -->
<g id="node1" class="node">
<title>140306462349328</title>
<polygon fill="none" stroke="grey" points="1744.5,-126.5 1744.5,-162.5 1936.5,-162.5 1936.5,-126.5 1744.5,-126.5"/>
<text text-anchor="middle" x="1759.5" y="-140.8" font-family="Times,serif" font-size="14.00" fill="grey">y0</text>
<polyline fill="none" stroke="grey" points="1774.5,-126.5 1774.5,-162.5 "/>
<text text-anchor="middle" x="1814.5" y="-140.8" font-family="Times,serif" font-size="14.00" fill="grey">data 1.0000</text>
<polyline fill="none" stroke="grey" points="1854.5,-126.5 1854.5,-162.5 "/>
<text text-anchor="middle" x="1895.5" y="-140.8" font-family="Times,serif" font-size="14.00" fill="grey">grad 0.0000</text>
</g>
<!-- 140306462348992+ -->
<g id="node50" class="node">
<title>140306462348992+</title>
<ellipse fill="none" stroke="black" cx="2002" cy="-125.5" rx="27" ry="18"/>
<text text-anchor="middle" x="2002" y="-121.8" font-family="Times,serif" font-size="14.00">+</text>
</g>
<!-- 140306462349328&#45;&gt;140306462348992+ -->
<g id="edge53" class="edge">
<title>140306462349328&#45;&gt;140306462348992+</title>
<path fill="none" stroke="black" d="M1936.58,-133.17C1946.64,-131.98 1956.36,-130.82 1965.06,-129.78"/>
<polygon fill="black" stroke="black" points="1965.62,-133.24 1975.14,-128.58 1964.79,-126.29 1965.62,-133.24"/>
</g>
<!-- 140306462351392 -->
<g id="node2" class="node">
<title>140306462351392</title>
<polygon fill="none" stroke="grey" points="1419.5,-285.5 1419.5,-321.5 1606.5,-321.5 1606.5,-285.5 1419.5,-285.5"/>
<text text-anchor="middle" x="1429.5" y="-299.8" font-family="Times,serif" font-size="14.00" fill="grey"> </text>
<polyline fill="none" stroke="grey" points="1439.5,-285.5 1439.5,-321.5 "/>
<text text-anchor="middle" x="1482" y="-299.8" font-family="Times,serif" font-size="14.00" fill="grey">data &#45;1.0000</text>
<polyline fill="none" stroke="grey" points="1524.5,-285.5 1524.5,-321.5 "/>
<text text-anchor="middle" x="1565.5" y="-299.8" font-family="Times,serif" font-size="14.00" fill="grey">grad 0.0000</text>
</g>
<!-- 140306462346592* -->
<g id="node41" class="node">
<title>140306462346592*</title>
<ellipse fill="none" stroke="black" cx="1679" cy="-268.5" rx="27" ry="18"/>
<text text-anchor="middle" x="1679" y="-264.8" font-family="Times,serif" font-size="14.00">*</text>
</g>
<!-- 140306462351392&#45;&gt;140306462346592* -->
<g id="edge37" class="edge">
<title>140306462351392&#45;&gt;140306462346592*</title>
<path fill="none" stroke="black" d="M1598.4,-285.49C1614.13,-282.13 1629.74,-278.8 1642.92,-275.99"/>
<polygon fill="black" stroke="black" points="1643.87,-279.36 1652.92,-273.85 1642.41,-272.52 1643.87,-279.36"/>
</g>
<!-- 140306462351440 -->
<g id="node3" class="node">
<title>140306462351440</title>
<polygon fill="none" stroke="grey" points="33.5,-158.5 33.5,-194.5 225.5,-194.5 225.5,-158.5 33.5,-158.5"/>
<text text-anchor="middle" x="48.5" y="-172.8" font-family="Times,serif" font-size="14.00" fill="grey">x0</text>
<polyline fill="none" stroke="grey" points="63.5,-158.5 63.5,-194.5 "/>
<text text-anchor="middle" x="103.5" y="-172.8" font-family="Times,serif" font-size="14.00" fill="grey">data 0.1000</text>
<polyline fill="none" stroke="grey" points="143.5,-158.5 143.5,-194.5 "/>
<text text-anchor="middle" x="184.5" y="-172.8" font-family="Times,serif" font-size="14.00" fill="grey">grad 0.0000</text>
</g>
<!-- 140306462357968* -->
<g id="node13" class="node">
<title>140306462357968*</title>
<ellipse fill="none" stroke="black" cx="322" cy="-272.5" rx="27" ry="18"/>
<text text-anchor="middle" x="322" y="-268.8" font-family="Times,serif" font-size="14.00">*</text>
</g>
<!-- 140306462351440&#45;&gt;140306462357968* -->
<g id="edge24" class="edge">
<title>140306462351440&#45;&gt;140306462357968*</title>
<path fill="none" stroke="black" d="M166.33,-194.56C202.39,-212.73 257.36,-240.43 291.13,-257.45"/>
<polygon fill="black" stroke="black" points="289.56,-260.58 300.07,-261.95 292.71,-254.32 289.56,-260.58"/>
</g>
<!-- 140306462343712* -->
<g id="node18" class="node">
<title>140306462343712*</title>
<ellipse fill="none" stroke="black" cx="322" cy="-39.5" rx="27" ry="18"/>
<text text-anchor="middle" x="322" y="-35.8" font-family="Times,serif" font-size="14.00">*</text>
</g>
<!-- 140306462351440&#45;&gt;140306462343712* -->
<g id="edge26" class="edge">
<title>140306462351440&#45;&gt;140306462343712*</title>
<path fill="none" stroke="black" d="M155.8,-158.31C191.96,-132.3 258.12,-84.72 294.79,-58.35"/>
<polygon fill="black" stroke="black" points="296.93,-61.12 303.01,-52.44 292.85,-55.44 296.93,-61.12"/>
</g>
<!-- 140306462353504 -->
<g id="node4" class="node">
<title>140306462353504</title>
<polygon fill="none" stroke="grey" points="1078,-230.5 1078,-266.5 1284,-266.5 1284,-230.5 1078,-230.5"/>
<text text-anchor="middle" x="1100" y="-244.8" font-family="Times,serif" font-size="14.00" fill="grey">L1z1</text>
<polyline fill="none" stroke="grey" points="1122,-230.5 1122,-266.5 "/>
<text text-anchor="middle" x="1162" y="-244.8" font-family="Times,serif" font-size="14.00" fill="grey">data 0.6794</text>
<polyline fill="none" stroke="grey" points="1202,-230.5 1202,-266.5 "/>
<text text-anchor="middle" x="1243" y="-244.8" font-family="Times,serif" font-size="14.00" fill="grey">grad 0.0000</text>
</g>
<!-- 140306462352160tanh -->
<g id="node30" class="node">
<title>140306462352160tanh</title>
<ellipse fill="none" stroke="black" cx="1347" cy="-248.5" rx="27" ry="18"/>
<text text-anchor="middle" x="1347" y="-244.8" font-family="Times,serif" font-size="14.00">tanh</text>
</g>
<!-- 140306462353504&#45;&gt;140306462352160tanh -->
<g id="edge43" class="edge">
<title>140306462353504&#45;&gt;140306462352160tanh</title>
<path fill="none" stroke="black" d="M1284.47,-248.5C1293.37,-248.5 1301.93,-248.5 1309.69,-248.5"/>
<polygon fill="black" stroke="black" points="1309.72,-252 1319.72,-248.5 1309.72,-245 1309.72,-252"/>
</g>
<!-- 140306462353504+ -->
<g id="node5" class="node">
<title>140306462353504+</title>
<ellipse fill="none" stroke="black" cx="1015" cy="-248.5" rx="27" ry="18"/>
<text text-anchor="middle" x="1015" y="-244.8" font-family="Times,serif" font-size="14.00">+</text>
</g>
<!-- 140306462353504+&#45;&gt;140306462353504 -->
<g id="edge1" class="edge">
<title>140306462353504+&#45;&gt;140306462353504</title>
<path fill="none" stroke="black" d="M1042.35,-248.5C1049.8,-248.5 1058.4,-248.5 1067.61,-248.5"/>
<polygon fill="black" stroke="black" points="1067.8,-252 1077.8,-248.5 1067.8,-245 1067.8,-252"/>
</g>
<!-- 140306462357632 -->
<g id="node6" class="node">
<title>140306462357632</title>
<polygon fill="none" stroke="red" points="385,-110.5 385,-146.5 639,-146.5 639,-110.5 385,-110.5"/>
<text text-anchor="middle" x="431" y="-124.8" font-family="Times,serif" font-size="14.00">L0w1&#45;&gt;L1w0</text>
<polyline fill="none" stroke="red" points="477,-110.5 477,-146.5 "/>
<text text-anchor="middle" x="517" y="-124.8" font-family="Times,serif" font-size="14.00">data 0.6177</text>
<polyline fill="none" stroke="red" points="557,-110.5 557,-146.5 "/>
<text text-anchor="middle" x="598" y="-124.8" font-family="Times,serif" font-size="14.00">grad 0.0000</text>
</g>
<!-- 140306462358160* -->
<g id="node24" class="node">
<title>140306462358160*</title>
<ellipse fill="none" stroke="black" cx="702" cy="-128.5" rx="27" ry="18"/>
<text text-anchor="middle" x="702" y="-124.8" font-family="Times,serif" font-size="14.00">*</text>
</g>
<!-- 140306462357632&#45;&gt;140306462358160* -->
<g id="edge35" class="edge">
<title>140306462357632&#45;&gt;140306462358160*</title>
<path fill="none" stroke="black" d="M639.18,-128.5C648.35,-128.5 657.05,-128.5 664.87,-128.5"/>
<polygon fill="black" stroke="black" points="664.96,-132 674.96,-128.5 664.96,-125 664.96,-132"/>
</g>
<!-- 140306462353600 -->
<g id="node7" class="node">
<title>140306462353600</title>
<polygon fill="none" stroke="red" points="406,-55.5 406,-91.5 618,-91.5 618,-55.5 406,-55.5"/>
<text text-anchor="middle" x="428.5" y="-69.8" font-family="Times,serif" font-size="14.00">L1b0</text>
<polyline fill="none" stroke="red" points="451,-55.5 451,-91.5 "/>
<text text-anchor="middle" x="493.5" y="-69.8" font-family="Times,serif" font-size="14.00">data &#45;0.1240</text>
<polyline fill="none" stroke="red" points="536,-55.5 536,-91.5 "/>
<text text-anchor="middle" x="577" y="-69.8" font-family="Times,serif" font-size="14.00">grad 0.0000</text>
</g>
<!-- 140306462348416+ -->
<g id="node33" class="node">
<title>140306462348416+</title>
<ellipse fill="none" stroke="black" cx="702" cy="-73.5" rx="27" ry="18"/>
<text text-anchor="middle" x="702" y="-69.8" font-family="Times,serif" font-size="14.00">+</text>
</g>
<!-- 140306462353600&#45;&gt;140306462348416+ -->
<g id="edge41" class="edge">
<title>140306462353600&#45;&gt;140306462348416+</title>
<path fill="none" stroke="black" d="M618.27,-73.5C634.82,-73.5 650.9,-73.5 664.41,-73.5"/>
<polygon fill="black" stroke="black" points="664.66,-77 674.66,-73.5 664.66,-70 664.66,-77"/>
</g>
<!-- 140306462343424 -->
<g id="node8" class="node">
<title>140306462343424</title>
<polygon fill="none" stroke="grey" points="2596,-213.5 2596,-249.5 2778,-249.5 2778,-213.5 2596,-213.5"/>
<text text-anchor="middle" x="2606" y="-227.8" font-family="Times,serif" font-size="14.00" fill="grey"> </text>
<polyline fill="none" stroke="grey" points="2616,-213.5 2616,-249.5 "/>
<text text-anchor="middle" x="2656" y="-227.8" font-family="Times,serif" font-size="14.00" fill="grey">data 2.5316</text>
<polyline fill="none" stroke="grey" points="2696,-213.5 2696,-249.5 "/>
<text text-anchor="middle" x="2737" y="-227.8" font-family="Times,serif" font-size="14.00" fill="grey">grad 0.0000</text>
</g>
<!-- 140306462348896+ -->
<g id="node46" class="node">
<title>140306462348896+</title>
<ellipse fill="none" stroke="black" cx="3059" cy="-203.5" rx="27" ry="18"/>
<text text-anchor="middle" x="3059" y="-199.8" font-family="Times,serif" font-size="14.00">+</text>
</g>
<!-- 140306462343424&#45;&gt;140306462348896+ -->
<g id="edge47" class="edge">
<title>140306462343424&#45;&gt;140306462348896+</title>
<path fill="none" stroke="black" d="M2778.04,-224.69C2856.41,-218.76 2965.98,-210.46 3021.96,-206.23"/>
<polygon fill="black" stroke="black" points="3022.39,-209.7 3032.1,-205.46 3021.86,-202.72 3022.39,-209.7"/>
</g>
<!-- 140306462343424**2 -->
<g id="node9" class="node">
<title>140306462343424**2</title>
<ellipse fill="none" stroke="black" cx="2315" cy="-231.5" rx="27" ry="18"/>
<text text-anchor="middle" x="2315" y="-227.8" font-family="Times,serif" font-size="14.00">**2</text>
</g>
<!-- 140306462343424**2&#45;&gt;140306462343424 -->
<g id="edge2" class="edge">
<title>140306462343424**2&#45;&gt;140306462343424</title>
<path fill="none" stroke="black" d="M2342.02,-231.5C2391.84,-231.5 2503.08,-231.5 2585.65,-231.5"/>
<polygon fill="black" stroke="black" points="2585.82,-235 2595.82,-231.5 2585.82,-228 2585.82,-235"/>
</g>
<!-- 140306462353744 -->
<g id="node10" class="node">
<title>140306462353744</title>
<polygon fill="none" stroke="red" points="406,-330.5 406,-366.5 618,-366.5 618,-330.5 406,-330.5"/>
<text text-anchor="middle" x="428.5" y="-344.8" font-family="Times,serif" font-size="14.00">L1b1</text>
<polyline fill="none" stroke="red" points="451,-330.5 451,-366.5 "/>
<text text-anchor="middle" x="493.5" y="-344.8" font-family="Times,serif" font-size="14.00">data &#45;0.1362</text>
<polyline fill="none" stroke="red" points="536,-330.5 536,-366.5 "/>
<text text-anchor="middle" x="577" y="-344.8" font-family="Times,serif" font-size="14.00">grad 0.0000</text>
</g>
<!-- 140306462354176+ -->
<g id="node28" class="node">
<title>140306462354176+</title>
<ellipse fill="none" stroke="black" cx="702" cy="-293.5" rx="27" ry="18"/>
<text text-anchor="middle" x="702" y="-289.8" font-family="Times,serif" font-size="14.00">+</text>
</g>
<!-- 140306462353744&#45;&gt;140306462354176+ -->
<g id="edge39" class="edge">
<title>140306462353744&#45;&gt;140306462354176+</title>
<path fill="none" stroke="black" d="M604.07,-330.45C615.92,-327.47 627.81,-324.14 639,-320.5 649.47,-317.09 660.58,-312.56 670.47,-308.18"/>
<polygon fill="black" stroke="black" points="672.22,-311.23 679.87,-303.91 669.32,-304.86 672.22,-311.23"/>
</g>
<!-- 140306462353792 -->
<g id="node11" class="node">
<title>140306462353792</title>
<polygon fill="none" stroke="red" points="2.5,-21.5 2.5,-57.5 256.5,-57.5 256.5,-21.5 2.5,-21.5"/>
<text text-anchor="middle" x="48.5" y="-35.8" font-family="Times,serif" font-size="14.00">L0w0&#45;&gt;L1w0</text>
<polyline fill="none" stroke="red" points="94.5,-21.5 94.5,-57.5 "/>
<text text-anchor="middle" x="134.5" y="-35.8" font-family="Times,serif" font-size="14.00">data 0.4868</text>
<polyline fill="none" stroke="red" points="174.5,-21.5 174.5,-57.5 "/>
<text text-anchor="middle" x="215.5" y="-35.8" font-family="Times,serif" font-size="14.00">grad 0.0000</text>
</g>
<!-- 140306462353792&#45;&gt;140306462343712* -->
<g id="edge42" class="edge">
<title>140306462353792&#45;&gt;140306462343712*</title>
<path fill="none" stroke="black" d="M256.51,-39.5C266.53,-39.5 276.04,-39.5 284.53,-39.5"/>
<polygon fill="black" stroke="black" points="284.7,-43 294.7,-39.5 284.7,-36 284.7,-43"/>
</g>
<!-- 140306462357968 -->
<g id="node12" class="node">
<title>140306462357968</title>
<polygon fill="none" stroke="grey" points="418.5,-275.5 418.5,-311.5 605.5,-311.5 605.5,-275.5 418.5,-275.5"/>
<text text-anchor="middle" x="428.5" y="-289.8" font-family="Times,serif" font-size="14.00" fill="grey"> </text>
<polyline fill="none" stroke="grey" points="438.5,-275.5 438.5,-311.5 "/>
<text text-anchor="middle" x="481" y="-289.8" font-family="Times,serif" font-size="14.00" fill="grey">data &#45;0.0700</text>
<polyline fill="none" stroke="grey" points="523.5,-275.5 523.5,-311.5 "/>
<text text-anchor="middle" x="564.5" y="-289.8" font-family="Times,serif" font-size="14.00" fill="grey">grad 0.0000</text>
</g>
<!-- 140306462357968&#45;&gt;140306462354176+ -->
<g id="edge40" class="edge">
<title>140306462357968&#45;&gt;140306462354176+</title>
<path fill="none" stroke="black" d="M605.62,-293.5C626.65,-293.5 647.78,-293.5 664.78,-293.5"/>
<polygon fill="black" stroke="black" points="664.8,-297 674.8,-293.5 664.8,-290 664.8,-297"/>
</g>
<!-- 140306462357968*&#45;&gt;140306462357968 -->
<g id="edge3" class="edge">
<title>140306462357968*&#45;&gt;140306462357968</title>
<path fill="none" stroke="black" d="M348.75,-275.38C364.62,-277.15 386.12,-279.55 408.28,-282.03"/>
<polygon fill="black" stroke="black" points="408.16,-285.53 418.49,-283.17 408.94,-278.58 408.16,-285.53"/>
</g>
<!-- 140306462343664 -->
<g id="node14" class="node">
<title>140306462343664</title>
<polygon fill="none" stroke="grey" points="2065,-213.5 2065,-249.5 2252,-249.5 2252,-213.5 2065,-213.5"/>
<text text-anchor="middle" x="2075" y="-227.8" font-family="Times,serif" font-size="14.00" fill="grey"> </text>
<polyline fill="none" stroke="grey" points="2085,-213.5 2085,-249.5 "/>
<text text-anchor="middle" x="2127.5" y="-227.8" font-family="Times,serif" font-size="14.00" fill="grey">data &#45;1.5911</text>
<polyline fill="none" stroke="grey" points="2170,-213.5 2170,-249.5 "/>
<text text-anchor="middle" x="2211" y="-227.8" font-family="Times,serif" font-size="14.00" fill="grey">grad 0.0000</text>
</g>
<!-- 140306462343664&#45;&gt;140306462343424**2 -->
<g id="edge20" class="edge">
<title>140306462343664&#45;&gt;140306462343424**2</title>
<path fill="none" stroke="black" d="M2252.05,-231.5C2261.06,-231.5 2269.79,-231.5 2277.7,-231.5"/>
<polygon fill="black" stroke="black" points="2277.95,-235 2287.95,-231.5 2277.95,-228 2277.95,-235"/>
</g>
<!-- 140306462343664+ -->
<g id="node15" class="node">
<title>140306462343664+</title>
<ellipse fill="none" stroke="black" cx="2002" cy="-231.5" rx="27" ry="18"/>
<text text-anchor="middle" x="2002" y="-227.8" font-family="Times,serif" font-size="14.00">+</text>
</g>
<!-- 140306462343664+&#45;&gt;140306462343664 -->
<g id="edge4" class="edge">
<title>140306462343664+&#45;&gt;140306462343664</title>
<path fill="none" stroke="black" d="M2029.21,-231.5C2036.73,-231.5 2045.43,-231.5 2054.67,-231.5"/>
<polygon fill="black" stroke="black" points="2054.89,-235 2064.89,-231.5 2054.89,-228 2054.89,-235"/>
</g>
<!-- 140306462347792 -->
<g id="node16" class="node">
<title>140306462347792</title>
<polygon fill="#c9c9c9" stroke="#c9c9c9" points="2378,-162.5 2378,-198.5 2560,-198.5 2560,-162.5 2378,-162.5"/>
<text text-anchor="middle" x="2388" y="-176.8" font-family="Times,serif" font-size="14.00" fill="grey"> </text>
<polyline fill="none" stroke="#c9c9c9" points="2398,-162.5 2398,-198.5 "/>
<text text-anchor="middle" x="2438" y="-176.8" font-family="Times,serif" font-size="14.00" fill="grey">data 0.0000</text>
<polyline fill="none" stroke="#c9c9c9" points="2478,-162.5 2478,-198.5 "/>
<text text-anchor="middle" x="2519" y="-176.8" font-family="Times,serif" font-size="14.00" fill="grey">grad 0.0000</text>
</g>
<!-- 140306462347984+ -->
<g id="node26" class="node">
<title>140306462347984+</title>
<ellipse fill="none" stroke="black" cx="2687" cy="-176.5" rx="27" ry="18"/>
<text text-anchor="middle" x="2687" y="-172.8" font-family="Times,serif" font-size="14.00">+</text>
</g>
<!-- 140306462347792&#45;&gt;140306462347984+ -->
<g id="edge29" class="edge">
<title>140306462347792&#45;&gt;140306462347984+</title>
<path fill="none" stroke="black" d="M2560.04,-178.83C2591.5,-178.25 2625.05,-177.63 2649.61,-177.17"/>
<polygon fill="black" stroke="black" points="2649.95,-180.67 2659.89,-176.98 2649.83,-173.67 2649.95,-180.67"/>
</g>
<!-- 140306462343712 -->
<g id="node17" class="node">
<title>140306462343712</title>
<polygon fill="none" stroke="grey" points="421,-0.5 421,-36.5 603,-36.5 603,-0.5 421,-0.5"/>
<text text-anchor="middle" x="431" y="-14.8" font-family="Times,serif" font-size="14.00" fill="grey"> </text>
<polyline fill="none" stroke="grey" points="441,-0.5 441,-36.5 "/>
<text text-anchor="middle" x="481" y="-14.8" font-family="Times,serif" font-size="14.00" fill="grey">data 0.0487</text>
<polyline fill="none" stroke="grey" points="521,-0.5 521,-36.5 "/>
<text text-anchor="middle" x="562" y="-14.8" font-family="Times,serif" font-size="14.00" fill="grey">grad 0.0000</text>
</g>
<!-- 140306462343712&#45;&gt;140306462348416+ -->
<g id="edge27" class="edge">
<title>140306462343712&#45;&gt;140306462348416+</title>
<path fill="none" stroke="black" d="M603.11,-35.36C615.28,-38.34 627.52,-41.73 639,-45.5 649.71,-49.02 661.06,-53.81 671.08,-58.43"/>
<polygon fill="black" stroke="black" points="669.68,-61.64 680.21,-62.77 672.68,-55.32 669.68,-61.64"/>
</g>
<!-- 140306462343712*&#45;&gt;140306462343712 -->
<g id="edge5" class="edge">
<title>140306462343712*&#45;&gt;140306462343712</title>
<path fill="none" stroke="black" d="M348.75,-36.62C365.13,-34.79 387.51,-32.29 410.41,-29.74"/>
<polygon fill="black" stroke="black" points="411.05,-33.19 420.6,-28.6 410.27,-26.23 411.05,-33.19"/>
</g>
<!-- 140306462358064 -->
<g id="node19" class="node">
<title>140306462358064</title>
<polygon fill="none" stroke="grey" points="1410,-99.5 1410,-135.5 1616,-135.5 1616,-99.5 1410,-99.5"/>
<text text-anchor="middle" x="1432" y="-113.8" font-family="Times,serif" font-size="14.00" fill="grey">L1a0</text>
<polyline fill="none" stroke="grey" points="1454,-99.5 1454,-135.5 "/>
<text text-anchor="middle" x="1494" y="-113.8" font-family="Times,serif" font-size="14.00" fill="grey">data 0.4468</text>
<polyline fill="none" stroke="grey" points="1534,-99.5 1534,-135.5 "/>
<text text-anchor="middle" x="1575" y="-113.8" font-family="Times,serif" font-size="14.00" fill="grey">grad 0.0000</text>
</g>
<!-- 140306462350480* -->
<g id="node35" class="node">
<title>140306462350480*</title>
<ellipse fill="none" stroke="black" cx="1679" cy="-89.5" rx="27" ry="18"/>
<text text-anchor="middle" x="1679" y="-85.8" font-family="Times,serif" font-size="14.00">*</text>
</g>
<!-- 140306462358064&#45;&gt;140306462350480* -->
<g id="edge46" class="edge">
<title>140306462358064&#45;&gt;140306462350480*</title>
<path fill="none" stroke="black" d="M1616.47,-100.01C1625.74,-98.42 1634.64,-96.9 1642.65,-95.54"/>
<polygon fill="black" stroke="black" points="1643.36,-98.97 1652.63,-93.83 1642.18,-92.07 1643.36,-98.97"/>
</g>
<!-- 140306462358064tanh -->
<g id="node20" class="node">
<title>140306462358064tanh</title>
<ellipse fill="none" stroke="black" cx="1347" cy="-117.5" rx="27" ry="18"/>
<text text-anchor="middle" x="1347" y="-113.8" font-family="Times,serif" font-size="14.00">tanh</text>
</g>
<!-- 140306462358064tanh&#45;&gt;140306462358064 -->
<g id="edge6" class="edge">
<title>140306462358064tanh&#45;&gt;140306462358064</title>
<path fill="none" stroke="black" d="M1374.35,-117.5C1381.8,-117.5 1390.4,-117.5 1399.61,-117.5"/>
<polygon fill="black" stroke="black" points="1399.8,-121 1409.8,-117.5 1399.8,-114 1399.8,-121"/>
</g>
<!-- 140306462358112 -->
<g id="node21" class="node">
<title>140306462358112</title>
<polygon fill="none" stroke="grey" points="1078,-99.5 1078,-135.5 1284,-135.5 1284,-99.5 1078,-99.5"/>
<text text-anchor="middle" x="1100" y="-113.8" font-family="Times,serif" font-size="14.00" fill="grey">L1z0</text>
<polyline fill="none" stroke="grey" points="1122,-99.5 1122,-135.5 "/>
<text text-anchor="middle" x="1162" y="-113.8" font-family="Times,serif" font-size="14.00" fill="grey">data 0.4807</text>
<polyline fill="none" stroke="grey" points="1202,-99.5 1202,-135.5 "/>
<text text-anchor="middle" x="1243" y="-113.8" font-family="Times,serif" font-size="14.00" fill="grey">grad 0.0000</text>
</g>
<!-- 140306462358112&#45;&gt;140306462358064tanh -->
<g id="edge49" class="edge">
<title>140306462358112&#45;&gt;140306462358064tanh</title>
<path fill="none" stroke="black" d="M1284.47,-117.5C1293.37,-117.5 1301.93,-117.5 1309.69,-117.5"/>
<polygon fill="black" stroke="black" points="1309.72,-121 1319.72,-117.5 1309.72,-114 1309.72,-121"/>
</g>
<!-- 140306462358112+ -->
<g id="node22" class="node">
<title>140306462358112+</title>
<ellipse fill="none" stroke="black" cx="1015" cy="-117.5" rx="27" ry="18"/>
<text text-anchor="middle" x="1015" y="-113.8" font-family="Times,serif" font-size="14.00">+</text>
</g>
<!-- 140306462358112+&#45;&gt;140306462358112 -->
<g id="edge7" class="edge">
<title>140306462358112+&#45;&gt;140306462358112</title>
<path fill="none" stroke="black" d="M1042.35,-117.5C1049.8,-117.5 1058.4,-117.5 1067.61,-117.5"/>
<polygon fill="black" stroke="black" points="1067.8,-121 1077.8,-117.5 1067.8,-114 1067.8,-121"/>
</g>
<!-- 140306462358160 -->
<g id="node23" class="node">
<title>140306462358160</title>
<polygon fill="none" stroke="grey" points="767.5,-110.5 767.5,-146.5 949.5,-146.5 949.5,-110.5 767.5,-110.5"/>
<text text-anchor="middle" x="777.5" y="-124.8" font-family="Times,serif" font-size="14.00" fill="grey"> </text>
<polyline fill="none" stroke="grey" points="787.5,-110.5 787.5,-146.5 "/>
<text text-anchor="middle" x="827.5" y="-124.8" font-family="Times,serif" font-size="14.00" fill="grey">data 0.5560</text>
<polyline fill="none" stroke="grey" points="867.5,-110.5 867.5,-146.5 "/>
<text text-anchor="middle" x="908.5" y="-124.8" font-family="Times,serif" font-size="14.00" fill="grey">grad 0.0000</text>
</g>
<!-- 140306462358160&#45;&gt;140306462358112+ -->
<g id="edge34" class="edge">
<title>140306462358160&#45;&gt;140306462358112+</title>
<path fill="none" stroke="black" d="M949.82,-122.07C959.77,-121.36 969.43,-120.67 978.1,-120.06"/>
<polygon fill="black" stroke="black" points="978.41,-123.54 988.14,-119.34 977.91,-116.56 978.41,-123.54"/>
</g>
<!-- 140306462358160*&#45;&gt;140306462358160 -->
<g id="edge8" class="edge">
<title>140306462358160*&#45;&gt;140306462358160</title>
<path fill="none" stroke="black" d="M729.21,-128.5C737.34,-128.5 746.85,-128.5 756.94,-128.5"/>
<polygon fill="black" stroke="black" points="757.19,-132 767.19,-128.5 757.19,-125 757.19,-132"/>
</g>
<!-- 140306462347984 -->
<g id="node25" class="node">
<title>140306462347984</title>
<polygon fill="none" stroke="grey" points="2814,-162.5 2814,-198.5 2996,-198.5 2996,-162.5 2814,-162.5"/>
<text text-anchor="middle" x="2824" y="-176.8" font-family="Times,serif" font-size="14.00" fill="grey"> </text>
<polyline fill="none" stroke="grey" points="2834,-162.5 2834,-198.5 "/>
<text text-anchor="middle" x="2874" y="-176.8" font-family="Times,serif" font-size="14.00" fill="grey">data 0.3060</text>
<polyline fill="none" stroke="grey" points="2914,-162.5 2914,-198.5 "/>
<text text-anchor="middle" x="2955" y="-176.8" font-family="Times,serif" font-size="14.00" fill="grey">grad 0.0000</text>
</g>
<!-- 140306462347984&#45;&gt;140306462348896+ -->
<g id="edge22" class="edge">
<title>140306462347984&#45;&gt;140306462348896+</title>
<path fill="none" stroke="black" d="M2996.18,-194.15C3005.42,-195.54 3014.38,-196.9 3022.47,-198.12"/>
<polygon fill="black" stroke="black" points="3022.15,-201.61 3032.56,-199.65 3023.19,-194.69 3022.15,-201.61"/>
</g>
<!-- 140306462347984+&#45;&gt;140306462347984 -->
<g id="edge9" class="edge">
<title>140306462347984+&#45;&gt;140306462347984</title>
<path fill="none" stroke="black" d="M2714.05,-176.98C2736.53,-177.4 2770.48,-178.03 2803.5,-178.64"/>
<polygon fill="black" stroke="black" points="2803.64,-182.14 2813.7,-178.83 2803.77,-175.14 2803.64,-182.14"/>
</g>
<!-- 140306462354176 -->
<g id="node27" class="node">
<title>140306462354176</title>
<polygon fill="none" stroke="grey" points="765,-275.5 765,-311.5 952,-311.5 952,-275.5 765,-275.5"/>
<text text-anchor="middle" x="775" y="-289.8" font-family="Times,serif" font-size="14.00" fill="grey"> </text>
<polyline fill="none" stroke="grey" points="785,-275.5 785,-311.5 "/>
<text text-anchor="middle" x="827.5" y="-289.8" font-family="Times,serif" font-size="14.00" fill="grey">data &#45;0.2062</text>
<polyline fill="none" stroke="grey" points="870,-275.5 870,-311.5 "/>
<text text-anchor="middle" x="911" y="-289.8" font-family="Times,serif" font-size="14.00" fill="grey">grad 0.0000</text>
</g>
<!-- 140306462354176&#45;&gt;140306462353504+ -->
<g id="edge52" class="edge">
<title>140306462354176&#45;&gt;140306462353504+</title>
<path fill="none" stroke="black" d="M921.45,-275.46C941.52,-269.61 963.03,-263.35 980.25,-258.33"/>
<polygon fill="black" stroke="black" points="981.23,-261.69 989.86,-255.53 979.28,-254.97 981.23,-261.69"/>
</g>
<!-- 140306462354176+&#45;&gt;140306462354176 -->
<g id="edge10" class="edge">
<title>140306462354176+&#45;&gt;140306462354176</title>
<path fill="none" stroke="black" d="M729.21,-293.5C736.73,-293.5 745.43,-293.5 754.67,-293.5"/>
<polygon fill="black" stroke="black" points="754.89,-297 764.89,-293.5 754.89,-290 754.89,-297"/>
</g>
<!-- 140306462352160 -->
<g id="node29" class="node">
<title>140306462352160</title>
<polygon fill="none" stroke="grey" points="1410,-230.5 1410,-266.5 1616,-266.5 1616,-230.5 1410,-230.5"/>
<text text-anchor="middle" x="1432" y="-244.8" font-family="Times,serif" font-size="14.00" fill="grey">L1a1</text>
<polyline fill="none" stroke="grey" points="1454,-230.5 1454,-266.5 "/>
<text text-anchor="middle" x="1494" y="-244.8" font-family="Times,serif" font-size="14.00" fill="grey">data 0.5911</text>
<polyline fill="none" stroke="grey" points="1534,-230.5 1534,-266.5 "/>
<text text-anchor="middle" x="1575" y="-244.8" font-family="Times,serif" font-size="14.00" fill="grey">grad 0.0000</text>
</g>
<!-- 140306462352160&#45;&gt;140306462346592* -->
<g id="edge50" class="edge">
<title>140306462352160&#45;&gt;140306462346592*</title>
<path fill="none" stroke="black" d="M1616.47,-261C1625.55,-262.1 1634.27,-263.17 1642.15,-264.13"/>
<polygon fill="black" stroke="black" points="1641.98,-267.63 1652.33,-265.37 1642.82,-260.68 1641.98,-267.63"/>
</g>
<!-- 140306462352160tanh&#45;&gt;140306462352160 -->
<g id="edge11" class="edge">
<title>140306462352160tanh&#45;&gt;140306462352160</title>
<path fill="none" stroke="black" d="M1374.35,-248.5C1381.8,-248.5 1390.4,-248.5 1399.61,-248.5"/>
<polygon fill="black" stroke="black" points="1399.8,-252 1409.8,-248.5 1399.8,-245 1399.8,-252"/>
</g>
<!-- 140306462358544 -->
<g id="node31" class="node">
<title>140306462358544</title>
<polygon fill="none" stroke="red" points="385,-220.5 385,-256.5 639,-256.5 639,-220.5 385,-220.5"/>
<text text-anchor="middle" x="431" y="-234.8" font-family="Times,serif" font-size="14.00">L0w1&#45;&gt;L1w1</text>
<polyline fill="none" stroke="red" points="477,-220.5 477,-256.5 "/>
<text text-anchor="middle" x="517" y="-234.8" font-family="Times,serif" font-size="14.00">data 0.9839</text>
<polyline fill="none" stroke="red" points="557,-220.5 557,-256.5 "/>
<text text-anchor="middle" x="598" y="-234.8" font-family="Times,serif" font-size="14.00">grad 0.0000</text>
</g>
<!-- 140306462355136* -->
<g id="node48" class="node">
<title>140306462355136*</title>
<ellipse fill="none" stroke="black" cx="702" cy="-238.5" rx="27" ry="18"/>
<text text-anchor="middle" x="702" y="-234.8" font-family="Times,serif" font-size="14.00">*</text>
</g>
<!-- 140306462358544&#45;&gt;140306462355136* -->
<g id="edge33" class="edge">
<title>140306462358544&#45;&gt;140306462355136*</title>
<path fill="none" stroke="black" d="M639.18,-238.5C648.35,-238.5 657.05,-238.5 664.87,-238.5"/>
<polygon fill="black" stroke="black" points="664.96,-242 674.96,-238.5 664.96,-235 664.96,-242"/>
</g>
<!-- 140306462348416 -->
<g id="node32" class="node">
<title>140306462348416</title>
<polygon fill="none" stroke="grey" points="765,-55.5 765,-91.5 952,-91.5 952,-55.5 765,-55.5"/>
<text text-anchor="middle" x="775" y="-69.8" font-family="Times,serif" font-size="14.00" fill="grey"> </text>
<polyline fill="none" stroke="grey" points="785,-55.5 785,-91.5 "/>
<text text-anchor="middle" x="827.5" y="-69.8" font-family="Times,serif" font-size="14.00" fill="grey">data &#45;0.0753</text>
<polyline fill="none" stroke="grey" points="870,-55.5 870,-91.5 "/>
<text text-anchor="middle" x="911" y="-69.8" font-family="Times,serif" font-size="14.00" fill="grey">grad 0.0000</text>
</g>
<!-- 140306462348416&#45;&gt;140306462358112+ -->
<g id="edge21" class="edge">
<title>140306462348416&#45;&gt;140306462358112+</title>
<path fill="none" stroke="black" d="M922.79,-91.52C942.39,-97.11 963.23,-103.04 980.03,-107.83"/>
<polygon fill="black" stroke="black" points="979.35,-111.27 989.93,-110.64 981.27,-104.54 979.35,-111.27"/>
</g>
<!-- 140306462348416+&#45;&gt;140306462348416 -->
<g id="edge12" class="edge">
<title>140306462348416+&#45;&gt;140306462348416</title>
<path fill="none" stroke="black" d="M729.21,-73.5C736.73,-73.5 745.43,-73.5 754.67,-73.5"/>
<polygon fill="black" stroke="black" points="754.89,-77 764.89,-73.5 754.89,-70 754.89,-77"/>
</g>
<!-- 140306462350480 -->
<g id="node34" class="node">
<title>140306462350480</title>
<polygon fill="none" stroke="grey" points="1747,-71.5 1747,-107.5 1934,-107.5 1934,-71.5 1747,-71.5"/>
<text text-anchor="middle" x="1757" y="-85.8" font-family="Times,serif" font-size="14.00" fill="grey"> </text>
<polyline fill="none" stroke="grey" points="1767,-71.5 1767,-107.5 "/>
<text text-anchor="middle" x="1809.5" y="-85.8" font-family="Times,serif" font-size="14.00" fill="grey">data &#45;0.4468</text>
<polyline fill="none" stroke="grey" points="1852,-71.5 1852,-107.5 "/>
<text text-anchor="middle" x="1893" y="-85.8" font-family="Times,serif" font-size="14.00" fill="grey">grad 0.0000</text>
</g>
<!-- 140306462350480&#45;&gt;140306462348992+ -->
<g id="edge25" class="edge">
<title>140306462350480&#45;&gt;140306462348992+</title>
<path fill="none" stroke="black" d="M1921.72,-107.61C1937.39,-111.14 1953.03,-114.67 1966.24,-117.65"/>
<polygon fill="black" stroke="black" points="1965.73,-121.13 1976.25,-119.91 1967.27,-114.3 1965.73,-121.13"/>
</g>
<!-- 140306462350480*&#45;&gt;140306462350480 -->
<g id="edge13" class="edge">
<title>140306462350480*&#45;&gt;140306462350480</title>
<path fill="none" stroke="black" d="M1706.34,-89.5C1715.14,-89.5 1725.56,-89.5 1736.62,-89.5"/>
<polygon fill="black" stroke="black" points="1736.94,-93 1746.94,-89.5 1736.94,-86 1736.94,-93"/>
</g>
<!-- 140306462348560 -->
<g id="node36" class="node">
<title>140306462348560</title>
<polygon fill="none" stroke="grey" points="3430,-212.5 3430,-248.5 3662,-248.5 3662,-212.5 3430,-212.5"/>
<text text-anchor="middle" x="3465" y="-226.8" font-family="Times,serif" font-size="14.00" fill="grey">MSE loss</text>
<polyline fill="none" stroke="grey" points="3500,-212.5 3500,-248.5 "/>
<text text-anchor="middle" x="3540" y="-226.8" font-family="Times,serif" font-size="14.00" fill="grey">data 1.4188</text>
<polyline fill="none" stroke="grey" points="3580,-212.5 3580,-248.5 "/>
<text text-anchor="middle" x="3621" y="-226.8" font-family="Times,serif" font-size="14.00" fill="grey">grad 0.0000</text>
</g>
<!-- 140306462348560* -->
<g id="node37" class="node">
<title>140306462348560*</title>
<ellipse fill="none" stroke="black" cx="3367" cy="-230.5" rx="27" ry="18"/>
<text text-anchor="middle" x="3367" y="-226.8" font-family="Times,serif" font-size="14.00">*</text>
</g>
<!-- 140306462348560*&#45;&gt;140306462348560 -->
<g id="edge14" class="edge">
<title>140306462348560*&#45;&gt;140306462348560</title>
<path fill="none" stroke="black" d="M3394.12,-230.5C3401.53,-230.5 3410.14,-230.5 3419.4,-230.5"/>
<polygon fill="black" stroke="black" points="3419.69,-234 3429.69,-230.5 3419.69,-227 3419.69,-234"/>
</g>
<!-- 140306462348608 -->
<g id="node38" class="node">
<title>140306462348608</title>
<polygon fill="none" stroke="grey" points="3122,-240.5 3122,-276.5 3304,-276.5 3304,-240.5 3122,-240.5"/>
<text text-anchor="middle" x="3132" y="-254.8" font-family="Times,serif" font-size="14.00" fill="grey"> </text>
<polyline fill="none" stroke="grey" points="3142,-240.5 3142,-276.5 "/>
<text text-anchor="middle" x="3182" y="-254.8" font-family="Times,serif" font-size="14.00" fill="grey">data 0.5000</text>
<polyline fill="none" stroke="grey" points="3222,-240.5 3222,-276.5 "/>
<text text-anchor="middle" x="3263" y="-254.8" font-family="Times,serif" font-size="14.00" fill="grey">grad 0.0000</text>
</g>
<!-- 140306462348608&#45;&gt;140306462348560* -->
<g id="edge30" class="edge">
<title>140306462348608&#45;&gt;140306462348560*</title>
<path fill="none" stroke="black" d="M3304.18,-241.89C3313.61,-240.15 3322.75,-238.47 3330.98,-236.95"/>
<polygon fill="black" stroke="black" points="3331.66,-240.39 3340.86,-235.13 3330.39,-233.5 3331.66,-240.39"/>
</g>
<!-- 140306462350672 -->
<g id="node39" class="node">
<title>140306462350672</title>
<polygon fill="none" stroke="grey" points="1419.5,-44.5 1419.5,-80.5 1606.5,-80.5 1606.5,-44.5 1419.5,-44.5"/>
<text text-anchor="middle" x="1429.5" y="-58.8" font-family="Times,serif" font-size="14.00" fill="grey"> </text>
<polyline fill="none" stroke="grey" points="1439.5,-44.5 1439.5,-80.5 "/>
<text text-anchor="middle" x="1482" y="-58.8" font-family="Times,serif" font-size="14.00" fill="grey">data &#45;1.0000</text>
<polyline fill="none" stroke="grey" points="1524.5,-44.5 1524.5,-80.5 "/>
<text text-anchor="middle" x="1565.5" y="-58.8" font-family="Times,serif" font-size="14.00" fill="grey">grad 0.0000</text>
</g>
<!-- 140306462350672&#45;&gt;140306462350480* -->
<g id="edge28" class="edge">
<title>140306462350672&#45;&gt;140306462350480*</title>
<path fill="none" stroke="black" d="M1606.54,-77.74C1619.43,-79.86 1631.96,-81.92 1642.84,-83.71"/>
<polygon fill="black" stroke="black" points="1642.28,-87.17 1652.71,-85.34 1643.42,-80.26 1642.28,-87.17"/>
</g>
<!-- 140306462346592 -->
<g id="node40" class="node">
<title>140306462346592</title>
<polygon fill="none" stroke="grey" points="1747,-250.5 1747,-286.5 1934,-286.5 1934,-250.5 1747,-250.5"/>
<text text-anchor="middle" x="1757" y="-264.8" font-family="Times,serif" font-size="14.00" fill="grey"> </text>
<polyline fill="none" stroke="grey" points="1767,-250.5 1767,-286.5 "/>
<text text-anchor="middle" x="1809.5" y="-264.8" font-family="Times,serif" font-size="14.00" fill="grey">data &#45;0.5911</text>
<polyline fill="none" stroke="grey" points="1852,-250.5 1852,-286.5 "/>
<text text-anchor="middle" x="1893" y="-264.8" font-family="Times,serif" font-size="14.00" fill="grey">grad 0.0000</text>
</g>
<!-- 140306462346592&#45;&gt;140306462343664+ -->
<g id="edge51" class="edge">
<title>140306462346592&#45;&gt;140306462343664+</title>
<path fill="none" stroke="black" d="M1919.38,-250.43C1935.77,-246.63 1952.25,-242.81 1966.08,-239.6"/>
<polygon fill="black" stroke="black" points="1967.14,-242.95 1976.09,-237.28 1965.56,-236.13 1967.14,-242.95"/>
</g>
<!-- 140306462346592*&#45;&gt;140306462346592 -->
<g id="edge15" class="edge">
<title>140306462346592*&#45;&gt;140306462346592</title>
<path fill="none" stroke="black" d="M1706.34,-268.5C1715.14,-268.5 1725.56,-268.5 1736.62,-268.5"/>
<polygon fill="black" stroke="black" points="1736.94,-272 1746.94,-268.5 1736.94,-265 1736.94,-272"/>
</g>
<!-- 140306462348848 -->
<g id="node42" class="node">
<title>140306462348848</title>
<polygon fill="none" stroke="grey" points="2378,-107.5 2378,-143.5 2560,-143.5 2560,-107.5 2378,-107.5"/>
<text text-anchor="middle" x="2388" y="-121.8" font-family="Times,serif" font-size="14.00" fill="grey"> </text>
<polyline fill="none" stroke="grey" points="2398,-107.5 2398,-143.5 "/>
<text text-anchor="middle" x="2438" y="-121.8" font-family="Times,serif" font-size="14.00" fill="grey">data 0.3060</text>
<polyline fill="none" stroke="grey" points="2478,-107.5 2478,-143.5 "/>
<text text-anchor="middle" x="2519" y="-121.8" font-family="Times,serif" font-size="14.00" fill="grey">grad 0.0000</text>
</g>
<!-- 140306462348848&#45;&gt;140306462347984+ -->
<g id="edge31" class="edge">
<title>140306462348848&#45;&gt;140306462347984+</title>
<path fill="none" stroke="black" d="M2546.46,-143.55C2582.34,-152.03 2623.32,-161.7 2651.54,-168.36"/>
<polygon fill="black" stroke="black" points="2650.79,-171.78 2661.33,-170.67 2652.4,-164.97 2650.79,-171.78"/>
</g>
<!-- 140306462348848**2 -->
<g id="node43" class="node">
<title>140306462348848**2</title>
<ellipse fill="none" stroke="black" cx="2315" cy="-125.5" rx="27" ry="18"/>
<text text-anchor="middle" x="2315" y="-121.8" font-family="Times,serif" font-size="14.00">**2</text>
</g>
<!-- 140306462348848**2&#45;&gt;140306462348848 -->
<g id="edge16" class="edge">
<title>140306462348848**2&#45;&gt;140306462348848</title>
<path fill="none" stroke="black" d="M2342.13,-125.5C2349.67,-125.5 2358.39,-125.5 2367.64,-125.5"/>
<polygon fill="black" stroke="black" points="2367.87,-129 2377.87,-125.5 2367.87,-122 2367.87,-129"/>
</g>
<!-- 140306462357056 -->
<g id="node44" class="node">
<title>140306462357056</title>
<polygon fill="none" stroke="red" points="0,-254.5 0,-290.5 259,-290.5 259,-254.5 0,-254.5"/>
<text text-anchor="middle" x="46" y="-268.8" font-family="Times,serif" font-size="14.00">L0w0&#45;&gt;L1w1</text>
<polyline fill="none" stroke="red" points="92,-254.5 92,-290.5 "/>
<text text-anchor="middle" x="134.5" y="-268.8" font-family="Times,serif" font-size="14.00">data &#45;0.6999</text>
<polyline fill="none" stroke="red" points="177,-254.5 177,-290.5 "/>
<text text-anchor="middle" x="218" y="-268.8" font-family="Times,serif" font-size="14.00">grad 0.0000</text>
</g>
<!-- 140306462357056&#45;&gt;140306462357968* -->
<g id="edge48" class="edge">
<title>140306462357056&#45;&gt;140306462357968*</title>
<path fill="none" stroke="black" d="M259.15,-272.5C268.34,-272.5 277.05,-272.5 284.89,-272.5"/>
<polygon fill="black" stroke="black" points="284.98,-276 294.98,-272.5 284.98,-269 284.98,-276"/>
</g>
<!-- 140306462348896 -->
<g id="node45" class="node">
<title>140306462348896</title>
<polygon fill="none" stroke="grey" points="3122,-185.5 3122,-221.5 3304,-221.5 3304,-185.5 3122,-185.5"/>
<text text-anchor="middle" x="3132" y="-199.8" font-family="Times,serif" font-size="14.00" fill="grey"> </text>
<polyline fill="none" stroke="grey" points="3142,-185.5 3142,-221.5 "/>
<text text-anchor="middle" x="3182" y="-199.8" font-family="Times,serif" font-size="14.00" fill="grey">data 2.8376</text>
<polyline fill="none" stroke="grey" points="3222,-185.5 3222,-221.5 "/>
<text text-anchor="middle" x="3263" y="-199.8" font-family="Times,serif" font-size="14.00" fill="grey">grad 0.0000</text>
</g>
<!-- 140306462348896&#45;&gt;140306462348560* -->
<g id="edge23" class="edge">
<title>140306462348896&#45;&gt;140306462348560*</title>
<path fill="none" stroke="black" d="M3304.18,-219.52C3313.42,-221.16 3322.38,-222.75 3330.47,-224.19"/>
<polygon fill="black" stroke="black" points="3330.1,-227.68 3340.56,-225.98 3331.32,-220.79 3330.1,-227.68"/>
</g>
<!-- 140306462348896+&#45;&gt;140306462348896 -->
<g id="edge17" class="edge">
<title>140306462348896+&#45;&gt;140306462348896</title>
<path fill="none" stroke="black" d="M3086.13,-203.5C3093.67,-203.5 3102.39,-203.5 3111.64,-203.5"/>
<polygon fill="black" stroke="black" points="3111.87,-207 3121.87,-203.5 3111.87,-200 3111.87,-207"/>
</g>
<!-- 140306462355136 -->
<g id="node47" class="node">
<title>140306462355136</title>
<polygon fill="none" stroke="grey" points="767.5,-220.5 767.5,-256.5 949.5,-256.5 949.5,-220.5 767.5,-220.5"/>
<text text-anchor="middle" x="777.5" y="-234.8" font-family="Times,serif" font-size="14.00" fill="grey"> </text>
<polyline fill="none" stroke="grey" points="787.5,-220.5 787.5,-256.5 "/>
<text text-anchor="middle" x="827.5" y="-234.8" font-family="Times,serif" font-size="14.00" fill="grey">data 0.8855</text>
<polyline fill="none" stroke="grey" points="867.5,-220.5 867.5,-256.5 "/>
<text text-anchor="middle" x="908.5" y="-234.8" font-family="Times,serif" font-size="14.00" fill="grey">grad 0.0000</text>
</g>
<!-- 140306462355136&#45;&gt;140306462353504+ -->
<g id="edge44" class="edge">
<title>140306462355136&#45;&gt;140306462353504+</title>
<path fill="none" stroke="black" d="M949.82,-244.35C959.57,-244.98 969.04,-245.59 977.57,-246.14"/>
<polygon fill="black" stroke="black" points="977.62,-249.65 987.83,-246.81 978.08,-242.67 977.62,-249.65"/>
</g>
<!-- 140306462355136*&#45;&gt;140306462355136 -->
<g id="edge18" class="edge">
<title>140306462355136*&#45;&gt;140306462355136</title>
<path fill="none" stroke="black" d="M729.21,-238.5C737.34,-238.5 746.85,-238.5 756.94,-238.5"/>
<polygon fill="black" stroke="black" points="757.19,-242 767.19,-238.5 757.19,-235 757.19,-242"/>
</g>
<!-- 140306462348992 -->
<g id="node49" class="node">
<title>140306462348992</title>
<polygon fill="none" stroke="grey" points="2067.5,-107.5 2067.5,-143.5 2249.5,-143.5 2249.5,-107.5 2067.5,-107.5"/>
<text text-anchor="middle" x="2077.5" y="-121.8" font-family="Times,serif" font-size="14.00" fill="grey"> </text>
<polyline fill="none" stroke="grey" points="2087.5,-107.5 2087.5,-143.5 "/>
<text text-anchor="middle" x="2127.5" y="-121.8" font-family="Times,serif" font-size="14.00" fill="grey">data 0.5532</text>
<polyline fill="none" stroke="grey" points="2167.5,-107.5 2167.5,-143.5 "/>
<text text-anchor="middle" x="2208.5" y="-121.8" font-family="Times,serif" font-size="14.00" fill="grey">grad 0.0000</text>
</g>
<!-- 140306462348992&#45;&gt;140306462348848**2 -->
<g id="edge36" class="edge">
<title>140306462348992&#45;&gt;140306462348848**2</title>
<path fill="none" stroke="black" d="M2249.82,-125.5C2259.57,-125.5 2269.04,-125.5 2277.57,-125.5"/>
<polygon fill="black" stroke="black" points="2277.83,-129 2287.83,-125.5 2277.83,-122 2277.83,-129"/>
</g>
<!-- 140306462348992+&#45;&gt;140306462348992 -->
<g id="edge19" class="edge">
<title>140306462348992+&#45;&gt;140306462348992</title>
<path fill="none" stroke="black" d="M2029.21,-125.5C2037.34,-125.5 2046.85,-125.5 2056.94,-125.5"/>
<polygon fill="black" stroke="black" points="2057.19,-129 2067.19,-125.5 2057.19,-122 2057.19,-129"/>
</g>
<!-- 140306462349280 -->
<g id="node51" class="node">
<title>140306462349280</title>
<polygon fill="none" stroke="grey" points="1742,-195.5 1742,-231.5 1939,-231.5 1939,-195.5 1742,-195.5"/>
<text text-anchor="middle" x="1757" y="-209.8" font-family="Times,serif" font-size="14.00" fill="grey">y1</text>
<polyline fill="none" stroke="grey" points="1772,-195.5 1772,-231.5 "/>
<text text-anchor="middle" x="1814.5" y="-209.8" font-family="Times,serif" font-size="14.00" fill="grey">data &#45;1.0000</text>
<polyline fill="none" stroke="grey" points="1857,-195.5 1857,-231.5 "/>
<text text-anchor="middle" x="1898" y="-209.8" font-family="Times,serif" font-size="14.00" fill="grey">grad 0.0000</text>
</g>
<!-- 140306462349280&#45;&gt;140306462343664+ -->
<g id="edge45" class="edge">
<title>140306462349280&#45;&gt;140306462343664+</title>
<path fill="none" stroke="black" d="M1939.33,-224.54C1948.38,-225.56 1957.09,-226.55 1964.98,-227.44"/>
<polygon fill="black" stroke="black" points="1964.85,-230.94 1975.18,-228.59 1965.64,-223.99 1964.85,-230.94"/>
</g>
<!-- 140306462357488 -->
<g id="node52" class="node">
<title>140306462357488</title>
<polygon fill="none" stroke="grey" points="416,-165.5 416,-201.5 608,-201.5 608,-165.5 416,-165.5"/>
<text text-anchor="middle" x="431" y="-179.8" font-family="Times,serif" font-size="14.00" fill="grey">x1</text>
<polyline fill="none" stroke="grey" points="446,-165.5 446,-201.5 "/>
<text text-anchor="middle" x="486" y="-179.8" font-family="Times,serif" font-size="14.00" fill="grey">data 0.9000</text>
<polyline fill="none" stroke="grey" points="526,-165.5 526,-201.5 "/>
<text text-anchor="middle" x="567" y="-179.8" font-family="Times,serif" font-size="14.00" fill="grey">grad 0.0000</text>
</g>
<!-- 140306462357488&#45;&gt;140306462358160* -->
<g id="edge38" class="edge">
<title>140306462357488&#45;&gt;140306462358160*</title>
<path fill="none" stroke="black" d="M604.07,-165.45C615.92,-162.47 627.81,-159.14 639,-155.5 649.47,-152.09 660.58,-147.56 670.47,-143.18"/>
<polygon fill="black" stroke="black" points="672.22,-146.23 679.87,-138.91 669.32,-139.86 672.22,-146.23"/>
</g>
<!-- 140306462357488&#45;&gt;140306462355136* -->
<g id="edge32" class="edge">
<title>140306462357488&#45;&gt;140306462355136*</title>
<path fill="none" stroke="black" d="M607.85,-201.54C618.44,-204.23 629.01,-207.22 639,-210.5 649.71,-214.02 661.06,-218.81 671.08,-223.43"/>
<polygon fill="black" stroke="black" points="669.68,-226.64 680.21,-227.77 672.68,-220.32 669.68,-226.64"/>
</g>
</g>
</svg>
