<?xml version="1.0" encoding="UTF-8" standalone="no"?>
<!DOCTYPE svg PUBLIC "-//W3C//DTD SVG 1.1//EN"
 "http://www.w3.org/Graphics/SVG/1.1/DTD/svg11.dtd">
<!-- Generated by graphviz version 2.50.0 (0)
 -->
<!-- Pages: 1 -->
<svg width="3053pt" height="293pt"
 viewBox="0.00 0.00 3053.09 293.00" xmlns="http://www.w3.org/2000/svg" xmlns:xlink="http://www.w3.org/1999/xlink">
<g id="graph0" class="graph" transform="scale(1 1) rotate(0) translate(4 289)">
<polygon fill="white" stroke="transparent" points="-4,4 -4,-289 3049.09,-289 3049.09,4 -4,4"/>
<!-- 140315481782448 -->
<g id="node1" class="node">
<title>140315481782448</title>
<polygon fill="none" stroke="black" points="1162,-55.5 1162,-91.5 1353,-91.5 1353,-55.5 1162,-55.5"/>
<text text-anchor="middle" x="1172" y="-69.8" font-family="Times,serif" font-size="14.00"> </text>
<polyline fill="none" stroke="black" points="1182,-55.5 1182,-91.5 "/>
<text text-anchor="middle" x="1224.5" y="-69.8" font-family="Times,serif" font-size="14.00">data &#45;0.0900</text>
<polyline fill="none" stroke="black" points="1267,-55.5 1267,-91.5 "/>
<text text-anchor="middle" x="1310" y="-69.8" font-family="Times,serif" font-size="14.00">grad &#45;0.0143</text>
</g>
<!-- 140315481770208+ -->
<g id="node5" class="node">
<title>140315481770208+</title>
<ellipse fill="none" stroke="black" cx="1416" cy="-100.5" rx="27" ry="18"/>
<text text-anchor="middle" x="1416" y="-96.8" font-family="Times,serif" font-size="14.00">+</text>
</g>
<!-- 140315481782448&#45;&gt;140315481770208+ -->
<g id="edge13" class="edge">
<title>140315481782448&#45;&gt;140315481770208+</title>
<path fill="none" stroke="black" d="M1353.15,-89.83C1362.46,-91.44 1371.44,-92.99 1379.54,-94.38"/>
<polygon fill="black" stroke="black" points="1379.19,-97.87 1389.64,-96.12 1380.38,-90.98 1379.19,-97.87"/>
</g>
<!-- 140315481782448* -->
<g id="node2" class="node">
<title>140315481782448*</title>
<ellipse fill="none" stroke="black" cx="1099" cy="-73.5" rx="27" ry="18"/>
<text text-anchor="middle" x="1099" y="-69.8" font-family="Times,serif" font-size="14.00">*</text>
</g>
<!-- 140315481782448*&#45;&gt;140315481782448 -->
<g id="edge1" class="edge">
<title>140315481782448*&#45;&gt;140315481782448</title>
<path fill="none" stroke="black" d="M1126.19,-73.5C1133.67,-73.5 1142.31,-73.5 1151.51,-73.5"/>
<polygon fill="black" stroke="black" points="1151.68,-77 1161.68,-73.5 1151.68,-70 1151.68,-77"/>
</g>
<!-- 140315481776304 -->
<g id="node3" class="node">
<title>140315481776304</title>
<polygon fill="none" stroke="black" points="808.5,-55.5 808.5,-91.5 1000.5,-91.5 1000.5,-55.5 808.5,-55.5"/>
<text text-anchor="middle" x="823.5" y="-69.8" font-family="Times,serif" font-size="14.00">x2</text>
<polyline fill="none" stroke="black" points="838.5,-55.5 838.5,-91.5 "/>
<text text-anchor="middle" x="878.5" y="-69.8" font-family="Times,serif" font-size="14.00">data 0.2000</text>
<polyline fill="none" stroke="black" points="918.5,-55.5 918.5,-91.5 "/>
<text text-anchor="middle" x="959.5" y="-69.8" font-family="Times,serif" font-size="14.00">grad 0.0064</text>
</g>
<!-- 140315481776304&#45;&gt;140315481782448* -->
<g id="edge17" class="edge">
<title>140315481776304&#45;&gt;140315481782448*</title>
<path fill="none" stroke="black" d="M1000.62,-73.5C1022.27,-73.5 1044,-73.5 1061.42,-73.5"/>
<polygon fill="black" stroke="black" points="1061.67,-77 1071.67,-73.5 1061.67,-70 1061.67,-77"/>
</g>
<!-- 140315481770208 -->
<g id="node4" class="node">
<title>140315481770208</title>
<polygon fill="none" stroke="black" points="1479,-82.5 1479,-118.5 1694,-118.5 1694,-82.5 1479,-82.5"/>
<text text-anchor="middle" x="1501" y="-96.8" font-family="Times,serif" font-size="14.00">L1z0</text>
<polyline fill="none" stroke="black" points="1523,-82.5 1523,-118.5 "/>
<text text-anchor="middle" x="1565.5" y="-96.8" font-family="Times,serif" font-size="14.00">data &#45;1.4707</text>
<polyline fill="none" stroke="black" points="1608,-82.5 1608,-118.5 "/>
<text text-anchor="middle" x="1651" y="-96.8" font-family="Times,serif" font-size="14.00">grad &#45;0.0143</text>
</g>
<!-- 140315481772704leakyrelu -->
<g id="node11" class="node">
<title>140315481772704leakyrelu</title>
<ellipse fill="none" stroke="black" cx="1773.55" cy="-100.5" rx="43.59" ry="18"/>
<text text-anchor="middle" x="1773.55" y="-96.8" font-family="Times,serif" font-size="14.00">leakyrelu</text>
</g>
<!-- 140315481770208&#45;&gt;140315481772704leakyrelu -->
<g id="edge19" class="edge">
<title>140315481770208&#45;&gt;140315481772704leakyrelu</title>
<path fill="none" stroke="black" d="M1694.07,-100.5C1702.88,-100.5 1711.52,-100.5 1719.65,-100.5"/>
<polygon fill="black" stroke="black" points="1719.66,-104 1729.66,-100.5 1719.66,-97 1719.66,-104"/>
</g>
<!-- 140315481770208+&#45;&gt;140315481770208 -->
<g id="edge2" class="edge">
<title>140315481770208+&#45;&gt;140315481770208</title>
<path fill="none" stroke="black" d="M1443.33,-100.5C1450.74,-100.5 1459.3,-100.5 1468.49,-100.5"/>
<polygon fill="black" stroke="black" points="1468.67,-104 1478.67,-100.5 1468.67,-97 1468.67,-104"/>
</g>
<!-- 140315481770256 -->
<g id="node6" class="node">
<title>140315481770256</title>
<polygon fill="none" stroke="black" points="2195.59,-109.5 2195.59,-145.5 2377.59,-145.5 2377.59,-109.5 2195.59,-109.5"/>
<text text-anchor="middle" x="2205.59" y="-123.8" font-family="Times,serif" font-size="14.00"> </text>
<polyline fill="none" stroke="black" points="2215.59,-109.5 2215.59,-145.5 "/>
<text text-anchor="middle" x="2255.59" y="-123.8" font-family="Times,serif" font-size="14.00">data 0.0147</text>
<polyline fill="none" stroke="black" points="2295.59,-109.5 2295.59,-145.5 "/>
<text text-anchor="middle" x="2336.59" y="-123.8" font-family="Times,serif" font-size="14.00">grad 1.4294</text>
</g>
<!-- 140315481773424+ -->
<g id="node21" class="node">
<title>140315481773424+</title>
<ellipse fill="none" stroke="black" cx="2442.09" cy="-154.5" rx="27" ry="18"/>
<text text-anchor="middle" x="2442.09" y="-150.8" font-family="Times,serif" font-size="14.00">+</text>
</g>
<!-- 140315481770256&#45;&gt;140315481773424+ -->
<g id="edge14" class="edge">
<title>140315481770256&#45;&gt;140315481773424+</title>
<path fill="none" stroke="black" d="M2377.77,-143.36C2387.7,-145.11 2397.32,-146.8 2405.94,-148.32"/>
<polygon fill="black" stroke="black" points="2405.45,-151.78 2415.9,-150.07 2406.66,-144.89 2405.45,-151.78"/>
</g>
<!-- 140315481770256* -->
<g id="node7" class="node">
<title>140315481770256*</title>
<ellipse fill="none" stroke="black" cx="2131.09" cy="-127.5" rx="27" ry="18"/>
<text text-anchor="middle" x="2131.09" y="-123.8" font-family="Times,serif" font-size="14.00">*</text>
</g>
<!-- 140315481770256*&#45;&gt;140315481770256 -->
<g id="edge3" class="edge">
<title>140315481770256*&#45;&gt;140315481770256</title>
<path fill="none" stroke="black" d="M2158.13,-127.5C2166.15,-127.5 2175.51,-127.5 2185.44,-127.5"/>
<polygon fill="black" stroke="black" points="2185.54,-131 2195.54,-127.5 2185.54,-124 2185.54,-131"/>
</g>
<!-- 140315481780816 -->
<g id="node8" class="node">
<title>140315481780816</title>
<polygon fill="none" stroke="black" points="422.5,-220.5 422.5,-256.5 608.5,-256.5 608.5,-220.5 422.5,-220.5"/>
<text text-anchor="middle" x="432.5" y="-234.8" font-family="Times,serif" font-size="14.00"> </text>
<polyline fill="none" stroke="black" points="442.5,-220.5 442.5,-256.5 "/>
<text text-anchor="middle" x="482.5" y="-234.8" font-family="Times,serif" font-size="14.00">data 0.0279</text>
<polyline fill="none" stroke="black" points="522.5,-220.5 522.5,-256.5 "/>
<text text-anchor="middle" x="565.5" y="-234.8" font-family="Times,serif" font-size="14.00">grad &#45;0.0143</text>
</g>
<!-- 140315481781536+ -->
<g id="node17" class="node">
<title>140315481781536+</title>
<ellipse fill="none" stroke="black" cx="710" cy="-183.5" rx="27" ry="18"/>
<text text-anchor="middle" x="710" y="-179.8" font-family="Times,serif" font-size="14.00">+</text>
</g>
<!-- 140315481780816&#45;&gt;140315481781536+ -->
<g id="edge26" class="edge">
<title>140315481780816&#45;&gt;140315481781536+</title>
<path fill="none" stroke="black" d="M608.79,-222.06C621.74,-218.98 634.79,-215.47 647,-211.5 657.73,-208.02 669.08,-203.24 679.09,-198.61"/>
<polygon fill="black" stroke="black" points="680.69,-201.72 688.22,-194.27 677.69,-195.4 680.69,-201.72"/>
</g>
<!-- 140315481780816* -->
<g id="node9" class="node">
<title>140315481780816*</title>
<ellipse fill="none" stroke="black" cx="321" cy="-238.5" rx="27" ry="18"/>
<text text-anchor="middle" x="321" y="-234.8" font-family="Times,serif" font-size="14.00">*</text>
</g>
<!-- 140315481780816*&#45;&gt;140315481780816 -->
<g id="edge4" class="edge">
<title>140315481780816*&#45;&gt;140315481780816</title>
<path fill="none" stroke="black" d="M348.36,-238.5C365.3,-238.5 388.51,-238.5 412.2,-238.5"/>
<polygon fill="black" stroke="black" points="412.37,-242 422.37,-238.5 412.37,-235 412.37,-242"/>
</g>
<!-- 140315481772704 -->
<g id="node10" class="node">
<title>140315481772704</title>
<polygon fill="none" stroke="black" points="1853.09,-82.5 1853.09,-118.5 2068.09,-118.5 2068.09,-82.5 1853.09,-82.5"/>
<text text-anchor="middle" x="1875.09" y="-96.8" font-family="Times,serif" font-size="14.00">L1a0</text>
<polyline fill="none" stroke="black" points="1897.09,-82.5 1897.09,-118.5 "/>
<text text-anchor="middle" x="1939.59" y="-96.8" font-family="Times,serif" font-size="14.00">data &#45;0.0147</text>
<polyline fill="none" stroke="black" points="1982.09,-82.5 1982.09,-118.5 "/>
<text text-anchor="middle" x="2025.09" y="-96.8" font-family="Times,serif" font-size="14.00">grad &#45;1.4294</text>
</g>
<!-- 140315481772704&#45;&gt;140315481770256* -->
<g id="edge15" class="edge">
<title>140315481772704&#45;&gt;140315481770256*</title>
<path fill="none" stroke="black" d="M2068.31,-117.6C2077.66,-119.1 2086.62,-120.53 2094.67,-121.82"/>
<polygon fill="black" stroke="black" points="2094.25,-125.3 2104.68,-123.43 2095.36,-118.39 2094.25,-125.3"/>
</g>
<!-- 140315481772704leakyrelu&#45;&gt;140315481772704 -->
<g id="edge5" class="edge">
<title>140315481772704leakyrelu&#45;&gt;140315481772704</title>
<path fill="none" stroke="black" d="M1817.46,-100.5C1825.38,-100.5 1833.98,-100.5 1842.9,-100.5"/>
<polygon fill="black" stroke="black" points="1843.09,-104 1853.09,-100.5 1843.09,-97 1843.09,-104"/>
</g>
<!-- 140315481770880 -->
<g id="node12" class="node">
<title>140315481770880</title>
<polygon fill="none" stroke="red" points="407.5,-165.5 407.5,-201.5 623.5,-201.5 623.5,-165.5 407.5,-165.5"/>
<text text-anchor="middle" x="430" y="-179.8" font-family="Times,serif" font-size="14.00">L1b0</text>
<polyline fill="none" stroke="red" points="452.5,-165.5 452.5,-201.5 "/>
<text text-anchor="middle" x="495" y="-179.8" font-family="Times,serif" font-size="14.00">data &#45;0.5536</text>
<polyline fill="none" stroke="red" points="537.5,-165.5 537.5,-201.5 "/>
<text text-anchor="middle" x="580.5" y="-179.8" font-family="Times,serif" font-size="14.00">grad &#45;0.0143</text>
</g>
<!-- 140315481770880&#45;&gt;140315481781536+ -->
<g id="edge24" class="edge">
<title>140315481770880&#45;&gt;140315481781536+</title>
<path fill="none" stroke="black" d="M623.73,-183.5C641.34,-183.5 658.45,-183.5 672.67,-183.5"/>
<polygon fill="black" stroke="black" points="672.94,-187 682.94,-183.5 672.94,-180 672.94,-187"/>
</g>
<!-- 140315481768960 -->
<g id="node13" class="node">
<title>140315481768960</title>
<polygon fill="none" stroke="red" points="773,-0.5 773,-36.5 1036,-36.5 1036,-0.5 773,-0.5"/>
<text text-anchor="middle" x="819" y="-14.8" font-family="Times,serif" font-size="14.00">L0w2&#45;&gt;L1w0</text>
<polyline fill="none" stroke="red" points="865,-0.5 865,-36.5 "/>
<text text-anchor="middle" x="907.5" y="-14.8" font-family="Times,serif" font-size="14.00">data &#45;0.4499</text>
<polyline fill="none" stroke="red" points="950,-0.5 950,-36.5 "/>
<text text-anchor="middle" x="993" y="-14.8" font-family="Times,serif" font-size="14.00">grad &#45;0.0029</text>
</g>
<!-- 140315481768960&#45;&gt;140315481782448* -->
<g id="edge16" class="edge">
<title>140315481768960&#45;&gt;140315481782448*</title>
<path fill="none" stroke="black" d="M1004.44,-36.56C1015.18,-39.23 1025.88,-42.21 1036,-45.5 1046.73,-48.98 1058.08,-53.76 1068.09,-58.39"/>
<polygon fill="black" stroke="black" points="1066.69,-61.6 1077.22,-62.73 1069.69,-55.28 1066.69,-61.6"/>
</g>
<!-- 140315481783504 -->
<g id="node14" class="node">
<title>140315481783504</title>
<polygon fill="none" stroke="red" points="0,-248.5 0,-284.5 258,-284.5 258,-248.5 0,-248.5"/>
<text text-anchor="middle" x="46" y="-262.8" font-family="Times,serif" font-size="14.00">L0w0&#45;&gt;L1w0</text>
<polyline fill="none" stroke="red" points="92,-248.5 92,-284.5 "/>
<text text-anchor="middle" x="132" y="-262.8" font-family="Times,serif" font-size="14.00">data 0.2789</text>
<polyline fill="none" stroke="red" points="172,-248.5 172,-284.5 "/>
<text text-anchor="middle" x="215" y="-262.8" font-family="Times,serif" font-size="14.00">grad &#45;0.0014</text>
</g>
<!-- 140315481783504&#45;&gt;140315481780816* -->
<g id="edge21" class="edge">
<title>140315481783504&#45;&gt;140315481780816*</title>
<path fill="none" stroke="black" d="M252.21,-248.49C263.85,-246.77 274.89,-245.15 284.56,-243.72"/>
<polygon fill="black" stroke="black" points="285.08,-247.18 294.47,-242.26 284.06,-240.26 285.08,-247.18"/>
</g>
<!-- 140315481769200 -->
<g id="node15" class="node">
<title>140315481769200</title>
<polygon fill="none" stroke="black" points="1865.09,-137.5 1865.09,-173.5 2056.09,-173.5 2056.09,-137.5 1865.09,-137.5"/>
<text text-anchor="middle" x="1875.09" y="-151.8" font-family="Times,serif" font-size="14.00"> </text>
<polyline fill="none" stroke="black" points="1885.09,-137.5 1885.09,-173.5 "/>
<text text-anchor="middle" x="1927.59" y="-151.8" font-family="Times,serif" font-size="14.00">data &#45;1.0000</text>
<polyline fill="none" stroke="black" points="1970.09,-137.5 1970.09,-173.5 "/>
<text text-anchor="middle" x="2013.09" y="-151.8" font-family="Times,serif" font-size="14.00">grad &#45;0.0210</text>
</g>
<!-- 140315481769200&#45;&gt;140315481770256* -->
<g id="edge25" class="edge">
<title>140315481769200&#45;&gt;140315481770256*</title>
<path fill="none" stroke="black" d="M2056.19,-139.78C2069.86,-137.51 2083.16,-135.3 2094.62,-133.39"/>
<polygon fill="black" stroke="black" points="2095.3,-136.83 2104.59,-131.74 2094.15,-129.92 2095.3,-136.83"/>
</g>
<!-- 140315481781536 -->
<g id="node16" class="node">
<title>140315481781536</title>
<polygon fill="none" stroke="black" points="809,-165.5 809,-201.5 1000,-201.5 1000,-165.5 809,-165.5"/>
<text text-anchor="middle" x="819" y="-179.8" font-family="Times,serif" font-size="14.00"> </text>
<polyline fill="none" stroke="black" points="829,-165.5 829,-201.5 "/>
<text text-anchor="middle" x="871.5" y="-179.8" font-family="Times,serif" font-size="14.00">data &#45;0.5257</text>
<polyline fill="none" stroke="black" points="914,-165.5 914,-201.5 "/>
<text text-anchor="middle" x="957" y="-179.8" font-family="Times,serif" font-size="14.00">grad &#45;0.0143</text>
</g>
<!-- 140315481780048+ -->
<g id="node26" class="node">
<title>140315481780048+</title>
<ellipse fill="none" stroke="black" cx="1099" cy="-128.5" rx="27" ry="18"/>
<text text-anchor="middle" x="1099" y="-124.8" font-family="Times,serif" font-size="14.00">+</text>
</g>
<!-- 140315481781536&#45;&gt;140315481780048+ -->
<g id="edge27" class="edge">
<title>140315481781536&#45;&gt;140315481780048+</title>
<path fill="none" stroke="black" d="M1000.24,-166.47C1012.38,-163.54 1024.56,-160.22 1036,-156.5 1046.73,-153.02 1058.08,-148.24 1068.09,-143.61"/>
<polygon fill="black" stroke="black" points="1069.69,-146.72 1077.22,-139.27 1066.69,-140.4 1069.69,-146.72"/>
</g>
<!-- 140315481781536+&#45;&gt;140315481781536 -->
<g id="edge6" class="edge">
<title>140315481781536+&#45;&gt;140315481781536</title>
<path fill="none" stroke="black" d="M737.36,-183.5C753.69,-183.5 775.83,-183.5 798.63,-183.5"/>
<polygon fill="black" stroke="black" points="798.77,-187 808.77,-183.5 798.77,-180 798.77,-187"/>
</g>
<!-- 140315481779568 -->
<g id="node18" class="node">
<title>140315481779568</title>
<polygon fill="none" stroke="black" points="809,-110.5 809,-146.5 1000,-146.5 1000,-110.5 809,-110.5"/>
<text text-anchor="middle" x="819" y="-124.8" font-family="Times,serif" font-size="14.00"> </text>
<polyline fill="none" stroke="black" points="829,-110.5 829,-146.5 "/>
<text text-anchor="middle" x="871.5" y="-124.8" font-family="Times,serif" font-size="14.00">data &#45;0.8550</text>
<polyline fill="none" stroke="black" points="914,-110.5 914,-146.5 "/>
<text text-anchor="middle" x="957" y="-124.8" font-family="Times,serif" font-size="14.00">grad &#45;0.0143</text>
</g>
<!-- 140315481779568&#45;&gt;140315481780048+ -->
<g id="edge22" class="edge">
<title>140315481779568&#45;&gt;140315481780048+</title>
<path fill="none" stroke="black" d="M1000.06,-128.5C1021.95,-128.5 1043.95,-128.5 1061.55,-128.5"/>
<polygon fill="black" stroke="black" points="1061.89,-132 1071.89,-128.5 1061.89,-125 1061.89,-132"/>
</g>
<!-- 140315481779568* -->
<g id="node19" class="node">
<title>140315481779568*</title>
<ellipse fill="none" stroke="black" cx="710" cy="-128.5" rx="27" ry="18"/>
<text text-anchor="middle" x="710" y="-124.8" font-family="Times,serif" font-size="14.00">*</text>
</g>
<!-- 140315481779568*&#45;&gt;140315481779568 -->
<g id="edge7" class="edge">
<title>140315481779568*&#45;&gt;140315481779568</title>
<path fill="none" stroke="black" d="M737.36,-128.5C753.69,-128.5 775.83,-128.5 798.63,-128.5"/>
<polygon fill="black" stroke="black" points="798.77,-132 808.77,-128.5 798.77,-125 798.77,-132"/>
</g>
<!-- 140315481773424 -->
<g id="node20" class="node">
<title>140315481773424</title>
<polygon fill="none" stroke="black" points="2505.09,-136.5 2505.09,-172.5 2687.09,-172.5 2687.09,-136.5 2505.09,-136.5"/>
<text text-anchor="middle" x="2515.09" y="-150.8" font-family="Times,serif" font-size="14.00"> </text>
<polyline fill="none" stroke="black" points="2525.09,-136.5 2525.09,-172.5 "/>
<text text-anchor="middle" x="2565.09" y="-150.8" font-family="Times,serif" font-size="14.00">data 0.7147</text>
<polyline fill="none" stroke="black" points="2605.09,-136.5 2605.09,-172.5 "/>
<text text-anchor="middle" x="2646.09" y="-150.8" font-family="Times,serif" font-size="14.00">grad 1.4294</text>
</g>
<!-- 140315481784272**2 -->
<g id="node28" class="node">
<title>140315481784272**2</title>
<ellipse fill="none" stroke="black" cx="2750.09" cy="-154.5" rx="27" ry="18"/>
<text text-anchor="middle" x="2750.09" y="-150.8" font-family="Times,serif" font-size="14.00">**2</text>
</g>
<!-- 140315481773424&#45;&gt;140315481784272**2 -->
<g id="edge18" class="edge">
<title>140315481773424&#45;&gt;140315481784272**2</title>
<path fill="none" stroke="black" d="M2687.27,-154.5C2696.23,-154.5 2704.93,-154.5 2712.82,-154.5"/>
<polygon fill="black" stroke="black" points="2713.05,-158 2723.05,-154.5 2713.05,-151 2713.05,-158"/>
</g>
<!-- 140315481773424+&#45;&gt;140315481773424 -->
<g id="edge8" class="edge">
<title>140315481773424+&#45;&gt;140315481773424</title>
<path fill="none" stroke="black" d="M2469.22,-154.5C2476.76,-154.5 2485.48,-154.5 2494.73,-154.5"/>
<polygon fill="black" stroke="black" points="2494.96,-158 2504.96,-154.5 2494.96,-151 2494.96,-158"/>
</g>
<!-- 140315481781824 -->
<g id="node22" class="node">
<title>140315481781824</title>
<polygon fill="none" stroke="black" points="419.5,-110.5 419.5,-146.5 611.5,-146.5 611.5,-110.5 419.5,-110.5"/>
<text text-anchor="middle" x="434.5" y="-124.8" font-family="Times,serif" font-size="14.00">x1</text>
<polyline fill="none" stroke="black" points="449.5,-110.5 449.5,-146.5 "/>
<text text-anchor="middle" x="489.5" y="-124.8" font-family="Times,serif" font-size="14.00">data 0.9000</text>
<polyline fill="none" stroke="black" points="529.5,-110.5 529.5,-146.5 "/>
<text text-anchor="middle" x="570.5" y="-124.8" font-family="Times,serif" font-size="14.00">grad 0.0136</text>
</g>
<!-- 140315481781824&#45;&gt;140315481779568* -->
<g id="edge28" class="edge">
<title>140315481781824&#45;&gt;140315481779568*</title>
<path fill="none" stroke="black" d="M611.62,-128.5C633.27,-128.5 655,-128.5 672.42,-128.5"/>
<polygon fill="black" stroke="black" points="672.67,-132 682.67,-128.5 672.67,-125 672.67,-132"/>
</g>
<!-- 140315481773856 -->
<g id="node23" class="node">
<title>140315481773856</title>
<polygon fill="none" stroke="black" points="31,-193.5 31,-229.5 227,-229.5 227,-193.5 31,-193.5"/>
<text text-anchor="middle" x="46" y="-207.8" font-family="Times,serif" font-size="14.00">x0</text>
<polyline fill="none" stroke="black" points="61,-193.5 61,-229.5 "/>
<text text-anchor="middle" x="101" y="-207.8" font-family="Times,serif" font-size="14.00">data 0.1000</text>
<polyline fill="none" stroke="black" points="141,-193.5 141,-229.5 "/>
<text text-anchor="middle" x="184" y="-207.8" font-family="Times,serif" font-size="14.00">grad &#45;0.0040</text>
</g>
<!-- 140315481773856&#45;&gt;140315481780816* -->
<g id="edge20" class="edge">
<title>140315481773856&#45;&gt;140315481780816*</title>
<path fill="none" stroke="black" d="M227.23,-225.32C247.6,-228.21 267.83,-231.09 284.18,-233.41"/>
<polygon fill="black" stroke="black" points="283.93,-236.91 294.33,-234.85 284.92,-229.98 283.93,-236.91"/>
</g>
<!-- 140315481769776 -->
<g id="node24" class="node">
<title>140315481769776</title>
<polygon fill="none" stroke="black" points="2194.09,-164.5 2194.09,-200.5 2379.09,-200.5 2379.09,-164.5 2194.09,-164.5"/>
<text text-anchor="middle" x="2205.59" y="-178.8" font-family="Times,serif" font-size="14.00">y</text>
<polyline fill="none" stroke="black" points="2217.09,-164.5 2217.09,-200.5 "/>
<text text-anchor="middle" x="2257.09" y="-178.8" font-family="Times,serif" font-size="14.00">data 0.7000</text>
<polyline fill="none" stroke="black" points="2297.09,-164.5 2297.09,-200.5 "/>
<text text-anchor="middle" x="2338.09" y="-178.8" font-family="Times,serif" font-size="14.00">grad 1.4294</text>
</g>
<!-- 140315481769776&#45;&gt;140315481773424+ -->
<g id="edge23" class="edge">
<title>140315481769776&#45;&gt;140315481773424+</title>
<path fill="none" stroke="black" d="M2379.1,-165.81C2388.58,-164.08 2397.75,-162.41 2406,-160.9"/>
<polygon fill="black" stroke="black" points="2406.7,-164.33 2415.9,-159.09 2405.44,-157.45 2406.7,-164.33"/>
</g>
<!-- 140315481780048 -->
<g id="node25" class="node">
<title>140315481780048</title>
<polygon fill="none" stroke="black" points="1162,-110.5 1162,-146.5 1353,-146.5 1353,-110.5 1162,-110.5"/>
<text text-anchor="middle" x="1172" y="-124.8" font-family="Times,serif" font-size="14.00"> </text>
<polyline fill="none" stroke="black" points="1182,-110.5 1182,-146.5 "/>
<text text-anchor="middle" x="1224.5" y="-124.8" font-family="Times,serif" font-size="14.00">data &#45;1.3807</text>
<polyline fill="none" stroke="black" points="1267,-110.5 1267,-146.5 "/>
<text text-anchor="middle" x="1310" y="-124.8" font-family="Times,serif" font-size="14.00">grad &#45;0.0143</text>
</g>
<!-- 140315481780048&#45;&gt;140315481770208+ -->
<g id="edge11" class="edge">
<title>140315481780048&#45;&gt;140315481770208+</title>
<path fill="none" stroke="black" d="M1353.15,-111.57C1362.46,-109.9 1371.44,-108.29 1379.54,-106.84"/>
<polygon fill="black" stroke="black" points="1380.41,-110.24 1389.64,-105.04 1379.18,-103.35 1380.41,-110.24"/>
</g>
<!-- 140315481780048+&#45;&gt;140315481780048 -->
<g id="edge9" class="edge">
<title>140315481780048+&#45;&gt;140315481780048</title>
<path fill="none" stroke="black" d="M1126.19,-128.5C1133.67,-128.5 1142.31,-128.5 1151.51,-128.5"/>
<polygon fill="black" stroke="black" points="1151.68,-132 1161.68,-128.5 1151.68,-125 1151.68,-132"/>
</g>
<!-- 140315481784272 -->
<g id="node27" class="node">
<title>140315481784272</title>
<polygon fill="none" stroke="black" points="2813.09,-136.5 2813.09,-172.5 3045.09,-172.5 3045.09,-136.5 2813.09,-136.5"/>
<text text-anchor="middle" x="2848.09" y="-150.8" font-family="Times,serif" font-size="14.00">MSE loss</text>
<polyline fill="none" stroke="black" points="2883.09,-136.5 2883.09,-172.5 "/>
<text text-anchor="middle" x="2923.09" y="-150.8" font-family="Times,serif" font-size="14.00">data 0.5108</text>
<polyline fill="none" stroke="black" points="2963.09,-136.5 2963.09,-172.5 "/>
<text text-anchor="middle" x="3004.09" y="-150.8" font-family="Times,serif" font-size="14.00">grad 1.0000</text>
</g>
<!-- 140315481784272**2&#45;&gt;140315481784272 -->
<g id="edge10" class="edge">
<title>140315481784272**2&#45;&gt;140315481784272</title>
<path fill="none" stroke="black" d="M2777.21,-154.5C2784.62,-154.5 2793.23,-154.5 2802.49,-154.5"/>
<polygon fill="black" stroke="black" points="2802.78,-158 2812.78,-154.5 2802.78,-151 2802.78,-158"/>
</g>
<!-- 140315481769968 -->
<g id="node29" class="node">
<title>140315481769968</title>
<polygon fill="none" stroke="red" points="384,-55.5 384,-91.5 647,-91.5 647,-55.5 384,-55.5"/>
<text text-anchor="middle" x="430" y="-69.8" font-family="Times,serif" font-size="14.00">L0w1&#45;&gt;L1w0</text>
<polyline fill="none" stroke="red" points="476,-55.5 476,-91.5 "/>
<text text-anchor="middle" x="518.5" y="-69.8" font-family="Times,serif" font-size="14.00">data &#45;0.9500</text>
<polyline fill="none" stroke="red" points="561,-55.5 561,-91.5 "/>
<text text-anchor="middle" x="604" y="-69.8" font-family="Times,serif" font-size="14.00">grad &#45;0.0129</text>
</g>
<!-- 140315481769968&#45;&gt;140315481779568* -->
<g id="edge12" class="edge">
<title>140315481769968&#45;&gt;140315481779568*</title>
<path fill="none" stroke="black" d="M615.44,-91.56C626.18,-94.23 636.88,-97.21 647,-100.5 657.73,-103.98 669.08,-108.76 679.09,-113.39"/>
<polygon fill="black" stroke="black" points="677.69,-116.6 688.22,-117.73 680.69,-110.28 677.69,-116.6"/>
</g>
</g>
</svg>
