<?xml version="1.0" encoding="UTF-8" standalone="no"?>
<!DOCTYPE svg PUBLIC "-//W3C//DTD SVG 1.1//EN"
 "http://www.w3.org/Graphics/SVG/1.1/DTD/svg11.dtd">
<!-- Generated by graphviz version 2.50.0 (0)
 -->
<!-- Pages: 1 -->
<svg width="3029pt" height="293pt"
 viewBox="0.00 0.00 3029.09 293.00" xmlns="http://www.w3.org/2000/svg" xmlns:xlink="http://www.w3.org/1999/xlink">
<g id="graph0" class="graph" transform="scale(1 1) rotate(0) translate(4 289)">
<polygon fill="white" stroke="transparent" points="-4,4 -4,-289 3025.09,-289 3025.09,4 -4,4"/>
<!-- 140315481782448 -->
<g id="node1" class="node">
<title>140315481782448</title>
<polygon fill="none" stroke="grey" points="1150,-55.5 1150,-91.5 1337,-91.5 1337,-55.5 1150,-55.5"/>
<text text-anchor="middle" x="1160" y="-69.8" font-family="Times,serif" font-size="14.00" fill="grey"> </text>
<polyline fill="none" stroke="grey" points="1170,-55.5 1170,-91.5 "/>
<text text-anchor="middle" x="1212.5" y="-69.8" font-family="Times,serif" font-size="14.00" fill="grey">data &#45;0.0900</text>
<polyline fill="none" stroke="grey" points="1255,-55.5 1255,-91.5 "/>
<text text-anchor="middle" x="1296" y="-69.8" font-family="Times,serif" font-size="14.00" fill="grey">grad 0.0000</text>
</g>
<!-- 140315481770208+ -->
<g id="node5" class="node">
<title>140315481770208+</title>
<ellipse fill="none" stroke="black" cx="1400" cy="-100.5" rx="27" ry="18"/>
<text text-anchor="middle" x="1400" y="-96.8" font-family="Times,serif" font-size="14.00">+</text>
</g>
<!-- 140315481782448&#45;&gt;140315481770208+ -->
<g id="edge13" class="edge">
<title>140315481782448&#45;&gt;140315481770208+</title>
<path fill="none" stroke="black" d="M1337.05,-89.67C1346.34,-91.3 1355.33,-92.87 1363.44,-94.29"/>
<polygon fill="black" stroke="black" points="1363.1,-97.78 1373.55,-96.05 1364.3,-90.88 1363.1,-97.78"/>
</g>
<!-- 140315481782448* -->
<g id="node2" class="node">
<title>140315481782448*</title>
<ellipse fill="none" stroke="black" cx="1087" cy="-73.5" rx="27" ry="18"/>
<text text-anchor="middle" x="1087" y="-69.8" font-family="Times,serif" font-size="14.00">*</text>
</g>
<!-- 140315481782448*&#45;&gt;140315481782448 -->
<g id="edge1" class="edge">
<title>140315481782448*&#45;&gt;140315481782448</title>
<path fill="none" stroke="black" d="M1114.21,-73.5C1121.73,-73.5 1130.43,-73.5 1139.67,-73.5"/>
<polygon fill="black" stroke="black" points="1139.89,-77 1149.89,-73.5 1139.89,-70 1139.89,-77"/>
</g>
<!-- 140315481776304 -->
<g id="node3" class="node">
<title>140315481776304</title>
<polygon fill="none" stroke="grey" points="798.5,-55.5 798.5,-91.5 990.5,-91.5 990.5,-55.5 798.5,-55.5"/>
<text text-anchor="middle" x="813.5" y="-69.8" font-family="Times,serif" font-size="14.00" fill="grey">x2</text>
<polyline fill="none" stroke="grey" points="828.5,-55.5 828.5,-91.5 "/>
<text text-anchor="middle" x="868.5" y="-69.8" font-family="Times,serif" font-size="14.00" fill="grey">data 0.2000</text>
<polyline fill="none" stroke="grey" points="908.5,-55.5 908.5,-91.5 "/>
<text text-anchor="middle" x="949.5" y="-69.8" font-family="Times,serif" font-size="14.00" fill="grey">grad 0.0000</text>
</g>
<!-- 140315481776304&#45;&gt;140315481782448* -->
<g id="edge17" class="edge">
<title>140315481776304&#45;&gt;140315481782448*</title>
<path fill="none" stroke="black" d="M990.75,-73.5C1011.66,-73.5 1032.56,-73.5 1049.44,-73.5"/>
<polygon fill="black" stroke="black" points="1049.91,-77 1059.91,-73.5 1049.91,-70 1049.91,-77"/>
</g>
<!-- 140315481770208 -->
<g id="node4" class="node">
<title>140315481770208</title>
<polygon fill="none" stroke="grey" points="1463,-82.5 1463,-118.5 1674,-118.5 1674,-82.5 1463,-82.5"/>
<text text-anchor="middle" x="1485" y="-96.8" font-family="Times,serif" font-size="14.00" fill="grey">L1z0</text>
<polyline fill="none" stroke="grey" points="1507,-82.5 1507,-118.5 "/>
<text text-anchor="middle" x="1549.5" y="-96.8" font-family="Times,serif" font-size="14.00" fill="grey">data &#45;1.4707</text>
<polyline fill="none" stroke="grey" points="1592,-82.5 1592,-118.5 "/>
<text text-anchor="middle" x="1633" y="-96.8" font-family="Times,serif" font-size="14.00" fill="grey">grad 0.0000</text>
</g>
<!-- 140315481772704leakyrelu -->
<g id="node11" class="node">
<title>140315481772704leakyrelu</title>
<ellipse fill="none" stroke="black" cx="1753.55" cy="-100.5" rx="43.59" ry="18"/>
<text text-anchor="middle" x="1753.55" y="-96.8" font-family="Times,serif" font-size="14.00">leakyrelu</text>
</g>
<!-- 140315481770208&#45;&gt;140315481772704leakyrelu -->
<g id="edge19" class="edge">
<title>140315481770208&#45;&gt;140315481772704leakyrelu</title>
<path fill="none" stroke="black" d="M1674.12,-100.5C1682.81,-100.5 1691.33,-100.5 1699.38,-100.5"/>
<polygon fill="black" stroke="black" points="1699.65,-104 1709.65,-100.5 1699.65,-97 1699.65,-104"/>
</g>
<!-- 140315481770208+&#45;&gt;140315481770208 -->
<g id="edge2" class="edge">
<title>140315481770208+&#45;&gt;140315481770208</title>
<path fill="none" stroke="black" d="M1427.02,-100.5C1434.62,-100.5 1443.46,-100.5 1452.93,-100.5"/>
<polygon fill="black" stroke="black" points="1453,-104 1463,-100.5 1453,-97 1453,-104"/>
</g>
<!-- 140315481770256 -->
<g id="node6" class="node">
<title>140315481770256</title>
<polygon fill="none" stroke="grey" points="2171.59,-109.5 2171.59,-145.5 2353.59,-145.5 2353.59,-109.5 2171.59,-109.5"/>
<text text-anchor="middle" x="2181.59" y="-123.8" font-family="Times,serif" font-size="14.00" fill="grey"> </text>
<polyline fill="none" stroke="grey" points="2191.59,-109.5 2191.59,-145.5 "/>
<text text-anchor="middle" x="2231.59" y="-123.8" font-family="Times,serif" font-size="14.00" fill="grey">data 0.0147</text>
<polyline fill="none" stroke="grey" points="2271.59,-109.5 2271.59,-145.5 "/>
<text text-anchor="middle" x="2312.59" y="-123.8" font-family="Times,serif" font-size="14.00" fill="grey">grad 0.0000</text>
</g>
<!-- 140315481773424+ -->
<g id="node21" class="node">
<title>140315481773424+</title>
<ellipse fill="none" stroke="black" cx="2418.09" cy="-154.5" rx="27" ry="18"/>
<text text-anchor="middle" x="2418.09" y="-150.8" font-family="Times,serif" font-size="14.00">+</text>
</g>
<!-- 140315481770256&#45;&gt;140315481773424+ -->
<g id="edge14" class="edge">
<title>140315481770256&#45;&gt;140315481773424+</title>
<path fill="none" stroke="black" d="M2353.77,-143.36C2363.7,-145.11 2373.32,-146.8 2381.94,-148.32"/>
<polygon fill="black" stroke="black" points="2381.45,-151.78 2391.9,-150.07 2382.66,-144.89 2381.45,-151.78"/>
</g>
<!-- 140315481770256* -->
<g id="node7" class="node">
<title>140315481770256*</title>
<ellipse fill="none" stroke="black" cx="2107.09" cy="-127.5" rx="27" ry="18"/>
<text text-anchor="middle" x="2107.09" y="-123.8" font-family="Times,serif" font-size="14.00">*</text>
</g>
<!-- 140315481770256*&#45;&gt;140315481770256 -->
<g id="edge3" class="edge">
<title>140315481770256*&#45;&gt;140315481770256</title>
<path fill="none" stroke="black" d="M2134.13,-127.5C2142.15,-127.5 2151.51,-127.5 2161.44,-127.5"/>
<polygon fill="black" stroke="black" points="2161.54,-131 2171.54,-127.5 2161.54,-124 2161.54,-131"/>
</g>
<!-- 140315481780816 -->
<g id="node8" class="node">
<title>140315481780816</title>
<polygon fill="none" stroke="grey" points="418.5,-220.5 418.5,-256.5 600.5,-256.5 600.5,-220.5 418.5,-220.5"/>
<text text-anchor="middle" x="428.5" y="-234.8" font-family="Times,serif" font-size="14.00" fill="grey"> </text>
<polyline fill="none" stroke="grey" points="438.5,-220.5 438.5,-256.5 "/>
<text text-anchor="middle" x="478.5" y="-234.8" font-family="Times,serif" font-size="14.00" fill="grey">data 0.0279</text>
<polyline fill="none" stroke="grey" points="518.5,-220.5 518.5,-256.5 "/>
<text text-anchor="middle" x="559.5" y="-234.8" font-family="Times,serif" font-size="14.00" fill="grey">grad 0.0000</text>
</g>
<!-- 140315481781536+ -->
<g id="node17" class="node">
<title>140315481781536+</title>
<ellipse fill="none" stroke="black" cx="702" cy="-183.5" rx="27" ry="18"/>
<text text-anchor="middle" x="702" y="-179.8" font-family="Times,serif" font-size="14.00">+</text>
</g>
<!-- 140315481780816&#45;&gt;140315481781536+ -->
<g id="edge26" class="edge">
<title>140315481780816&#45;&gt;140315481781536+</title>
<path fill="none" stroke="black" d="M600.68,-222.15C613.66,-219.05 626.76,-215.5 639,-211.5 649.72,-208 661.07,-203.21 671.09,-198.59"/>
<polygon fill="black" stroke="black" points="672.69,-201.71 680.22,-194.25 669.68,-195.38 672.69,-201.71"/>
</g>
<!-- 140315481780816* -->
<g id="node9" class="node">
<title>140315481780816*</title>
<ellipse fill="none" stroke="black" cx="317" cy="-238.5" rx="27" ry="18"/>
<text text-anchor="middle" x="317" y="-234.8" font-family="Times,serif" font-size="14.00">*</text>
</g>
<!-- 140315481780816*&#45;&gt;140315481780816 -->
<g id="edge4" class="edge">
<title>140315481780816*&#45;&gt;140315481780816</title>
<path fill="none" stroke="black" d="M344.09,-238.5C361.03,-238.5 384.3,-238.5 408.01,-238.5"/>
<polygon fill="black" stroke="black" points="408.18,-242 418.18,-238.5 408.18,-235 408.18,-242"/>
</g>
<!-- 140315481772704 -->
<g id="node10" class="node">
<title>140315481772704</title>
<polygon fill="none" stroke="grey" points="1833.09,-82.5 1833.09,-118.5 2044.09,-118.5 2044.09,-82.5 1833.09,-82.5"/>
<text text-anchor="middle" x="1855.09" y="-96.8" font-family="Times,serif" font-size="14.00" fill="grey">L1a0</text>
<polyline fill="none" stroke="grey" points="1877.09,-82.5 1877.09,-118.5 "/>
<text text-anchor="middle" x="1919.59" y="-96.8" font-family="Times,serif" font-size="14.00" fill="grey">data &#45;0.0147</text>
<polyline fill="none" stroke="grey" points="1962.09,-82.5 1962.09,-118.5 "/>
<text text-anchor="middle" x="2003.09" y="-96.8" font-family="Times,serif" font-size="14.00" fill="grey">grad 0.0000</text>
</g>
<!-- 140315481772704&#45;&gt;140315481770256* -->
<g id="edge15" class="edge">
<title>140315481772704&#45;&gt;140315481770256*</title>
<path fill="none" stroke="black" d="M2044.09,-117.45C2053.45,-118.96 2062.43,-120.42 2070.5,-121.73"/>
<polygon fill="black" stroke="black" points="2070.12,-125.21 2080.55,-123.36 2071.24,-118.3 2070.12,-125.21"/>
</g>
<!-- 140315481772704leakyrelu&#45;&gt;140315481772704 -->
<g id="edge5" class="edge">
<title>140315481772704leakyrelu&#45;&gt;140315481772704</title>
<path fill="none" stroke="black" d="M1797.46,-100.5C1805.37,-100.5 1813.96,-100.5 1822.86,-100.5"/>
<polygon fill="black" stroke="black" points="1823.03,-104 1833.03,-100.5 1823.03,-97 1823.03,-104"/>
</g>
<!-- 140315481770880 -->
<g id="node12" class="node">
<title>140315481770880</title>
<polygon fill="none" stroke="red" points="403.5,-165.5 403.5,-201.5 615.5,-201.5 615.5,-165.5 403.5,-165.5"/>
<text text-anchor="middle" x="426" y="-179.8" font-family="Times,serif" font-size="14.00">L1b0</text>
<polyline fill="none" stroke="red" points="448.5,-165.5 448.5,-201.5 "/>
<text text-anchor="middle" x="491" y="-179.8" font-family="Times,serif" font-size="14.00">data &#45;0.5536</text>
<polyline fill="none" stroke="red" points="533.5,-165.5 533.5,-201.5 "/>
<text text-anchor="middle" x="574.5" y="-179.8" font-family="Times,serif" font-size="14.00">grad 0.0000</text>
</g>
<!-- 140315481770880&#45;&gt;140315481781536+ -->
<g id="edge24" class="edge">
<title>140315481770880&#45;&gt;140315481781536+</title>
<path fill="none" stroke="black" d="M615.5,-183.5C633.1,-183.5 650.24,-183.5 664.51,-183.5"/>
<polygon fill="black" stroke="black" points="664.81,-187 674.81,-183.5 664.81,-180 664.81,-187"/>
</g>
<!-- 140315481768960 -->
<g id="node13" class="node">
<title>140315481768960</title>
<polygon fill="none" stroke="red" points="765,-0.5 765,-36.5 1024,-36.5 1024,-0.5 765,-0.5"/>
<text text-anchor="middle" x="811" y="-14.8" font-family="Times,serif" font-size="14.00">L0w2&#45;&gt;L1w0</text>
<polyline fill="none" stroke="red" points="857,-0.5 857,-36.5 "/>
<text text-anchor="middle" x="899.5" y="-14.8" font-family="Times,serif" font-size="14.00">data &#45;0.4499</text>
<polyline fill="none" stroke="red" points="942,-0.5 942,-36.5 "/>
<text text-anchor="middle" x="983" y="-14.8" font-family="Times,serif" font-size="14.00">grad 0.0000</text>
</g>
<!-- 140315481768960&#45;&gt;140315481782448* -->
<g id="edge16" class="edge">
<title>140315481768960&#45;&gt;140315481782448*</title>
<path fill="none" stroke="black" d="M992.58,-36.54C1003.27,-39.22 1013.92,-42.21 1024,-45.5 1034.72,-49 1046.07,-53.79 1056.09,-58.41"/>
<polygon fill="black" stroke="black" points="1054.68,-61.62 1065.22,-62.75 1057.69,-55.29 1054.68,-61.62"/>
</g>
<!-- 140315481783504 -->
<g id="node14" class="node">
<title>140315481783504</title>
<polygon fill="none" stroke="red" points="0,-248.5 0,-284.5 254,-284.5 254,-248.5 0,-248.5"/>
<text text-anchor="middle" x="46" y="-262.8" font-family="Times,serif" font-size="14.00">L0w0&#45;&gt;L1w0</text>
<polyline fill="none" stroke="red" points="92,-248.5 92,-284.5 "/>
<text text-anchor="middle" x="132" y="-262.8" font-family="Times,serif" font-size="14.00">data 0.2789</text>
<polyline fill="none" stroke="red" points="172,-248.5 172,-284.5 "/>
<text text-anchor="middle" x="213" y="-262.8" font-family="Times,serif" font-size="14.00">grad 0.0000</text>
</g>
<!-- 140315481783504&#45;&gt;140315481780816* -->
<g id="edge21" class="edge">
<title>140315481783504&#45;&gt;140315481780816*</title>
<path fill="none" stroke="black" d="M248.92,-248.49C260.21,-246.81 270.94,-245.21 280.37,-243.81"/>
<polygon fill="black" stroke="black" points="281.04,-247.24 290.42,-242.31 280.01,-240.32 281.04,-247.24"/>
</g>
<!-- 140315481769200 -->
<g id="node15" class="node">
<title>140315481769200</title>
<polygon fill="none" stroke="grey" points="1845.09,-137.5 1845.09,-173.5 2032.09,-173.5 2032.09,-137.5 1845.09,-137.5"/>
<text text-anchor="middle" x="1855.09" y="-151.8" font-family="Times,serif" font-size="14.00" fill="grey"> </text>
<polyline fill="none" stroke="grey" points="1865.09,-137.5 1865.09,-173.5 "/>
<text text-anchor="middle" x="1907.59" y="-151.8" font-family="Times,serif" font-size="14.00" fill="grey">data &#45;1.0000</text>
<polyline fill="none" stroke="grey" points="1950.09,-137.5 1950.09,-173.5 "/>
<text text-anchor="middle" x="1991.09" y="-151.8" font-family="Times,serif" font-size="14.00" fill="grey">grad 0.0000</text>
</g>
<!-- 140315481769200&#45;&gt;140315481770256* -->
<g id="edge25" class="edge">
<title>140315481769200&#45;&gt;140315481770256*</title>
<path fill="none" stroke="black" d="M2032.09,-139.94C2045.85,-137.63 2059.26,-135.38 2070.8,-133.43"/>
<polygon fill="black" stroke="black" points="2071.56,-136.86 2080.84,-131.75 2070.4,-129.95 2071.56,-136.86"/>
</g>
<!-- 140315481781536 -->
<g id="node16" class="node">
<title>140315481781536</title>
<polygon fill="none" stroke="grey" points="801,-165.5 801,-201.5 988,-201.5 988,-165.5 801,-165.5"/>
<text text-anchor="middle" x="811" y="-179.8" font-family="Times,serif" font-size="14.00" fill="grey"> </text>
<polyline fill="none" stroke="grey" points="821,-165.5 821,-201.5 "/>
<text text-anchor="middle" x="863.5" y="-179.8" font-family="Times,serif" font-size="14.00" fill="grey">data &#45;0.5257</text>
<polyline fill="none" stroke="grey" points="906,-165.5 906,-201.5 "/>
<text text-anchor="middle" x="947" y="-179.8" font-family="Times,serif" font-size="14.00" fill="grey">grad 0.0000</text>
</g>
<!-- 140315481780048+ -->
<g id="node26" class="node">
<title>140315481780048+</title>
<ellipse fill="none" stroke="black" cx="1087" cy="-128.5" rx="27" ry="18"/>
<text text-anchor="middle" x="1087" y="-124.8" font-family="Times,serif" font-size="14.00">+</text>
</g>
<!-- 140315481781536&#45;&gt;140315481780048+ -->
<g id="edge27" class="edge">
<title>140315481781536&#45;&gt;140315481780048+</title>
<path fill="none" stroke="black" d="M988.09,-166.57C1000.28,-163.61 1012.51,-160.25 1024,-156.5 1034.72,-153 1046.07,-148.21 1056.09,-143.59"/>
<polygon fill="black" stroke="black" points="1057.69,-146.71 1065.22,-139.25 1054.68,-140.38 1057.69,-146.71"/>
</g>
<!-- 140315481781536+&#45;&gt;140315481781536 -->
<g id="edge6" class="edge">
<title>140315481781536+&#45;&gt;140315481781536</title>
<path fill="none" stroke="black" d="M729.09,-183.5C745.42,-183.5 767.64,-183.5 790.46,-183.5"/>
<polygon fill="black" stroke="black" points="790.61,-187 800.61,-183.5 790.61,-180 790.61,-187"/>
</g>
<!-- 140315481779568 -->
<g id="node18" class="node">
<title>140315481779568</title>
<polygon fill="none" stroke="grey" points="801,-110.5 801,-146.5 988,-146.5 988,-110.5 801,-110.5"/>
<text text-anchor="middle" x="811" y="-124.8" font-family="Times,serif" font-size="14.00" fill="grey"> </text>
<polyline fill="none" stroke="grey" points="821,-110.5 821,-146.5 "/>
<text text-anchor="middle" x="863.5" y="-124.8" font-family="Times,serif" font-size="14.00" fill="grey">data &#45;0.8550</text>
<polyline fill="none" stroke="grey" points="906,-110.5 906,-146.5 "/>
<text text-anchor="middle" x="947" y="-124.8" font-family="Times,serif" font-size="14.00" fill="grey">grad 0.0000</text>
</g>
<!-- 140315481779568&#45;&gt;140315481780048+ -->
<g id="edge22" class="edge">
<title>140315481779568&#45;&gt;140315481780048+</title>
<path fill="none" stroke="black" d="M988.24,-128.5C1010.02,-128.5 1031.98,-128.5 1049.55,-128.5"/>
<polygon fill="black" stroke="black" points="1049.89,-132 1059.89,-128.5 1049.89,-125 1049.89,-132"/>
</g>
<!-- 140315481779568* -->
<g id="node19" class="node">
<title>140315481779568*</title>
<ellipse fill="none" stroke="black" cx="702" cy="-128.5" rx="27" ry="18"/>
<text text-anchor="middle" x="702" y="-124.8" font-family="Times,serif" font-size="14.00">*</text>
</g>
<!-- 140315481779568*&#45;&gt;140315481779568 -->
<g id="edge7" class="edge">
<title>140315481779568*&#45;&gt;140315481779568</title>
<path fill="none" stroke="black" d="M729.09,-128.5C745.42,-128.5 767.64,-128.5 790.46,-128.5"/>
<polygon fill="black" stroke="black" points="790.61,-132 800.61,-128.5 790.61,-125 790.61,-132"/>
</g>
<!-- 140315481773424 -->
<g id="node20" class="node">
<title>140315481773424</title>
<polygon fill="none" stroke="grey" points="2481.09,-136.5 2481.09,-172.5 2663.09,-172.5 2663.09,-136.5 2481.09,-136.5"/>
<text text-anchor="middle" x="2491.09" y="-150.8" font-family="Times,serif" font-size="14.00" fill="grey"> </text>
<polyline fill="none" stroke="grey" points="2501.09,-136.5 2501.09,-172.5 "/>
<text text-anchor="middle" x="2541.09" y="-150.8" font-family="Times,serif" font-size="14.00" fill="grey">data 0.7147</text>
<polyline fill="none" stroke="grey" points="2581.09,-136.5 2581.09,-172.5 "/>
<text text-anchor="middle" x="2622.09" y="-150.8" font-family="Times,serif" font-size="14.00" fill="grey">grad 0.0000</text>
</g>
<!-- 140315481784272**2 -->
<g id="node28" class="node">
<title>140315481784272**2</title>
<ellipse fill="none" stroke="black" cx="2726.09" cy="-154.5" rx="27" ry="18"/>
<text text-anchor="middle" x="2726.09" y="-150.8" font-family="Times,serif" font-size="14.00">**2</text>
</g>
<!-- 140315481773424&#45;&gt;140315481784272**2 -->
<g id="edge18" class="edge">
<title>140315481773424&#45;&gt;140315481784272**2</title>
<path fill="none" stroke="black" d="M2663.27,-154.5C2672.23,-154.5 2680.93,-154.5 2688.82,-154.5"/>
<polygon fill="black" stroke="black" points="2689.05,-158 2699.05,-154.5 2689.05,-151 2689.05,-158"/>
</g>
<!-- 140315481773424+&#45;&gt;140315481773424 -->
<g id="edge8" class="edge">
<title>140315481773424+&#45;&gt;140315481773424</title>
<path fill="none" stroke="black" d="M2445.22,-154.5C2452.76,-154.5 2461.48,-154.5 2470.73,-154.5"/>
<polygon fill="black" stroke="black" points="2470.96,-158 2480.96,-154.5 2470.96,-151 2470.96,-158"/>
</g>
<!-- 140315481781824 -->
<g id="node22" class="node">
<title>140315481781824</title>
<polygon fill="none" stroke="grey" points="413.5,-110.5 413.5,-146.5 605.5,-146.5 605.5,-110.5 413.5,-110.5"/>
<text text-anchor="middle" x="428.5" y="-124.8" font-family="Times,serif" font-size="14.00" fill="grey">x1</text>
<polyline fill="none" stroke="grey" points="443.5,-110.5 443.5,-146.5 "/>
<text text-anchor="middle" x="483.5" y="-124.8" font-family="Times,serif" font-size="14.00" fill="grey">data 0.9000</text>
<polyline fill="none" stroke="grey" points="523.5,-110.5 523.5,-146.5 "/>
<text text-anchor="middle" x="564.5" y="-124.8" font-family="Times,serif" font-size="14.00" fill="grey">grad 0.0000</text>
</g>
<!-- 140315481781824&#45;&gt;140315481779568* -->
<g id="edge28" class="edge">
<title>140315481781824&#45;&gt;140315481779568*</title>
<path fill="none" stroke="black" d="M605.75,-128.5C626.66,-128.5 647.56,-128.5 664.44,-128.5"/>
<polygon fill="black" stroke="black" points="664.91,-132 674.91,-128.5 664.91,-125 664.91,-132"/>
</g>
<!-- 140315481773856 -->
<g id="node23" class="node">
<title>140315481773856</title>
<polygon fill="none" stroke="grey" points="31,-193.5 31,-229.5 223,-229.5 223,-193.5 31,-193.5"/>
<text text-anchor="middle" x="46" y="-207.8" font-family="Times,serif" font-size="14.00" fill="grey">x0</text>
<polyline fill="none" stroke="grey" points="61,-193.5 61,-229.5 "/>
<text text-anchor="middle" x="101" y="-207.8" font-family="Times,serif" font-size="14.00" fill="grey">data 0.1000</text>
<polyline fill="none" stroke="grey" points="141,-193.5 141,-229.5 "/>
<text text-anchor="middle" x="182" y="-207.8" font-family="Times,serif" font-size="14.00" fill="grey">grad 0.0000</text>
</g>
<!-- 140315481773856&#45;&gt;140315481780816* -->
<g id="edge20" class="edge">
<title>140315481773856&#45;&gt;140315481780816*</title>
<path fill="none" stroke="black" d="M223.1,-225.16C243.42,-228.08 263.67,-230.99 280.06,-233.34"/>
<polygon fill="black" stroke="black" points="279.83,-236.84 290.23,-234.8 280.83,-229.91 279.83,-236.84"/>
</g>
<!-- 140315481769776 -->
<g id="node24" class="node">
<title>140315481769776</title>
<polygon fill="none" stroke="grey" points="2170.09,-164.5 2170.09,-200.5 2355.09,-200.5 2355.09,-164.5 2170.09,-164.5"/>
<text text-anchor="middle" x="2181.59" y="-178.8" font-family="Times,serif" font-size="14.00" fill="grey">y</text>
<polyline fill="none" stroke="grey" points="2193.09,-164.5 2193.09,-200.5 "/>
<text text-anchor="middle" x="2233.09" y="-178.8" font-family="Times,serif" font-size="14.00" fill="grey">data 0.7000</text>
<polyline fill="none" stroke="grey" points="2273.09,-164.5 2273.09,-200.5 "/>
<text text-anchor="middle" x="2314.09" y="-178.8" font-family="Times,serif" font-size="14.00" fill="grey">grad 0.0000</text>
</g>
<!-- 140315481769776&#45;&gt;140315481773424+ -->
<g id="edge23" class="edge">
<title>140315481769776&#45;&gt;140315481773424+</title>
<path fill="none" stroke="black" d="M2355.1,-165.81C2364.58,-164.08 2373.75,-162.41 2382,-160.9"/>
<polygon fill="black" stroke="black" points="2382.7,-164.33 2391.9,-159.09 2381.44,-157.45 2382.7,-164.33"/>
</g>
<!-- 140315481780048 -->
<g id="node25" class="node">
<title>140315481780048</title>
<polygon fill="none" stroke="grey" points="1150,-110.5 1150,-146.5 1337,-146.5 1337,-110.5 1150,-110.5"/>
<text text-anchor="middle" x="1160" y="-124.8" font-family="Times,serif" font-size="14.00" fill="grey"> </text>
<polyline fill="none" stroke="grey" points="1170,-110.5 1170,-146.5 "/>
<text text-anchor="middle" x="1212.5" y="-124.8" font-family="Times,serif" font-size="14.00" fill="grey">data &#45;1.3807</text>
<polyline fill="none" stroke="grey" points="1255,-110.5 1255,-146.5 "/>
<text text-anchor="middle" x="1296" y="-124.8" font-family="Times,serif" font-size="14.00" fill="grey">grad 0.0000</text>
</g>
<!-- 140315481780048&#45;&gt;140315481770208+ -->
<g id="edge11" class="edge">
<title>140315481780048&#45;&gt;140315481770208+</title>
<path fill="none" stroke="black" d="M1337.05,-111.73C1346.54,-110.01 1355.71,-108.35 1363.95,-106.85"/>
<polygon fill="black" stroke="black" points="1364.64,-110.28 1373.85,-105.06 1363.39,-103.4 1364.64,-110.28"/>
</g>
<!-- 140315481780048+&#45;&gt;140315481780048 -->
<g id="edge9" class="edge">
<title>140315481780048+&#45;&gt;140315481780048</title>
<path fill="none" stroke="black" d="M1114.21,-128.5C1121.73,-128.5 1130.43,-128.5 1139.67,-128.5"/>
<polygon fill="black" stroke="black" points="1139.89,-132 1149.89,-128.5 1139.89,-125 1139.89,-132"/>
</g>
<!-- 140315481784272 -->
<g id="node27" class="node">
<title>140315481784272</title>
<polygon fill="none" stroke="grey" points="2789.09,-136.5 2789.09,-172.5 3021.09,-172.5 3021.09,-136.5 2789.09,-136.5"/>
<text text-anchor="middle" x="2824.09" y="-150.8" font-family="Times,serif" font-size="14.00" fill="grey">MSE loss</text>
<polyline fill="none" stroke="grey" points="2859.09,-136.5 2859.09,-172.5 "/>
<text text-anchor="middle" x="2899.09" y="-150.8" font-family="Times,serif" font-size="14.00" fill="grey">data 0.5108</text>
<polyline fill="none" stroke="grey" points="2939.09,-136.5 2939.09,-172.5 "/>
<text text-anchor="middle" x="2980.09" y="-150.8" font-family="Times,serif" font-size="14.00" fill="grey">grad 0.0000</text>
</g>
<!-- 140315481784272**2&#45;&gt;140315481784272 -->
<g id="edge10" class="edge">
<title>140315481784272**2&#45;&gt;140315481784272</title>
<path fill="none" stroke="black" d="M2753.21,-154.5C2760.62,-154.5 2769.23,-154.5 2778.49,-154.5"/>
<polygon fill="black" stroke="black" points="2778.78,-158 2788.78,-154.5 2778.78,-151 2778.78,-158"/>
</g>
<!-- 140315481769968 -->
<g id="node29" class="node">
<title>140315481769968</title>
<polygon fill="none" stroke="red" points="380,-55.5 380,-91.5 639,-91.5 639,-55.5 380,-55.5"/>
<text text-anchor="middle" x="426" y="-69.8" font-family="Times,serif" font-size="14.00">L0w1&#45;&gt;L1w0</text>
<polyline fill="none" stroke="red" points="472,-55.5 472,-91.5 "/>
<text text-anchor="middle" x="514.5" y="-69.8" font-family="Times,serif" font-size="14.00">data &#45;0.9500</text>
<polyline fill="none" stroke="red" points="557,-55.5 557,-91.5 "/>
<text text-anchor="middle" x="598" y="-69.8" font-family="Times,serif" font-size="14.00">grad 0.0000</text>
</g>
<!-- 140315481769968&#45;&gt;140315481779568* -->
<g id="edge12" class="edge">
<title>140315481769968&#45;&gt;140315481779568*</title>
<path fill="none" stroke="black" d="M607.58,-91.54C618.27,-94.22 628.92,-97.21 639,-100.5 649.72,-104 661.07,-108.79 671.09,-113.41"/>
<polygon fill="black" stroke="black" points="669.68,-116.62 680.22,-117.75 672.69,-110.29 669.68,-116.62"/>
</g>
</g>
</svg>
