<?xml version="1.0" encoding="UTF-8" standalone="no"?>
<!DOCTYPE svg PUBLIC "-//W3C//DTD SVG 1.1//EN"
 "http://www.w3.org/Graphics/SVG/1.1/DTD/svg11.dtd">
<!-- Generated by graphviz version 2.50.0 (0)
 -->
<!-- Pages: 1 -->
<svg width="3386pt" height="375pt"
 viewBox="0.00 0.00 3386.00 375.00" xmlns="http://www.w3.org/2000/svg" xmlns:xlink="http://www.w3.org/1999/xlink">
<g id="graph0" class="graph" transform="scale(1 1) rotate(0) translate(4 371)">
<polygon fill="white" stroke="transparent" points="-4,4 -4,-371 3382,-371 3382,4 -4,4"/>
<!-- 140248321103888 -->
<g id="node1" class="node">
<title>140248321103888</title>
<polygon fill="none" stroke="black" points="2838,-213.5 2838,-249.5 3020,-249.5 3020,-213.5 2838,-213.5"/>
<text text-anchor="middle" x="2848" y="-227.8" font-family="Times,serif" font-size="14.00"> </text>
<polyline fill="none" stroke="black" points="2858,-213.5 2858,-249.5 "/>
<text text-anchor="middle" x="2898" y="-227.8" font-family="Times,serif" font-size="14.00">data 0.5000</text>
<polyline fill="none" stroke="black" points="2938,-213.5 2938,-249.5 "/>
<text text-anchor="middle" x="2979" y="-227.8" font-family="Times,serif" font-size="14.00">grad 3.3209</text>
</g>
<!-- 140248321108304* -->
<g id="node15" class="node">
<title>140248321108304*</title>
<ellipse fill="none" stroke="black" cx="3083" cy="-203.5" rx="27" ry="18"/>
<text text-anchor="middle" x="3083" y="-199.8" font-family="Times,serif" font-size="14.00">*</text>
</g>
<!-- 140248321103888&#45;&gt;140248321108304* -->
<g id="edge31" class="edge">
<title>140248321103888&#45;&gt;140248321108304*</title>
<path fill="none" stroke="black" d="M3020.18,-214.89C3029.61,-213.15 3038.75,-211.47 3046.98,-209.95"/>
<polygon fill="black" stroke="black" points="3047.66,-213.39 3056.86,-208.13 3046.39,-206.5 3047.66,-213.39"/>
</g>
<!-- 140248321099856 -->
<g id="node2" class="node">
<title>140248321099856</title>
<polygon fill="none" stroke="black" points="391,-220.5 391,-256.5 650,-256.5 650,-220.5 391,-220.5"/>
<text text-anchor="middle" x="437" y="-234.8" font-family="Times,serif" font-size="14.00">L0w1&#45;&gt;L1w1</text>
<polyline fill="none" stroke="black" points="483,-220.5 483,-256.5 "/>
<text text-anchor="middle" x="525.5" y="-234.8" font-family="Times,serif" font-size="14.00">data &#45;0.6204</text>
<polyline fill="none" stroke="black" points="568,-220.5 568,-256.5 "/>
<text text-anchor="middle" x="609" y="-234.8" font-family="Times,serif" font-size="14.00">grad 0.2739</text>
</g>
<!-- 140248321106096* -->
<g id="node7" class="node">
<title>140248321106096*</title>
<ellipse fill="none" stroke="black" cx="715" cy="-238.5" rx="27" ry="18"/>
<text text-anchor="middle" x="715" y="-234.8" font-family="Times,serif" font-size="14.00">*</text>
</g>
<!-- 140248321099856&#45;&gt;140248321106096* -->
<g id="edge23" class="edge">
<title>140248321099856&#45;&gt;140248321106096*</title>
<path fill="none" stroke="black" d="M650.17,-238.5C659.92,-238.5 669.16,-238.5 677.44,-238.5"/>
<polygon fill="black" stroke="black" points="677.71,-242 687.71,-238.5 677.71,-235 677.71,-242"/>
</g>
<!-- 140248321101920 -->
<g id="node3" class="node">
<title>140248321101920</title>
<polygon fill="none" stroke="black" points="780,-275.5 780,-311.5 967,-311.5 967,-275.5 780,-275.5"/>
<text text-anchor="middle" x="790" y="-289.8" font-family="Times,serif" font-size="14.00"> </text>
<polyline fill="none" stroke="black" points="800,-275.5 800,-311.5 "/>
<text text-anchor="middle" x="842.5" y="-289.8" font-family="Times,serif" font-size="14.00">data &#45;0.0716</text>
<polyline fill="none" stroke="black" points="885,-275.5 885,-311.5 "/>
<text text-anchor="middle" x="926" y="-289.8" font-family="Times,serif" font-size="14.00">grad 0.3043</text>
</g>
<!-- 140248321099184+ -->
<g id="node34" class="node">
<title>140248321099184+</title>
<ellipse fill="none" stroke="black" cx="1032" cy="-245.5" rx="27" ry="18"/>
<text text-anchor="middle" x="1032" y="-241.8" font-family="Times,serif" font-size="14.00">+</text>
</g>
<!-- 140248321101920&#45;&gt;140248321099184+ -->
<g id="edge18" class="edge">
<title>140248321101920&#45;&gt;140248321099184+</title>
<path fill="none" stroke="black" d="M939.18,-275.47C949.19,-272.55 959.39,-269.5 969,-266.5 978.48,-263.54 988.71,-260.16 998.08,-256.98"/>
<polygon fill="black" stroke="black" points="999.5,-260.19 1007.83,-253.64 997.23,-253.57 999.5,-260.19"/>
</g>
<!-- 140248321101920+ -->
<g id="node4" class="node">
<title>140248321101920+</title>
<ellipse fill="none" stroke="black" cx="715" cy="-293.5" rx="27" ry="18"/>
<text text-anchor="middle" x="715" y="-289.8" font-family="Times,serif" font-size="14.00">+</text>
</g>
<!-- 140248321101920+&#45;&gt;140248321101920 -->
<g id="edge1" class="edge">
<title>140248321101920+&#45;&gt;140248321101920</title>
<path fill="none" stroke="black" d="M742.19,-293.5C750.22,-293.5 759.59,-293.5 769.55,-293.5"/>
<polygon fill="black" stroke="black" points="769.68,-297 779.68,-293.5 769.68,-290 769.68,-297"/>
</g>
<!-- 140248321097840 -->
<g id="node5" class="node">
<title>140248321097840</title>
<polygon fill="none" stroke="black" points="414.5,-275.5 414.5,-311.5 626.5,-311.5 626.5,-275.5 414.5,-275.5"/>
<text text-anchor="middle" x="437" y="-289.8" font-family="Times,serif" font-size="14.00">L1b1</text>
<polyline fill="none" stroke="black" points="459.5,-275.5 459.5,-311.5 "/>
<text text-anchor="middle" x="502" y="-289.8" font-family="Times,serif" font-size="14.00">data &#45;0.0705</text>
<polyline fill="none" stroke="black" points="544.5,-275.5 544.5,-311.5 "/>
<text text-anchor="middle" x="585.5" y="-289.8" font-family="Times,serif" font-size="14.00">grad 0.3043</text>
</g>
<!-- 140248321097840&#45;&gt;140248321101920+ -->
<g id="edge46" class="edge">
<title>140248321097840&#45;&gt;140248321101920+</title>
<path fill="none" stroke="black" d="M626.76,-293.5C645.13,-293.5 663.05,-293.5 677.82,-293.5"/>
<polygon fill="black" stroke="black" points="677.99,-297 687.99,-293.5 677.99,-290 677.99,-297"/>
</g>
<!-- 140248321106096 -->
<g id="node6" class="node">
<title>140248321106096</title>
<polygon fill="none" stroke="black" points="780,-220.5 780,-256.5 967,-256.5 967,-220.5 780,-220.5"/>
<text text-anchor="middle" x="790" y="-234.8" font-family="Times,serif" font-size="14.00"> </text>
<polyline fill="none" stroke="black" points="800,-220.5 800,-256.5 "/>
<text text-anchor="middle" x="842.5" y="-234.8" font-family="Times,serif" font-size="14.00">data &#45;0.5584</text>
<polyline fill="none" stroke="black" points="885,-220.5 885,-256.5 "/>
<text text-anchor="middle" x="926" y="-234.8" font-family="Times,serif" font-size="14.00">grad 0.3043</text>
</g>
<!-- 140248321106096&#45;&gt;140248321099184+ -->
<g id="edge41" class="edge">
<title>140248321106096&#45;&gt;140248321099184+</title>
<path fill="none" stroke="black" d="M967.35,-242.65C976.97,-243.08 986.29,-243.5 994.7,-243.88"/>
<polygon fill="black" stroke="black" points="994.66,-247.38 1004.81,-244.33 994.97,-240.38 994.66,-247.38"/>
</g>
<!-- 140248321106096*&#45;&gt;140248321106096 -->
<g id="edge2" class="edge">
<title>140248321106096*&#45;&gt;140248321106096</title>
<path fill="none" stroke="black" d="M742.19,-238.5C750.22,-238.5 759.59,-238.5 769.55,-238.5"/>
<polygon fill="black" stroke="black" points="769.68,-242 779.68,-238.5 769.68,-235 769.68,-242"/>
</g>
<!-- 140248321102016 -->
<g id="node8" class="node">
<title>140248321102016</title>
<polygon fill="none" stroke="black" points="778,-55.5 778,-91.5 969,-91.5 969,-55.5 778,-55.5"/>
<text text-anchor="middle" x="788" y="-69.8" font-family="Times,serif" font-size="14.00"> </text>
<polyline fill="none" stroke="black" points="798,-55.5 798,-91.5 "/>
<text text-anchor="middle" x="840.5" y="-69.8" font-family="Times,serif" font-size="14.00">data &#45;0.1971</text>
<polyline fill="none" stroke="black" points="883,-55.5 883,-91.5 "/>
<text text-anchor="middle" x="926" y="-69.8" font-family="Times,serif" font-size="14.00">grad &#45;0.7254</text>
</g>
<!-- 140248321100864+ -->
<g id="node30" class="node">
<title>140248321100864+</title>
<ellipse fill="none" stroke="black" cx="1032" cy="-121.5" rx="27" ry="18"/>
<text text-anchor="middle" x="1032" y="-117.8" font-family="Times,serif" font-size="14.00">+</text>
</g>
<!-- 140248321102016&#45;&gt;140248321100864+ -->
<g id="edge19" class="edge">
<title>140248321102016&#45;&gt;140248321100864+</title>
<path fill="none" stroke="black" d="M939.18,-91.53C949.19,-94.45 959.39,-97.5 969,-100.5 978.48,-103.46 988.71,-106.84 998.08,-110.02"/>
<polygon fill="black" stroke="black" points="997.23,-113.43 1007.83,-113.36 999.5,-106.81 997.23,-113.43"/>
</g>
<!-- 140248321102016+ -->
<g id="node9" class="node">
<title>140248321102016+</title>
<ellipse fill="none" stroke="black" cx="715" cy="-73.5" rx="27" ry="18"/>
<text text-anchor="middle" x="715" y="-69.8" font-family="Times,serif" font-size="14.00">+</text>
</g>
<!-- 140248321102016+&#45;&gt;140248321102016 -->
<g id="edge3" class="edge">
<title>140248321102016+&#45;&gt;140248321102016</title>
<path fill="none" stroke="black" d="M742.19,-73.5C749.67,-73.5 758.31,-73.5 767.51,-73.5"/>
<polygon fill="black" stroke="black" points="767.68,-77 777.68,-73.5 767.68,-70 767.68,-77"/>
</g>
<!-- 140248321104080 -->
<g id="node10" class="node">
<title>140248321104080</title>
<polygon fill="none" stroke="black" points="1438,-227.5 1438,-263.5 1649,-263.5 1649,-227.5 1438,-227.5"/>
<text text-anchor="middle" x="1460" y="-241.8" font-family="Times,serif" font-size="14.00">L1a1</text>
<polyline fill="none" stroke="black" points="1482,-227.5 1482,-263.5 "/>
<text text-anchor="middle" x="1524.5" y="-241.8" font-family="Times,serif" font-size="14.00">data &#45;0.5580</text>
<polyline fill="none" stroke="black" points="1567,-227.5 1567,-263.5 "/>
<text text-anchor="middle" x="1608" y="-241.8" font-family="Times,serif" font-size="14.00">grad 0.4420</text>
</g>
<!-- 140248321100768+ -->
<g id="node28" class="node">
<title>140248321100768+</title>
<ellipse fill="none" stroke="black" cx="1714" cy="-204.5" rx="27" ry="18"/>
<text text-anchor="middle" x="1714" y="-200.8" font-family="Times,serif" font-size="14.00">+</text>
</g>
<!-- 140248321104080&#45;&gt;140248321100768+ -->
<g id="edge27" class="edge">
<title>140248321104080&#45;&gt;140248321100768+</title>
<path fill="none" stroke="black" d="M1618.9,-227.4C1639.49,-222.39 1660.87,-217.18 1678.04,-213.01"/>
<polygon fill="black" stroke="black" points="1679.25,-216.31 1688.14,-210.55 1677.6,-209.51 1679.25,-216.31"/>
</g>
<!-- 140248321104080tanh -->
<g id="node11" class="node">
<title>140248321104080tanh</title>
<ellipse fill="none" stroke="black" cx="1373" cy="-245.5" rx="27" ry="18"/>
<text text-anchor="middle" x="1373" y="-241.8" font-family="Times,serif" font-size="14.00">tanh</text>
</g>
<!-- 140248321104080tanh&#45;&gt;140248321104080 -->
<g id="edge4" class="edge">
<title>140248321104080tanh&#45;&gt;140248321104080</title>
<path fill="none" stroke="black" d="M1400.33,-245.5C1408.31,-245.5 1417.64,-245.5 1427.63,-245.5"/>
<polygon fill="black" stroke="black" points="1427.82,-249 1437.82,-245.5 1427.82,-242 1427.82,-249"/>
</g>
<!-- 140248321106192 -->
<g id="node12" class="node">
<title>140248321106192</title>
<polygon fill="none" stroke="black" points="1436,-103.5 1436,-139.5 1651,-139.5 1651,-103.5 1436,-103.5"/>
<text text-anchor="middle" x="1458" y="-117.8" font-family="Times,serif" font-size="14.00">L1a0</text>
<polyline fill="none" stroke="black" points="1480,-103.5 1480,-139.5 "/>
<text text-anchor="middle" x="1522.5" y="-117.8" font-family="Times,serif" font-size="14.00">data &#45;0.7679</text>
<polyline fill="none" stroke="black" points="1565,-103.5 1565,-139.5 "/>
<text text-anchor="middle" x="1608" y="-117.8" font-family="Times,serif" font-size="14.00">grad &#45;1.7679</text>
</g>
<!-- 140248321107440+ -->
<g id="node36" class="node">
<title>140248321107440+</title>
<ellipse fill="none" stroke="black" cx="1714" cy="-98.5" rx="27" ry="18"/>
<text text-anchor="middle" x="1714" y="-94.8" font-family="Times,serif" font-size="14.00">+</text>
</g>
<!-- 140248321106192&#45;&gt;140248321107440+ -->
<g id="edge40" class="edge">
<title>140248321106192&#45;&gt;140248321107440+</title>
<path fill="none" stroke="black" d="M1651.21,-106.93C1660.48,-105.67 1669.35,-104.46 1677.34,-103.37"/>
<polygon fill="black" stroke="black" points="1677.85,-106.83 1687.29,-102.01 1676.91,-99.89 1677.85,-106.83"/>
</g>
<!-- 140248321106192tanh -->
<g id="node13" class="node">
<title>140248321106192tanh</title>
<ellipse fill="none" stroke="black" cx="1373" cy="-121.5" rx="27" ry="18"/>
<text text-anchor="middle" x="1373" y="-117.8" font-family="Times,serif" font-size="14.00">tanh</text>
</g>
<!-- 140248321106192tanh&#45;&gt;140248321106192 -->
<g id="edge5" class="edge">
<title>140248321106192tanh&#45;&gt;140248321106192</title>
<path fill="none" stroke="black" d="M1400.33,-121.5C1407.74,-121.5 1416.3,-121.5 1425.49,-121.5"/>
<polygon fill="black" stroke="black" points="1425.67,-125 1435.67,-121.5 1425.67,-118 1425.67,-125"/>
</g>
<!-- 140248321108304 -->
<g id="node14" class="node">
<title>140248321108304</title>
<polygon fill="none" stroke="black" points="3146,-185.5 3146,-221.5 3378,-221.5 3378,-185.5 3146,-185.5"/>
<text text-anchor="middle" x="3181" y="-199.8" font-family="Times,serif" font-size="14.00">MSE loss</text>
<polyline fill="none" stroke="black" points="3216,-185.5 3216,-221.5 "/>
<text text-anchor="middle" x="3256" y="-199.8" font-family="Times,serif" font-size="14.00">data 1.6604</text>
<polyline fill="none" stroke="black" points="3296,-185.5 3296,-221.5 "/>
<text text-anchor="middle" x="3337" y="-199.8" font-family="Times,serif" font-size="14.00">grad 1.0000</text>
</g>
<!-- 140248321108304*&#45;&gt;140248321108304 -->
<g id="edge6" class="edge">
<title>140248321108304*&#45;&gt;140248321108304</title>
<path fill="none" stroke="black" d="M3110.12,-203.5C3117.53,-203.5 3126.14,-203.5 3135.4,-203.5"/>
<polygon fill="black" stroke="black" points="3135.69,-207 3145.69,-203.5 3135.69,-200 3135.69,-207"/>
</g>
<!-- 140248321108352 -->
<g id="node16" class="node">
<title>140248321108352</title>
<polygon fill="none" stroke="black" points="389,-110.5 389,-146.5 652,-146.5 652,-110.5 389,-110.5"/>
<text text-anchor="middle" x="435" y="-124.8" font-family="Times,serif" font-size="14.00">L0w1&#45;&gt;L1w0</text>
<polyline fill="none" stroke="black" points="481,-110.5 481,-146.5 "/>
<text text-anchor="middle" x="523.5" y="-124.8" font-family="Times,serif" font-size="14.00">data &#45;0.9090</text>
<polyline fill="none" stroke="black" points="566,-110.5 566,-146.5 "/>
<text text-anchor="middle" x="609" y="-124.8" font-family="Times,serif" font-size="14.00">grad &#45;0.6528</text>
</g>
<!-- 140248321101152* -->
<g id="node32" class="node">
<title>140248321101152*</title>
<ellipse fill="none" stroke="black" cx="715" cy="-128.5" rx="27" ry="18"/>
<text text-anchor="middle" x="715" y="-124.8" font-family="Times,serif" font-size="14.00">*</text>
</g>
<!-- 140248321108352&#45;&gt;140248321101152* -->
<g id="edge21" class="edge">
<title>140248321108352&#45;&gt;140248321101152*</title>
<path fill="none" stroke="black" d="M652.03,-128.5C661.25,-128.5 669.99,-128.5 677.84,-128.5"/>
<polygon fill="black" stroke="black" points="677.95,-132 687.95,-128.5 677.95,-125 677.95,-132"/>
</g>
<!-- 140248321104272 -->
<g id="node17" class="node">
<title>140248321104272</title>
<polygon fill="none" stroke="black" points="1448,-48.5 1448,-84.5 1639,-84.5 1639,-48.5 1448,-48.5"/>
<text text-anchor="middle" x="1458" y="-62.8" font-family="Times,serif" font-size="14.00"> </text>
<polyline fill="none" stroke="black" points="1468,-48.5 1468,-84.5 "/>
<text text-anchor="middle" x="1510.5" y="-62.8" font-family="Times,serif" font-size="14.00">data &#45;1.0000</text>
<polyline fill="none" stroke="black" points="1553,-48.5 1553,-84.5 "/>
<text text-anchor="middle" x="1596" y="-62.8" font-family="Times,serif" font-size="14.00">grad &#45;1.7679</text>
</g>
<!-- 140248321104272&#45;&gt;140248321107440+ -->
<g id="edge22" class="edge">
<title>140248321104272&#45;&gt;140248321107440+</title>
<path fill="none" stroke="black" d="M1639.09,-84.46C1652.88,-87.08 1666.29,-89.63 1677.82,-91.82"/>
<polygon fill="black" stroke="black" points="1677.35,-95.29 1687.83,-93.72 1678.66,-88.42 1677.35,-95.29"/>
</g>
<!-- 140248321108400 -->
<g id="node18" class="node">
<title>140248321108400</title>
<polygon fill="none" stroke="black" points="412.5,-55.5 412.5,-91.5 628.5,-91.5 628.5,-55.5 412.5,-55.5"/>
<text text-anchor="middle" x="435" y="-69.8" font-family="Times,serif" font-size="14.00">L1b0</text>
<polyline fill="none" stroke="black" points="457.5,-55.5 457.5,-91.5 "/>
<text text-anchor="middle" x="500" y="-69.8" font-family="Times,serif" font-size="14.00">data &#45;0.1897</text>
<polyline fill="none" stroke="black" points="542.5,-55.5 542.5,-91.5 "/>
<text text-anchor="middle" x="585.5" y="-69.8" font-family="Times,serif" font-size="14.00">grad &#45;0.7254</text>
</g>
<!-- 140248321108400&#45;&gt;140248321102016+ -->
<g id="edge47" class="edge">
<title>140248321108400&#45;&gt;140248321102016+</title>
<path fill="none" stroke="black" d="M628.73,-73.5C646.34,-73.5 663.45,-73.5 677.67,-73.5"/>
<polygon fill="black" stroke="black" points="677.94,-77 687.94,-73.5 677.94,-70 677.94,-77"/>
</g>
<!-- 140248321104368 -->
<g id="node19" class="node">
<title>140248321104368</title>
<polygon fill="none" stroke="black" points="35.5,-192.5 35.5,-228.5 227.5,-228.5 227.5,-192.5 35.5,-192.5"/>
<text text-anchor="middle" x="50.5" y="-206.8" font-family="Times,serif" font-size="14.00">x0</text>
<polyline fill="none" stroke="black" points="65.5,-192.5 65.5,-228.5 "/>
<text text-anchor="middle" x="105.5" y="-206.8" font-family="Times,serif" font-size="14.00">data 0.1000</text>
<polyline fill="none" stroke="black" points="145.5,-192.5 145.5,-228.5 "/>
<text text-anchor="middle" x="186.5" y="-206.8" font-family="Times,serif" font-size="14.00">grad 0.0502</text>
</g>
<!-- 140248321100672* -->
<g id="node25" class="node">
<title>140248321100672*</title>
<ellipse fill="none" stroke="black" cx="326" cy="-45.5" rx="27" ry="18"/>
<text text-anchor="middle" x="326" y="-41.8" font-family="Times,serif" font-size="14.00">*</text>
</g>
<!-- 140248321104368&#45;&gt;140248321100672* -->
<g id="edge24" class="edge">
<title>140248321104368&#45;&gt;140248321100672*</title>
<path fill="none" stroke="black" d="M153.84,-192.21C189.88,-161.32 262.58,-99 300.59,-66.42"/>
<polygon fill="black" stroke="black" points="303.28,-68.73 308.59,-59.56 298.72,-63.41 303.28,-68.73"/>
</g>
<!-- 140248321105664* -->
<g id="node40" class="node">
<title>140248321105664*</title>
<ellipse fill="none" stroke="black" cx="326" cy="-320.5" rx="27" ry="18"/>
<text text-anchor="middle" x="326" y="-316.8" font-family="Times,serif" font-size="14.00">*</text>
</g>
<!-- 140248321104368&#45;&gt;140248321105664* -->
<g id="edge45" class="edge">
<title>140248321104368&#45;&gt;140248321105664*</title>
<path fill="none" stroke="black" d="M164.29,-228.66C200.95,-249.61 260.71,-283.76 296.1,-303.99"/>
<polygon fill="black" stroke="black" points="294.55,-307.13 304.97,-309.06 298.03,-301.06 294.55,-307.13"/>
</g>
<!-- 140248321110512 -->
<g id="node20" class="node">
<title>140248321110512</title>
<polygon fill="none" stroke="black" points="424.5,-165.5 424.5,-201.5 616.5,-201.5 616.5,-165.5 424.5,-165.5"/>
<text text-anchor="middle" x="439.5" y="-179.8" font-family="Times,serif" font-size="14.00">x1</text>
<polyline fill="none" stroke="black" points="454.5,-165.5 454.5,-201.5 "/>
<text text-anchor="middle" x="494.5" y="-179.8" font-family="Times,serif" font-size="14.00">data 0.9000</text>
<polyline fill="none" stroke="black" points="534.5,-165.5 534.5,-201.5 "/>
<text text-anchor="middle" x="575.5" y="-179.8" font-family="Times,serif" font-size="14.00">grad 0.4706</text>
</g>
<!-- 140248321110512&#45;&gt;140248321106096* -->
<g id="edge38" class="edge">
<title>140248321110512&#45;&gt;140248321106096*</title>
<path fill="none" stroke="black" d="M616.59,-200.61C628.61,-203.53 640.67,-206.82 652,-210.5 662.73,-213.98 674.08,-218.76 684.09,-223.39"/>
<polygon fill="black" stroke="black" points="682.69,-226.6 693.22,-227.73 685.69,-220.28 682.69,-226.6"/>
</g>
<!-- 140248321110512&#45;&gt;140248321101152* -->
<g id="edge44" class="edge">
<title>140248321110512&#45;&gt;140248321101152*</title>
<path fill="none" stroke="black" d="M616.53,-165.44C628.57,-162.47 640.64,-159.15 652,-155.5 662.48,-152.13 673.6,-147.61 683.48,-143.23"/>
<polygon fill="black" stroke="black" points="685.24,-146.28 692.89,-138.95 682.33,-139.91 685.24,-146.28"/>
</g>
<!-- 140248321108640 -->
<g id="node21" class="node">
<title>140248321108640</title>
<polygon fill="none" stroke="black" points="2,-302.5 2,-338.5 261,-338.5 261,-302.5 2,-302.5"/>
<text text-anchor="middle" x="48" y="-316.8" font-family="Times,serif" font-size="14.00">L0w0&#45;&gt;L1w1</text>
<polyline fill="none" stroke="black" points="94,-302.5 94,-338.5 "/>
<text text-anchor="middle" x="136.5" y="-316.8" font-family="Times,serif" font-size="14.00">data &#45;0.0113</text>
<polyline fill="none" stroke="black" points="179,-302.5 179,-338.5 "/>
<text text-anchor="middle" x="220" y="-316.8" font-family="Times,serif" font-size="14.00">grad 0.0304</text>
</g>
<!-- 140248321108640&#45;&gt;140248321105664* -->
<g id="edge39" class="edge">
<title>140248321108640&#45;&gt;140248321105664*</title>
<path fill="none" stroke="black" d="M261.17,-320.5C270.92,-320.5 280.16,-320.5 288.44,-320.5"/>
<polygon fill="black" stroke="black" points="288.71,-324 298.71,-320.5 288.71,-317 288.71,-324"/>
</g>
<!-- 140248321100528 -->
<g id="node22" class="node">
<title>140248321100528</title>
<polygon fill="none" stroke="black" points="1452.5,-172.5 1452.5,-208.5 1634.5,-208.5 1634.5,-172.5 1452.5,-172.5"/>
<text text-anchor="middle" x="1462.5" y="-186.8" font-family="Times,serif" font-size="14.00"> </text>
<polyline fill="none" stroke="black" points="1472.5,-172.5 1472.5,-208.5 "/>
<text text-anchor="middle" x="1512.5" y="-186.8" font-family="Times,serif" font-size="14.00">data 1.0000</text>
<polyline fill="none" stroke="black" points="1552.5,-172.5 1552.5,-208.5 "/>
<text text-anchor="middle" x="1593.5" y="-186.8" font-family="Times,serif" font-size="14.00">grad 0.4420</text>
</g>
<!-- 140248321100528&#45;&gt;140248321100768+ -->
<g id="edge25" class="edge">
<title>140248321100528&#45;&gt;140248321100768+</title>
<path fill="none" stroke="black" d="M1634.67,-197.99C1649.71,-199.24 1664.49,-200.47 1677.1,-201.52"/>
<polygon fill="black" stroke="black" points="1676.87,-205.01 1687.13,-202.35 1677.45,-198.03 1676.87,-205.01"/>
</g>
<!-- 140248321104752 -->
<g id="node23" class="node">
<title>140248321104752</title>
<polygon fill="none" stroke="black" points="2094,-135.5 2094,-171.5 2276,-171.5 2276,-135.5 2094,-135.5"/>
<text text-anchor="middle" x="2104" y="-149.8" font-family="Times,serif" font-size="14.00"> </text>
<polyline fill="none" stroke="black" points="2114,-135.5 2114,-171.5 "/>
<text text-anchor="middle" x="2154" y="-149.8" font-family="Times,serif" font-size="14.00">data 0.0000</text>
<polyline fill="none" stroke="black" points="2194,-135.5 2194,-171.5 "/>
<text text-anchor="middle" x="2235" y="-149.8" font-family="Times,serif" font-size="14.00">grad 0.5000</text>
</g>
<!-- 140248321109840+ -->
<g id="node44" class="node">
<title>140248321109840+</title>
<ellipse fill="none" stroke="black" cx="2403" cy="-149.5" rx="27" ry="18"/>
<text text-anchor="middle" x="2403" y="-145.8" font-family="Times,serif" font-size="14.00">+</text>
</g>
<!-- 140248321104752&#45;&gt;140248321109840+ -->
<g id="edge30" class="edge">
<title>140248321104752&#45;&gt;140248321109840+</title>
<path fill="none" stroke="black" d="M2276.04,-151.83C2307.5,-151.25 2341.05,-150.63 2365.61,-150.17"/>
<polygon fill="black" stroke="black" points="2365.95,-153.67 2375.89,-149.98 2365.83,-146.67 2365.95,-153.67"/>
</g>
<!-- 140248321100672 -->
<g id="node24" class="node">
<title>140248321100672</title>
<polygon fill="none" stroke="black" points="425,-0.5 425,-36.5 616,-36.5 616,-0.5 425,-0.5"/>
<text text-anchor="middle" x="435" y="-14.8" font-family="Times,serif" font-size="14.00"> </text>
<polyline fill="none" stroke="black" points="445,-0.5 445,-36.5 "/>
<text text-anchor="middle" x="487.5" y="-14.8" font-family="Times,serif" font-size="14.00">data &#45;0.0074</text>
<polyline fill="none" stroke="black" points="530,-0.5 530,-36.5 "/>
<text text-anchor="middle" x="573" y="-14.8" font-family="Times,serif" font-size="14.00">grad &#45;0.7254</text>
</g>
<!-- 140248321100672&#45;&gt;140248321102016+ -->
<g id="edge36" class="edge">
<title>140248321100672&#45;&gt;140248321102016+</title>
<path fill="none" stroke="black" d="M616.24,-35.53C628.38,-38.46 640.56,-41.78 652,-45.5 662.73,-48.98 674.08,-53.76 684.09,-58.39"/>
<polygon fill="black" stroke="black" points="682.69,-61.6 693.22,-62.73 685.69,-55.28 682.69,-61.6"/>
</g>
<!-- 140248321100672*&#45;&gt;140248321100672 -->
<g id="edge7" class="edge">
<title>140248321100672*&#45;&gt;140248321100672</title>
<path fill="none" stroke="black" d="M352.56,-41.91C369.03,-39.61 391.65,-36.43 414.92,-33.17"/>
<polygon fill="black" stroke="black" points="415.5,-36.62 424.92,-31.77 414.53,-29.69 415.5,-36.62"/>
</g>
<!-- 140248321102736 -->
<g id="node26" class="node">
<title>140248321102736</title>
<polygon fill="none" stroke="black" points="0,-27.5 0,-63.5 263,-63.5 263,-27.5 0,-27.5"/>
<text text-anchor="middle" x="46" y="-41.8" font-family="Times,serif" font-size="14.00">L0w0&#45;&gt;L1w0</text>
<polyline fill="none" stroke="black" points="92,-27.5 92,-63.5 "/>
<text text-anchor="middle" x="134.5" y="-41.8" font-family="Times,serif" font-size="14.00">data &#45;0.0739</text>
<polyline fill="none" stroke="black" points="177,-27.5 177,-63.5 "/>
<text text-anchor="middle" x="220" y="-41.8" font-family="Times,serif" font-size="14.00">grad &#45;0.0725</text>
</g>
<!-- 140248321102736&#45;&gt;140248321100672* -->
<g id="edge35" class="edge">
<title>140248321102736&#45;&gt;140248321100672*</title>
<path fill="none" stroke="black" d="M263.03,-45.5C272.25,-45.5 280.99,-45.5 288.84,-45.5"/>
<polygon fill="black" stroke="black" points="288.95,-49 298.95,-45.5 288.95,-42 288.95,-49"/>
</g>
<!-- 140248321100768 -->
<g id="node27" class="node">
<title>140248321100768</title>
<polygon fill="none" stroke="black" points="1781.5,-186.5 1781.5,-222.5 1963.5,-222.5 1963.5,-186.5 1781.5,-186.5"/>
<text text-anchor="middle" x="1791.5" y="-200.8" font-family="Times,serif" font-size="14.00"> </text>
<polyline fill="none" stroke="black" points="1801.5,-186.5 1801.5,-222.5 "/>
<text text-anchor="middle" x="1841.5" y="-200.8" font-family="Times,serif" font-size="14.00">data 0.4420</text>
<polyline fill="none" stroke="black" points="1881.5,-186.5 1881.5,-222.5 "/>
<text text-anchor="middle" x="1922.5" y="-200.8" font-family="Times,serif" font-size="14.00">grad 0.4420</text>
</g>
<!-- 140248321111616**2 -->
<g id="node38" class="node">
<title>140248321111616**2</title>
<ellipse fill="none" stroke="black" cx="2031" cy="-204.5" rx="27" ry="18"/>
<text text-anchor="middle" x="2031" y="-200.8" font-family="Times,serif" font-size="14.00">**2</text>
</g>
<!-- 140248321100768&#45;&gt;140248321111616**2 -->
<g id="edge26" class="edge">
<title>140248321100768&#45;&gt;140248321111616**2</title>
<path fill="none" stroke="black" d="M1963.63,-204.5C1974.18,-204.5 1984.43,-204.5 1993.6,-204.5"/>
<polygon fill="black" stroke="black" points="1993.82,-208 2003.82,-204.5 1993.82,-201 1993.82,-208"/>
</g>
<!-- 140248321100768+&#45;&gt;140248321100768 -->
<g id="edge8" class="edge">
<title>140248321100768+&#45;&gt;140248321100768</title>
<path fill="none" stroke="black" d="M1741.19,-204.5C1749.92,-204.5 1760.23,-204.5 1771.17,-204.5"/>
<polygon fill="black" stroke="black" points="1771.36,-208 1781.36,-204.5 1771.36,-201 1771.36,-208"/>
</g>
<!-- 140248321100864 -->
<g id="node29" class="node">
<title>140248321100864</title>
<polygon fill="none" stroke="black" points="1095,-103.5 1095,-139.5 1310,-139.5 1310,-103.5 1095,-103.5"/>
<text text-anchor="middle" x="1117" y="-117.8" font-family="Times,serif" font-size="14.00">L1z0</text>
<polyline fill="none" stroke="black" points="1139,-103.5 1139,-139.5 "/>
<text text-anchor="middle" x="1181.5" y="-117.8" font-family="Times,serif" font-size="14.00">data &#45;1.0153</text>
<polyline fill="none" stroke="black" points="1224,-103.5 1224,-139.5 "/>
<text text-anchor="middle" x="1267" y="-117.8" font-family="Times,serif" font-size="14.00">grad &#45;0.7254</text>
</g>
<!-- 140248321100864&#45;&gt;140248321106192tanh -->
<g id="edge34" class="edge">
<title>140248321100864&#45;&gt;140248321106192tanh</title>
<path fill="none" stroke="black" d="M1310.21,-121.5C1319.28,-121.5 1327.98,-121.5 1335.84,-121.5"/>
<polygon fill="black" stroke="black" points="1335.99,-125 1345.99,-121.5 1335.99,-118 1335.99,-125"/>
</g>
<!-- 140248321100864+&#45;&gt;140248321100864 -->
<g id="edge9" class="edge">
<title>140248321100864+&#45;&gt;140248321100864</title>
<path fill="none" stroke="black" d="M1059.33,-121.5C1066.74,-121.5 1075.3,-121.5 1084.49,-121.5"/>
<polygon fill="black" stroke="black" points="1084.67,-125 1094.67,-121.5 1084.67,-118 1084.67,-125"/>
</g>
<!-- 140248321101152 -->
<g id="node31" class="node">
<title>140248321101152</title>
<polygon fill="none" stroke="black" points="778,-110.5 778,-146.5 969,-146.5 969,-110.5 778,-110.5"/>
<text text-anchor="middle" x="788" y="-124.8" font-family="Times,serif" font-size="14.00"> </text>
<polyline fill="none" stroke="black" points="798,-110.5 798,-146.5 "/>
<text text-anchor="middle" x="840.5" y="-124.8" font-family="Times,serif" font-size="14.00">data &#45;0.8181</text>
<polyline fill="none" stroke="black" points="883,-110.5 883,-146.5 "/>
<text text-anchor="middle" x="926" y="-124.8" font-family="Times,serif" font-size="14.00">grad &#45;0.7254</text>
</g>
<!-- 140248321101152&#45;&gt;140248321100864+ -->
<g id="edge37" class="edge">
<title>140248321101152&#45;&gt;140248321100864+</title>
<path fill="none" stroke="black" d="M969.15,-124.27C978.18,-123.86 986.9,-123.47 994.81,-123.12"/>
<polygon fill="black" stroke="black" points="995.2,-126.6 1005.04,-122.66 994.89,-119.61 995.2,-126.6"/>
</g>
<!-- 140248321101152*&#45;&gt;140248321101152 -->
<g id="edge10" class="edge">
<title>140248321101152*&#45;&gt;140248321101152</title>
<path fill="none" stroke="black" d="M742.19,-128.5C749.67,-128.5 758.31,-128.5 767.51,-128.5"/>
<polygon fill="black" stroke="black" points="767.68,-132 777.68,-128.5 767.68,-125 767.68,-132"/>
</g>
<!-- 140248321099184 -->
<g id="node33" class="node">
<title>140248321099184</title>
<polygon fill="none" stroke="black" points="1097,-227.5 1097,-263.5 1308,-263.5 1308,-227.5 1097,-227.5"/>
<text text-anchor="middle" x="1119" y="-241.8" font-family="Times,serif" font-size="14.00">L1z1</text>
<polyline fill="none" stroke="black" points="1141,-227.5 1141,-263.5 "/>
<text text-anchor="middle" x="1183.5" y="-241.8" font-family="Times,serif" font-size="14.00">data &#45;0.6300</text>
<polyline fill="none" stroke="black" points="1226,-227.5 1226,-263.5 "/>
<text text-anchor="middle" x="1267" y="-241.8" font-family="Times,serif" font-size="14.00">grad 0.3043</text>
</g>
<!-- 140248321099184&#45;&gt;140248321104080tanh -->
<g id="edge33" class="edge">
<title>140248321099184&#45;&gt;140248321104080tanh</title>
<path fill="none" stroke="black" d="M1308.3,-245.5C1317.99,-245.5 1327.3,-245.5 1335.66,-245.5"/>
<polygon fill="black" stroke="black" points="1335.71,-249 1345.71,-245.5 1335.71,-242 1335.71,-249"/>
</g>
<!-- 140248321099184+&#45;&gt;140248321099184 -->
<g id="edge11" class="edge">
<title>140248321099184+&#45;&gt;140248321099184</title>
<path fill="none" stroke="black" d="M1059.33,-245.5C1067.31,-245.5 1076.64,-245.5 1086.63,-245.5"/>
<polygon fill="black" stroke="black" points="1086.82,-249 1096.82,-245.5 1086.82,-242 1086.82,-249"/>
</g>
<!-- 140248321107440 -->
<g id="node35" class="node">
<title>140248321107440</title>
<polygon fill="none" stroke="black" points="1777,-80.5 1777,-116.5 1968,-116.5 1968,-80.5 1777,-80.5"/>
<text text-anchor="middle" x="1787" y="-94.8" font-family="Times,serif" font-size="14.00"> </text>
<polyline fill="none" stroke="black" points="1797,-80.5 1797,-116.5 "/>
<text text-anchor="middle" x="1839.5" y="-94.8" font-family="Times,serif" font-size="14.00">data &#45;1.7679</text>
<polyline fill="none" stroke="black" points="1882,-80.5 1882,-116.5 "/>
<text text-anchor="middle" x="1925" y="-94.8" font-family="Times,serif" font-size="14.00">grad &#45;1.7679</text>
</g>
<!-- 140248321101632**2 -->
<g id="node42" class="node">
<title>140248321101632**2</title>
<ellipse fill="none" stroke="black" cx="2031" cy="-98.5" rx="27" ry="18"/>
<text text-anchor="middle" x="2031" y="-94.8" font-family="Times,serif" font-size="14.00">**2</text>
</g>
<!-- 140248321107440&#45;&gt;140248321101632**2 -->
<g id="edge28" class="edge">
<title>140248321107440&#45;&gt;140248321101632**2</title>
<path fill="none" stroke="black" d="M1968.15,-98.5C1977.09,-98.5 1985.73,-98.5 1993.57,-98.5"/>
<polygon fill="black" stroke="black" points="1993.73,-102 2003.73,-98.5 1993.73,-95 1993.73,-102"/>
</g>
<!-- 140248321107440+&#45;&gt;140248321107440 -->
<g id="edge12" class="edge">
<title>140248321107440+&#45;&gt;140248321107440</title>
<path fill="none" stroke="black" d="M1741.19,-98.5C1748.67,-98.5 1757.31,-98.5 1766.51,-98.5"/>
<polygon fill="black" stroke="black" points="1766.68,-102 1776.68,-98.5 1766.68,-95 1766.68,-102"/>
</g>
<!-- 140248321111616 -->
<g id="node37" class="node">
<title>140248321111616</title>
<polygon fill="none" stroke="black" points="2312,-186.5 2312,-222.5 2494,-222.5 2494,-186.5 2312,-186.5"/>
<text text-anchor="middle" x="2322" y="-200.8" font-family="Times,serif" font-size="14.00"> </text>
<polyline fill="none" stroke="black" points="2332,-186.5 2332,-222.5 "/>
<text text-anchor="middle" x="2372" y="-200.8" font-family="Times,serif" font-size="14.00">data 0.1953</text>
<polyline fill="none" stroke="black" points="2412,-186.5 2412,-222.5 "/>
<text text-anchor="middle" x="2453" y="-200.8" font-family="Times,serif" font-size="14.00">grad 0.5000</text>
</g>
<!-- 140248321103744+ -->
<g id="node46" class="node">
<title>140248321103744+</title>
<ellipse fill="none" stroke="black" cx="2775" cy="-176.5" rx="27" ry="18"/>
<text text-anchor="middle" x="2775" y="-172.8" font-family="Times,serif" font-size="14.00">+</text>
</g>
<!-- 140248321111616&#45;&gt;140248321103744+ -->
<g id="edge29" class="edge">
<title>140248321111616&#45;&gt;140248321103744+</title>
<path fill="none" stroke="black" d="M2494.04,-197.69C2572.41,-191.76 2681.98,-183.46 2737.96,-179.23"/>
<polygon fill="black" stroke="black" points="2738.39,-182.7 2748.1,-178.46 2737.86,-175.72 2738.39,-182.7"/>
</g>
<!-- 140248321111616**2&#45;&gt;140248321111616 -->
<g id="edge13" class="edge">
<title>140248321111616**2&#45;&gt;140248321111616</title>
<path fill="none" stroke="black" d="M2058.02,-204.5C2107.84,-204.5 2219.08,-204.5 2301.65,-204.5"/>
<polygon fill="black" stroke="black" points="2301.82,-208 2311.82,-204.5 2301.82,-201 2301.82,-208"/>
</g>
<!-- 140248321105664 -->
<g id="node39" class="node">
<title>140248321105664</title>
<polygon fill="none" stroke="black" points="427,-330.5 427,-366.5 614,-366.5 614,-330.5 427,-330.5"/>
<text text-anchor="middle" x="437" y="-344.8" font-family="Times,serif" font-size="14.00"> </text>
<polyline fill="none" stroke="black" points="447,-330.5 447,-366.5 "/>
<text text-anchor="middle" x="489.5" y="-344.8" font-family="Times,serif" font-size="14.00">data &#45;0.0011</text>
<polyline fill="none" stroke="black" points="532,-330.5 532,-366.5 "/>
<text text-anchor="middle" x="573" y="-344.8" font-family="Times,serif" font-size="14.00">grad 0.3043</text>
</g>
<!-- 140248321105664&#45;&gt;140248321101920+ -->
<g id="edge42" class="edge">
<title>140248321105664&#45;&gt;140248321101920+</title>
<path fill="none" stroke="black" d="M614.14,-331.97C626.97,-328.92 639.9,-325.43 652,-321.5 662.73,-318.02 674.08,-313.24 684.09,-308.61"/>
<polygon fill="black" stroke="black" points="685.69,-311.72 693.22,-304.27 682.69,-305.4 685.69,-311.72"/>
</g>
<!-- 140248321105664*&#45;&gt;140248321105664 -->
<g id="edge14" class="edge">
<title>140248321105664*&#45;&gt;140248321105664</title>
<path fill="none" stroke="black" d="M352.56,-324.22C369.46,-326.68 392.84,-330.08 416.76,-333.56"/>
<polygon fill="black" stroke="black" points="416.26,-337.02 426.66,-335 417.26,-330.09 416.26,-337.02"/>
</g>
<!-- 140248321101632 -->
<g id="node41" class="node">
<title>140248321101632</title>
<polygon fill="none" stroke="black" points="2094,-80.5 2094,-116.5 2276,-116.5 2276,-80.5 2094,-80.5"/>
<text text-anchor="middle" x="2104" y="-94.8" font-family="Times,serif" font-size="14.00"> </text>
<polyline fill="none" stroke="black" points="2114,-80.5 2114,-116.5 "/>
<text text-anchor="middle" x="2154" y="-94.8" font-family="Times,serif" font-size="14.00">data 3.1256</text>
<polyline fill="none" stroke="black" points="2194,-80.5 2194,-116.5 "/>
<text text-anchor="middle" x="2235" y="-94.8" font-family="Times,serif" font-size="14.00">grad 0.5000</text>
</g>
<!-- 140248321101632&#45;&gt;140248321109840+ -->
<g id="edge20" class="edge">
<title>140248321101632&#45;&gt;140248321109840+</title>
<path fill="none" stroke="black" d="M2262.46,-116.55C2298.34,-125.03 2339.32,-134.7 2367.54,-141.36"/>
<polygon fill="black" stroke="black" points="2366.79,-144.78 2377.33,-143.67 2368.4,-137.97 2366.79,-144.78"/>
</g>
<!-- 140248321101632**2&#45;&gt;140248321101632 -->
<g id="edge15" class="edge">
<title>140248321101632**2&#45;&gt;140248321101632</title>
<path fill="none" stroke="black" d="M2058.13,-98.5C2065.67,-98.5 2074.39,-98.5 2083.64,-98.5"/>
<polygon fill="black" stroke="black" points="2083.87,-102 2093.87,-98.5 2083.87,-95 2083.87,-102"/>
</g>
<!-- 140248321109840 -->
<g id="node43" class="node">
<title>140248321109840</title>
<polygon fill="none" stroke="black" points="2530,-135.5 2530,-171.5 2712,-171.5 2712,-135.5 2530,-135.5"/>
<text text-anchor="middle" x="2540" y="-149.8" font-family="Times,serif" font-size="14.00"> </text>
<polyline fill="none" stroke="black" points="2550,-135.5 2550,-171.5 "/>
<text text-anchor="middle" x="2590" y="-149.8" font-family="Times,serif" font-size="14.00">data 3.1256</text>
<polyline fill="none" stroke="black" points="2630,-135.5 2630,-171.5 "/>
<text text-anchor="middle" x="2671" y="-149.8" font-family="Times,serif" font-size="14.00">grad 0.5000</text>
</g>
<!-- 140248321109840&#45;&gt;140248321103744+ -->
<g id="edge43" class="edge">
<title>140248321109840&#45;&gt;140248321103744+</title>
<path fill="none" stroke="black" d="M2712.18,-167.15C2721.42,-168.54 2730.38,-169.9 2738.47,-171.12"/>
<polygon fill="black" stroke="black" points="2738.15,-174.61 2748.56,-172.65 2739.19,-167.69 2738.15,-174.61"/>
</g>
<!-- 140248321109840+&#45;&gt;140248321109840 -->
<g id="edge16" class="edge">
<title>140248321109840+&#45;&gt;140248321109840</title>
<path fill="none" stroke="black" d="M2430.05,-149.98C2452.53,-150.4 2486.48,-151.03 2519.5,-151.64"/>
<polygon fill="black" stroke="black" points="2519.64,-155.14 2529.7,-151.83 2519.77,-148.14 2519.64,-155.14"/>
</g>
<!-- 140248321103744 -->
<g id="node45" class="node">
<title>140248321103744</title>
<polygon fill="none" stroke="black" points="2838,-158.5 2838,-194.5 3020,-194.5 3020,-158.5 2838,-158.5"/>
<text text-anchor="middle" x="2848" y="-172.8" font-family="Times,serif" font-size="14.00"> </text>
<polyline fill="none" stroke="black" points="2858,-158.5 2858,-194.5 "/>
<text text-anchor="middle" x="2898" y="-172.8" font-family="Times,serif" font-size="14.00">data 3.3209</text>
<polyline fill="none" stroke="black" points="2938,-158.5 2938,-194.5 "/>
<text text-anchor="middle" x="2979" y="-172.8" font-family="Times,serif" font-size="14.00">grad 0.5000</text>
</g>
<!-- 140248321103744&#45;&gt;140248321108304* -->
<g id="edge32" class="edge">
<title>140248321103744&#45;&gt;140248321108304*</title>
<path fill="none" stroke="black" d="M3020.18,-192.52C3029.42,-194.16 3038.38,-195.75 3046.47,-197.19"/>
<polygon fill="black" stroke="black" points="3046.1,-200.68 3056.56,-198.98 3047.32,-193.79 3046.1,-200.68"/>
</g>
<!-- 140248321103744+&#45;&gt;140248321103744 -->
<g id="edge17" class="edge">
<title>140248321103744+&#45;&gt;140248321103744</title>
<path fill="none" stroke="black" d="M2802.13,-176.5C2809.67,-176.5 2818.39,-176.5 2827.64,-176.5"/>
<polygon fill="black" stroke="black" points="2827.87,-180 2837.87,-176.5 2827.87,-173 2827.87,-180"/>
</g>
</g>
</svg>
