<?xml version="1.0" encoding="UTF-8" standalone="no"?>
<!DOCTYPE svg PUBLIC "-//W3C//DTD SVG 1.1//EN"
 "http://www.w3.org/Graphics/SVG/1.1/DTD/svg11.dtd">
<!-- Generated by graphviz version 2.50.0 (0)
 -->
<!-- Pages: 1 -->
<svg width="2644pt" height="210pt"
 viewBox="0.00 0.00 2644.09 210.00" xmlns="http://www.w3.org/2000/svg" xmlns:xlink="http://www.w3.org/1999/xlink">
<g id="graph0" class="graph" transform="scale(1 1) rotate(0) translate(4 206)">
<polygon fill="white" stroke="transparent" points="-4,4 -4,-206 2640.09,-206 2640.09,4 -4,4"/>
<!-- 140379947093008 -->
<g id="node1" class="node">
<title>140379947093008</title>
<polygon fill="none" stroke="grey" points="1786.59,-54.5 1786.59,-90.5 1968.59,-90.5 1968.59,-54.5 1786.59,-54.5"/>
<text text-anchor="middle" x="1796.59" y="-68.8" font-family="Times,serif" font-size="14.00" fill="grey"> </text>
<polyline fill="none" stroke="grey" points="1806.59,-54.5 1806.59,-90.5 "/>
<text text-anchor="middle" x="1846.59" y="-68.8" font-family="Times,serif" font-size="14.00" fill="grey">data 0.0128</text>
<polyline fill="none" stroke="grey" points="1886.59,-54.5 1886.59,-90.5 "/>
<text text-anchor="middle" x="1927.59" y="-68.8" font-family="Times,serif" font-size="14.00" fill="grey">grad 0.0000</text>
</g>
<!-- 140379947092816+ -->
<g id="node19" class="node">
<title>140379947092816+</title>
<ellipse fill="none" stroke="black" cx="2033.09" cy="-99.5" rx="27" ry="18"/>
<text text-anchor="middle" x="2033.09" y="-95.8" font-family="Times,serif" font-size="14.00">+</text>
</g>
<!-- 140379947093008&#45;&gt;140379947092816+ -->
<g id="edge11" class="edge">
<title>140379947093008&#45;&gt;140379947092816+</title>
<path fill="none" stroke="black" d="M1968.77,-88.36C1978.7,-90.11 1988.32,-91.8 1996.94,-93.32"/>
<polygon fill="black" stroke="black" points="1996.45,-96.78 2006.9,-95.07 1997.66,-89.89 1996.45,-96.78"/>
</g>
<!-- 140379947093008* -->
<g id="node2" class="node">
<title>140379947093008*</title>
<ellipse fill="none" stroke="black" cx="1722.09" cy="-72.5" rx="27" ry="18"/>
<text text-anchor="middle" x="1722.09" y="-68.8" font-family="Times,serif" font-size="14.00">*</text>
</g>
<!-- 140379947093008*&#45;&gt;140379947093008 -->
<g id="edge1" class="edge">
<title>140379947093008*&#45;&gt;140379947093008</title>
<path fill="none" stroke="black" d="M1749.13,-72.5C1757.15,-72.5 1766.51,-72.5 1776.44,-72.5"/>
<polygon fill="black" stroke="black" points="1776.54,-76 1786.54,-72.5 1776.54,-69 1776.54,-76"/>
</g>
<!-- 140379947093056 -->
<g id="node3" class="node">
<title>140379947093056</title>
<polygon fill="none" stroke="grey" points="1448.09,-82.5 1448.09,-118.5 1659.09,-118.5 1659.09,-82.5 1448.09,-82.5"/>
<text text-anchor="middle" x="1470.09" y="-96.8" font-family="Times,serif" font-size="14.00" fill="grey">L1a0</text>
<polyline fill="none" stroke="grey" points="1492.09,-82.5 1492.09,-118.5 "/>
<text text-anchor="middle" x="1534.59" y="-96.8" font-family="Times,serif" font-size="14.00" fill="grey">data &#45;0.0128</text>
<polyline fill="none" stroke="grey" points="1577.09,-82.5 1577.09,-118.5 "/>
<text text-anchor="middle" x="1618.09" y="-96.8" font-family="Times,serif" font-size="14.00" fill="grey">grad 0.0000</text>
</g>
<!-- 140379947093056&#45;&gt;140379947093008* -->
<g id="edge13" class="edge">
<title>140379947093056&#45;&gt;140379947093008*</title>
<path fill="none" stroke="black" d="M1659.09,-82.93C1668.54,-81.34 1677.6,-79.81 1685.73,-78.45"/>
<polygon fill="black" stroke="black" points="1686.57,-81.86 1695.85,-76.74 1685.41,-74.95 1686.57,-81.86"/>
</g>
<!-- 140379947093056leakyrelu -->
<g id="node4" class="node">
<title>140379947093056leakyrelu</title>
<ellipse fill="none" stroke="black" cx="1368.55" cy="-100.5" rx="43.59" ry="18"/>
<text text-anchor="middle" x="1368.55" y="-96.8" font-family="Times,serif" font-size="14.00">leakyrelu</text>
</g>
<!-- 140379947093056leakyrelu&#45;&gt;140379947093056 -->
<g id="edge2" class="edge">
<title>140379947093056leakyrelu&#45;&gt;140379947093056</title>
<path fill="none" stroke="black" d="M1412.46,-100.5C1420.37,-100.5 1428.96,-100.5 1437.86,-100.5"/>
<polygon fill="black" stroke="black" points="1438.03,-104 1448.03,-100.5 1438.03,-97 1438.03,-104"/>
</g>
<!-- 140379947815536 -->
<g id="node5" class="node">
<title>140379947815536</title>
<polygon fill="none" stroke="grey" points="31,-138.5 31,-174.5 223,-174.5 223,-138.5 31,-138.5"/>
<text text-anchor="middle" x="46" y="-152.8" font-family="Times,serif" font-size="14.00" fill="grey">x0</text>
<polyline fill="none" stroke="grey" points="61,-138.5 61,-174.5 "/>
<text text-anchor="middle" x="101" y="-152.8" font-family="Times,serif" font-size="14.00" fill="grey">data 0.1000</text>
<polyline fill="none" stroke="grey" points="141,-138.5 141,-174.5 "/>
<text text-anchor="middle" x="182" y="-152.8" font-family="Times,serif" font-size="14.00" fill="grey">grad 0.0000</text>
</g>
<!-- 140379947093920* -->
<g id="node23" class="node">
<title>140379947093920*</title>
<ellipse fill="none" stroke="black" cx="317" cy="-128.5" rx="27" ry="18"/>
<text text-anchor="middle" x="317" y="-124.8" font-family="Times,serif" font-size="14.00">*</text>
</g>
<!-- 140379947815536&#45;&gt;140379947093920* -->
<g id="edge14" class="edge">
<title>140379947815536&#45;&gt;140379947093920*</title>
<path fill="none" stroke="black" d="M223.1,-142.34C243.42,-139.31 263.67,-136.29 280.06,-133.85"/>
<polygon fill="black" stroke="black" points="280.85,-137.27 290.23,-132.34 279.82,-130.35 280.85,-137.27"/>
</g>
<!-- 140379947093632 -->
<g id="node6" class="node">
<title>140379947093632</title>
<polygon fill="none" stroke="red" points="380,-55.5 380,-91.5 639,-91.5 639,-55.5 380,-55.5"/>
<text text-anchor="middle" x="426" y="-69.8" font-family="Times,serif" font-size="14.00">L0w1&#45;&gt;L1w0</text>
<polyline fill="none" stroke="red" points="472,-55.5 472,-91.5 "/>
<text text-anchor="middle" x="514.5" y="-69.8" font-family="Times,serif" font-size="14.00">data &#45;0.9500</text>
<polyline fill="none" stroke="red" points="557,-55.5 557,-91.5 "/>
<text text-anchor="middle" x="598" y="-69.8" font-family="Times,serif" font-size="14.00">grad 0.0000</text>
</g>
<!-- 140379947090320* -->
<g id="node21" class="node">
<title>140379947090320*</title>
<ellipse fill="none" stroke="black" cx="702" cy="-73.5" rx="27" ry="18"/>
<text text-anchor="middle" x="702" y="-69.8" font-family="Times,serif" font-size="14.00">*</text>
</g>
<!-- 140379947093632&#45;&gt;140379947090320* -->
<g id="edge16" class="edge">
<title>140379947093632&#45;&gt;140379947090320*</title>
<path fill="none" stroke="black" d="M639.15,-73.5C648.34,-73.5 657.05,-73.5 664.89,-73.5"/>
<polygon fill="black" stroke="black" points="664.98,-77 674.98,-73.5 664.98,-70 664.98,-77"/>
</g>
<!-- 140379947092624 -->
<g id="node7" class="node">
<title>140379947092624</title>
<polygon fill="none" stroke="grey" points="2404.09,-81.5 2404.09,-117.5 2636.09,-117.5 2636.09,-81.5 2404.09,-81.5"/>
<text text-anchor="middle" x="2439.09" y="-95.8" font-family="Times,serif" font-size="14.00" fill="grey">MSE loss</text>
<polyline fill="none" stroke="grey" points="2474.09,-81.5 2474.09,-117.5 "/>
<text text-anchor="middle" x="2514.09" y="-95.8" font-family="Times,serif" font-size="14.00" fill="grey">data 0.5080</text>
<polyline fill="none" stroke="grey" points="2554.09,-81.5 2554.09,-117.5 "/>
<text text-anchor="middle" x="2595.09" y="-95.8" font-family="Times,serif" font-size="14.00" fill="grey">grad 0.0000</text>
</g>
<!-- 140379947092624**2 -->
<g id="node8" class="node">
<title>140379947092624**2</title>
<ellipse fill="none" stroke="black" cx="2341.09" cy="-99.5" rx="27" ry="18"/>
<text text-anchor="middle" x="2341.09" y="-95.8" font-family="Times,serif" font-size="14.00">**2</text>
</g>
<!-- 140379947092624**2&#45;&gt;140379947092624 -->
<g id="edge3" class="edge">
<title>140379947092624**2&#45;&gt;140379947092624</title>
<path fill="none" stroke="black" d="M2368.21,-99.5C2375.62,-99.5 2384.23,-99.5 2393.49,-99.5"/>
<polygon fill="black" stroke="black" points="2393.78,-103 2403.78,-99.5 2393.78,-96 2393.78,-103"/>
</g>
<!-- 140379947093152 -->
<g id="node9" class="node">
<title>140379947093152</title>
<polygon fill="none" stroke="grey" points="1078,-82.5 1078,-118.5 1289,-118.5 1289,-82.5 1078,-82.5"/>
<text text-anchor="middle" x="1100" y="-96.8" font-family="Times,serif" font-size="14.00" fill="grey">L1z0</text>
<polyline fill="none" stroke="grey" points="1122,-82.5 1122,-118.5 "/>
<text text-anchor="middle" x="1164.5" y="-96.8" font-family="Times,serif" font-size="14.00" fill="grey">data &#45;1.2770</text>
<polyline fill="none" stroke="grey" points="1207,-82.5 1207,-118.5 "/>
<text text-anchor="middle" x="1248" y="-96.8" font-family="Times,serif" font-size="14.00" fill="grey">grad 0.0000</text>
</g>
<!-- 140379947093152&#45;&gt;140379947093056leakyrelu -->
<g id="edge17" class="edge">
<title>140379947093152&#45;&gt;140379947093056leakyrelu</title>
<path fill="none" stroke="black" d="M1289.12,-100.5C1297.81,-100.5 1306.33,-100.5 1314.38,-100.5"/>
<polygon fill="black" stroke="black" points="1314.65,-104 1324.65,-100.5 1314.65,-97 1314.65,-104"/>
</g>
<!-- 140379947093152+ -->
<g id="node10" class="node">
<title>140379947093152+</title>
<ellipse fill="none" stroke="black" cx="1015" cy="-100.5" rx="27" ry="18"/>
<text text-anchor="middle" x="1015" y="-96.8" font-family="Times,serif" font-size="14.00">+</text>
</g>
<!-- 140379947093152+&#45;&gt;140379947093152 -->
<g id="edge4" class="edge">
<title>140379947093152+&#45;&gt;140379947093152</title>
<path fill="none" stroke="black" d="M1042.02,-100.5C1049.62,-100.5 1058.46,-100.5 1067.93,-100.5"/>
<polygon fill="black" stroke="black" points="1068,-104 1078,-100.5 1068,-97 1068,-104"/>
</g>
<!-- 140379947093680 -->
<g id="node11" class="node">
<title>140379947093680</title>
<polygon fill="none" stroke="red" points="403.5,-165.5 403.5,-201.5 615.5,-201.5 615.5,-165.5 403.5,-165.5"/>
<text text-anchor="middle" x="426" y="-179.8" font-family="Times,serif" font-size="14.00">L1b0</text>
<polyline fill="none" stroke="red" points="448.5,-165.5 448.5,-201.5 "/>
<text text-anchor="middle" x="491" y="-179.8" font-family="Times,serif" font-size="14.00">data &#45;0.4499</text>
<polyline fill="none" stroke="red" points="533.5,-165.5 533.5,-201.5 "/>
<text text-anchor="middle" x="574.5" y="-179.8" font-family="Times,serif" font-size="14.00">grad 0.0000</text>
</g>
<!-- 140379947090128+ -->
<g id="node14" class="node">
<title>140379947090128+</title>
<ellipse fill="none" stroke="black" cx="702" cy="-128.5" rx="27" ry="18"/>
<text text-anchor="middle" x="702" y="-124.8" font-family="Times,serif" font-size="14.00">+</text>
</g>
<!-- 140379947093680&#45;&gt;140379947090128+ -->
<g id="edge15" class="edge">
<title>140379947093680&#45;&gt;140379947090128+</title>
<path fill="none" stroke="black" d="M607.58,-165.46C618.27,-162.78 628.92,-159.79 639,-156.5 649.72,-153 661.07,-148.21 671.09,-143.59"/>
<polygon fill="black" stroke="black" points="672.69,-146.71 680.22,-139.25 669.68,-140.38 672.69,-146.71"/>
</g>
<!-- 140379947090032 -->
<g id="node12" class="node">
<title>140379947090032</title>
<polygon fill="none" stroke="grey" points="1460.09,-27.5 1460.09,-63.5 1647.09,-63.5 1647.09,-27.5 1460.09,-27.5"/>
<text text-anchor="middle" x="1470.09" y="-41.8" font-family="Times,serif" font-size="14.00" fill="grey"> </text>
<polyline fill="none" stroke="grey" points="1480.09,-27.5 1480.09,-63.5 "/>
<text text-anchor="middle" x="1522.59" y="-41.8" font-family="Times,serif" font-size="14.00" fill="grey">data &#45;1.0000</text>
<polyline fill="none" stroke="grey" points="1565.09,-27.5 1565.09,-63.5 "/>
<text text-anchor="middle" x="1606.09" y="-41.8" font-family="Times,serif" font-size="14.00" fill="grey">grad 0.0000</text>
</g>
<!-- 140379947090032&#45;&gt;140379947093008* -->
<g id="edge10" class="edge">
<title>140379947090032&#45;&gt;140379947093008*</title>
<path fill="none" stroke="black" d="M1647.09,-60.5C1660.73,-62.71 1674.04,-64.87 1685.52,-66.73"/>
<polygon fill="black" stroke="black" points="1685.07,-70.2 1695.5,-68.35 1686.19,-63.29 1685.07,-70.2"/>
</g>
<!-- 140379947090128 -->
<g id="node13" class="node">
<title>140379947090128</title>
<polygon fill="none" stroke="grey" points="765,-110.5 765,-146.5 952,-146.5 952,-110.5 765,-110.5"/>
<text text-anchor="middle" x="775" y="-124.8" font-family="Times,serif" font-size="14.00" fill="grey"> </text>
<polyline fill="none" stroke="grey" points="785,-110.5 785,-146.5 "/>
<text text-anchor="middle" x="827.5" y="-124.8" font-family="Times,serif" font-size="14.00" fill="grey">data &#45;0.4221</text>
<polyline fill="none" stroke="grey" points="870,-110.5 870,-146.5 "/>
<text text-anchor="middle" x="911" y="-124.8" font-family="Times,serif" font-size="14.00" fill="grey">grad 0.0000</text>
</g>
<!-- 140379947090128&#45;&gt;140379947093152+ -->
<g id="edge21" class="edge">
<title>140379947090128&#45;&gt;140379947093152+</title>
<path fill="none" stroke="black" d="M952.05,-111.73C961.54,-110.01 970.71,-108.35 978.95,-106.85"/>
<polygon fill="black" stroke="black" points="979.64,-110.28 988.85,-105.06 978.39,-103.4 979.64,-110.28"/>
</g>
<!-- 140379947090128+&#45;&gt;140379947090128 -->
<g id="edge5" class="edge">
<title>140379947090128+&#45;&gt;140379947090128</title>
<path fill="none" stroke="black" d="M729.21,-128.5C736.73,-128.5 745.43,-128.5 754.67,-128.5"/>
<polygon fill="black" stroke="black" points="754.89,-132 764.89,-128.5 754.89,-125 754.89,-132"/>
</g>
<!-- 140379947093728 -->
<g id="node15" class="node">
<title>140379947093728</title>
<polygon fill="none" stroke="red" points="0,-83.5 0,-119.5 254,-119.5 254,-83.5 0,-83.5"/>
<text text-anchor="middle" x="46" y="-97.8" font-family="Times,serif" font-size="14.00">L0w0&#45;&gt;L1w0</text>
<polyline fill="none" stroke="red" points="92,-83.5 92,-119.5 "/>
<text text-anchor="middle" x="132" y="-97.8" font-family="Times,serif" font-size="14.00">data 0.2789</text>
<polyline fill="none" stroke="red" points="172,-83.5 172,-119.5 "/>
<text text-anchor="middle" x="213" y="-97.8" font-family="Times,serif" font-size="14.00">grad 0.0000</text>
</g>
<!-- 140379947093728&#45;&gt;140379947093920* -->
<g id="edge19" class="edge">
<title>140379947093728&#45;&gt;140379947093920*</title>
<path fill="none" stroke="black" d="M253.4,-119.51C263.05,-120.89 272.2,-122.21 280.37,-123.38"/>
<polygon fill="black" stroke="black" points="280.12,-126.88 290.51,-124.84 281.11,-119.95 280.12,-126.88"/>
</g>
<!-- 140379947814048 -->
<g id="node16" class="node">
<title>140379947814048</title>
<polygon fill="none" stroke="grey" points="1785.09,-109.5 1785.09,-145.5 1970.09,-145.5 1970.09,-109.5 1785.09,-109.5"/>
<text text-anchor="middle" x="1796.59" y="-123.8" font-family="Times,serif" font-size="14.00" fill="grey">y</text>
<polyline fill="none" stroke="grey" points="1808.09,-109.5 1808.09,-145.5 "/>
<text text-anchor="middle" x="1848.09" y="-123.8" font-family="Times,serif" font-size="14.00" fill="grey">data 0.7000</text>
<polyline fill="none" stroke="grey" points="1888.09,-109.5 1888.09,-145.5 "/>
<text text-anchor="middle" x="1929.09" y="-123.8" font-family="Times,serif" font-size="14.00" fill="grey">grad 0.0000</text>
</g>
<!-- 140379947814048&#45;&gt;140379947092816+ -->
<g id="edge20" class="edge">
<title>140379947814048&#45;&gt;140379947092816+</title>
<path fill="none" stroke="black" d="M1970.1,-110.81C1979.58,-109.08 1988.75,-107.41 1997,-105.9"/>
<polygon fill="black" stroke="black" points="1997.7,-109.33 2006.9,-104.09 1996.44,-102.45 1997.7,-109.33"/>
</g>
<!-- 140379947813664 -->
<g id="node17" class="node">
<title>140379947813664</title>
<polygon fill="none" stroke="grey" points="413.5,-0.5 413.5,-36.5 605.5,-36.5 605.5,-0.5 413.5,-0.5"/>
<text text-anchor="middle" x="428.5" y="-14.8" font-family="Times,serif" font-size="14.00" fill="grey">x1</text>
<polyline fill="none" stroke="grey" points="443.5,-0.5 443.5,-36.5 "/>
<text text-anchor="middle" x="483.5" y="-14.8" font-family="Times,serif" font-size="14.00" fill="grey">data 0.9000</text>
<polyline fill="none" stroke="grey" points="523.5,-0.5 523.5,-36.5 "/>
<text text-anchor="middle" x="564.5" y="-14.8" font-family="Times,serif" font-size="14.00" fill="grey">grad 0.0000</text>
</g>
<!-- 140379947813664&#45;&gt;140379947090320* -->
<g id="edge9" class="edge">
<title>140379947813664&#45;&gt;140379947090320*</title>
<path fill="none" stroke="black" d="M605.51,-36.02C616.89,-38.84 628.27,-42 639,-45.5 649.72,-49 661.07,-53.79 671.09,-58.41"/>
<polygon fill="black" stroke="black" points="669.68,-61.62 680.22,-62.75 672.69,-55.29 669.68,-61.62"/>
</g>
<!-- 140379947092816 -->
<g id="node18" class="node">
<title>140379947092816</title>
<polygon fill="none" stroke="grey" points="2096.09,-81.5 2096.09,-117.5 2278.09,-117.5 2278.09,-81.5 2096.09,-81.5"/>
<text text-anchor="middle" x="2106.09" y="-95.8" font-family="Times,serif" font-size="14.00" fill="grey"> </text>
<polyline fill="none" stroke="grey" points="2116.09,-81.5 2116.09,-117.5 "/>
<text text-anchor="middle" x="2156.09" y="-95.8" font-family="Times,serif" font-size="14.00" fill="grey">data 0.7128</text>
<polyline fill="none" stroke="grey" points="2196.09,-81.5 2196.09,-117.5 "/>
<text text-anchor="middle" x="2237.09" y="-95.8" font-family="Times,serif" font-size="14.00" fill="grey">grad 0.0000</text>
</g>
<!-- 140379947092816&#45;&gt;140379947092624**2 -->
<g id="edge22" class="edge">
<title>140379947092816&#45;&gt;140379947092624**2</title>
<path fill="none" stroke="black" d="M2278.27,-99.5C2287.23,-99.5 2295.93,-99.5 2303.82,-99.5"/>
<polygon fill="black" stroke="black" points="2304.05,-103 2314.05,-99.5 2304.05,-96 2304.05,-103"/>
</g>
<!-- 140379947092816+&#45;&gt;140379947092816 -->
<g id="edge6" class="edge">
<title>140379947092816+&#45;&gt;140379947092816</title>
<path fill="none" stroke="black" d="M2060.22,-99.5C2067.76,-99.5 2076.48,-99.5 2085.73,-99.5"/>
<polygon fill="black" stroke="black" points="2085.96,-103 2095.96,-99.5 2085.96,-96 2085.96,-103"/>
</g>
<!-- 140379947090320 -->
<g id="node20" class="node">
<title>140379947090320</title>
<polygon fill="none" stroke="grey" points="765,-55.5 765,-91.5 952,-91.5 952,-55.5 765,-55.5"/>
<text text-anchor="middle" x="775" y="-69.8" font-family="Times,serif" font-size="14.00" fill="grey"> </text>
<polyline fill="none" stroke="grey" points="785,-55.5 785,-91.5 "/>
<text text-anchor="middle" x="827.5" y="-69.8" font-family="Times,serif" font-size="14.00" fill="grey">data &#45;0.8550</text>
<polyline fill="none" stroke="grey" points="870,-55.5 870,-91.5 "/>
<text text-anchor="middle" x="911" y="-69.8" font-family="Times,serif" font-size="14.00" fill="grey">grad 0.0000</text>
</g>
<!-- 140379947090320&#45;&gt;140379947093152+ -->
<g id="edge18" class="edge">
<title>140379947090320&#45;&gt;140379947093152+</title>
<path fill="none" stroke="black" d="M952.05,-89.67C961.34,-91.3 970.33,-92.87 978.44,-94.29"/>
<polygon fill="black" stroke="black" points="978.1,-97.78 988.55,-96.05 979.3,-90.88 978.1,-97.78"/>
</g>
<!-- 140379947090320*&#45;&gt;140379947090320 -->
<g id="edge7" class="edge">
<title>140379947090320*&#45;&gt;140379947090320</title>
<path fill="none" stroke="black" d="M729.21,-73.5C736.73,-73.5 745.43,-73.5 754.67,-73.5"/>
<polygon fill="black" stroke="black" points="754.89,-77 764.89,-73.5 754.89,-70 754.89,-77"/>
</g>
<!-- 140379947093920 -->
<g id="node22" class="node">
<title>140379947093920</title>
<polygon fill="none" stroke="grey" points="418.5,-110.5 418.5,-146.5 600.5,-146.5 600.5,-110.5 418.5,-110.5"/>
<text text-anchor="middle" x="428.5" y="-124.8" font-family="Times,serif" font-size="14.00" fill="grey"> </text>
<polyline fill="none" stroke="grey" points="438.5,-110.5 438.5,-146.5 "/>
<text text-anchor="middle" x="478.5" y="-124.8" font-family="Times,serif" font-size="14.00" fill="grey">data 0.0279</text>
<polyline fill="none" stroke="grey" points="518.5,-110.5 518.5,-146.5 "/>
<text text-anchor="middle" x="559.5" y="-124.8" font-family="Times,serif" font-size="14.00" fill="grey">grad 0.0000</text>
</g>
<!-- 140379947093920&#45;&gt;140379947090128+ -->
<g id="edge12" class="edge">
<title>140379947093920&#45;&gt;140379947090128+</title>
<path fill="none" stroke="black" d="M600.73,-128.5C623.4,-128.5 646.45,-128.5 664.72,-128.5"/>
<polygon fill="black" stroke="black" points="664.89,-132 674.89,-128.5 664.89,-125 664.89,-132"/>
</g>
<!-- 140379947093920*&#45;&gt;140379947093920 -->
<g id="edge8" class="edge">
<title>140379947093920*&#45;&gt;140379947093920</title>
<path fill="none" stroke="black" d="M344.09,-128.5C361.03,-128.5 384.3,-128.5 408.01,-128.5"/>
<polygon fill="black" stroke="black" points="408.18,-132 418.18,-128.5 408.18,-125 408.18,-132"/>
</g>
</g>
</svg>
