<?xml version="1.0" encoding="UTF-8" standalone="no"?>
<!DOCTYPE svg PUBLIC "-//W3C//DTD SVG 1.1//EN"
 "http://www.w3.org/Graphics/SVG/1.1/DTD/svg11.dtd">
<!-- Generated by graphviz version 2.50.0 (0)
 -->
<!-- Pages: 1 -->
<svg width="3694pt" height="375pt"
 viewBox="0.00 0.00 3694.00 375.00" xmlns="http://www.w3.org/2000/svg" xmlns:xlink="http://www.w3.org/1999/xlink">
<g id="graph0" class="graph" transform="scale(1 1) rotate(0) translate(4 371)">
<polygon fill="white" stroke="transparent" points="-4,4 -4,-371 3690,-371 3690,4 -4,4"/>
<!-- 140306462349328 -->
<g id="node1" class="node">
<title>140306462349328</title>
<polygon fill="none" stroke="black" points="1762.5,-126.5 1762.5,-162.5 1954.5,-162.5 1954.5,-126.5 1762.5,-126.5"/>
<text text-anchor="middle" x="1777.5" y="-140.8" font-family="Times,serif" font-size="14.00">y0</text>
<polyline fill="none" stroke="black" points="1792.5,-126.5 1792.5,-162.5 "/>
<text text-anchor="middle" x="1832.5" y="-140.8" font-family="Times,serif" font-size="14.00">data 1.0000</text>
<polyline fill="none" stroke="black" points="1872.5,-126.5 1872.5,-162.5 "/>
<text text-anchor="middle" x="1913.5" y="-140.8" font-family="Times,serif" font-size="14.00">grad 0.5532</text>
</g>
<!-- 140306462348992+ -->
<g id="node50" class="node">
<title>140306462348992+</title>
<ellipse fill="none" stroke="black" cx="2022" cy="-125.5" rx="27" ry="18"/>
<text text-anchor="middle" x="2022" y="-121.8" font-family="Times,serif" font-size="14.00">+</text>
</g>
<!-- 140306462349328&#45;&gt;140306462348992+ -->
<g id="edge53" class="edge">
<title>140306462349328&#45;&gt;140306462348992+</title>
<path fill="none" stroke="black" d="M1954.85,-133.28C1965.66,-132.01 1976.12,-130.78 1985.4,-129.69"/>
<polygon fill="black" stroke="black" points="1985.82,-133.16 1995.34,-128.52 1985,-126.21 1985.82,-133.16"/>
</g>
<!-- 140306462351392 -->
<g id="node2" class="node">
<title>140306462351392</title>
<polygon fill="none" stroke="black" points="1431.5,-285.5 1431.5,-321.5 1622.5,-321.5 1622.5,-285.5 1431.5,-285.5"/>
<text text-anchor="middle" x="1441.5" y="-299.8" font-family="Times,serif" font-size="14.00"> </text>
<polyline fill="none" stroke="black" points="1451.5,-285.5 1451.5,-321.5 "/>
<text text-anchor="middle" x="1494" y="-299.8" font-family="Times,serif" font-size="14.00">data &#45;1.0000</text>
<polyline fill="none" stroke="black" points="1536.5,-285.5 1536.5,-321.5 "/>
<text text-anchor="middle" x="1579.5" y="-299.8" font-family="Times,serif" font-size="14.00">grad &#45;0.9405</text>
</g>
<!-- 140306462346592* -->
<g id="node41" class="node">
<title>140306462346592*</title>
<ellipse fill="none" stroke="black" cx="1695" cy="-268.5" rx="27" ry="18"/>
<text text-anchor="middle" x="1695" y="-264.8" font-family="Times,serif" font-size="14.00">*</text>
</g>
<!-- 140306462351392&#45;&gt;140306462346592* -->
<g id="edge37" class="edge">
<title>140306462351392&#45;&gt;140306462346592*</title>
<path fill="none" stroke="black" d="M1613.43,-285.49C1629.48,-282.1 1645.4,-278.75 1658.81,-275.92"/>
<polygon fill="black" stroke="black" points="1659.91,-279.27 1668.97,-273.78 1658.46,-272.42 1659.91,-279.27"/>
</g>
<!-- 140306462351440 -->
<g id="node3" class="node">
<title>140306462351440</title>
<polygon fill="none" stroke="black" points="31.5,-158.5 31.5,-194.5 227.5,-194.5 227.5,-158.5 31.5,-158.5"/>
<text text-anchor="middle" x="46.5" y="-172.8" font-family="Times,serif" font-size="14.00">x0</text>
<polyline fill="none" stroke="black" points="61.5,-158.5 61.5,-194.5 "/>
<text text-anchor="middle" x="101.5" y="-172.8" font-family="Times,serif" font-size="14.00">data 0.1000</text>
<polyline fill="none" stroke="black" points="141.5,-158.5 141.5,-194.5 "/>
<text text-anchor="middle" x="184.5" y="-172.8" font-family="Times,serif" font-size="14.00">grad &#45;0.9400</text>
</g>
<!-- 140306462357968* -->
<g id="node13" class="node">
<title>140306462357968*</title>
<ellipse fill="none" stroke="black" cx="322" cy="-272.5" rx="27" ry="18"/>
<text text-anchor="middle" x="322" y="-268.8" font-family="Times,serif" font-size="14.00">*</text>
</g>
<!-- 140306462351440&#45;&gt;140306462357968* -->
<g id="edge24" class="edge">
<title>140306462351440&#45;&gt;140306462357968*</title>
<path fill="none" stroke="black" d="M166.33,-194.56C202.39,-212.73 257.36,-240.43 291.13,-257.45"/>
<polygon fill="black" stroke="black" points="289.56,-260.58 300.07,-261.95 292.71,-254.32 289.56,-260.58"/>
</g>
<!-- 140306462343712* -->
<g id="node18" class="node">
<title>140306462343712*</title>
<ellipse fill="none" stroke="black" cx="322" cy="-39.5" rx="27" ry="18"/>
<text text-anchor="middle" x="322" y="-35.8" font-family="Times,serif" font-size="14.00">*</text>
</g>
<!-- 140306462351440&#45;&gt;140306462343712* -->
<g id="edge26" class="edge">
<title>140306462351440&#45;&gt;140306462343712*</title>
<path fill="none" stroke="black" d="M155.8,-158.31C191.96,-132.3 258.12,-84.72 294.79,-58.35"/>
<polygon fill="black" stroke="black" points="296.93,-61.12 303.01,-52.44 292.85,-55.44 296.93,-61.12"/>
</g>
<!-- 140306462353504 -->
<g id="node4" class="node">
<title>140306462353504</title>
<polygon fill="none" stroke="black" points="1088,-230.5 1088,-266.5 1294,-266.5 1294,-230.5 1088,-230.5"/>
<text text-anchor="middle" x="1110" y="-244.8" font-family="Times,serif" font-size="14.00">L1z1</text>
<polyline fill="none" stroke="black" points="1132,-230.5 1132,-266.5 "/>
<text text-anchor="middle" x="1172" y="-244.8" font-family="Times,serif" font-size="14.00">data 0.6794</text>
<polyline fill="none" stroke="black" points="1212,-230.5 1212,-266.5 "/>
<text text-anchor="middle" x="1253" y="-244.8" font-family="Times,serif" font-size="14.00">grad 1.0352</text>
</g>
<!-- 140306462352160tanh -->
<g id="node30" class="node">
<title>140306462352160tanh</title>
<ellipse fill="none" stroke="black" cx="1359" cy="-248.5" rx="27" ry="18"/>
<text text-anchor="middle" x="1359" y="-244.8" font-family="Times,serif" font-size="14.00">tanh</text>
</g>
<!-- 140306462353504&#45;&gt;140306462352160tanh -->
<g id="edge43" class="edge">
<title>140306462353504&#45;&gt;140306462352160tanh</title>
<path fill="none" stroke="black" d="M1294.29,-248.5C1304.05,-248.5 1313.43,-248.5 1321.86,-248.5"/>
<polygon fill="black" stroke="black" points="1321.97,-252 1331.97,-248.5 1321.97,-245 1321.97,-252"/>
</g>
<!-- 140306462353504+ -->
<g id="node5" class="node">
<title>140306462353504+</title>
<ellipse fill="none" stroke="black" cx="1023" cy="-248.5" rx="27" ry="18"/>
<text text-anchor="middle" x="1023" y="-244.8" font-family="Times,serif" font-size="14.00">+</text>
</g>
<!-- 140306462353504+&#45;&gt;140306462353504 -->
<g id="edge1" class="edge">
<title>140306462353504+&#45;&gt;140306462353504</title>
<path fill="none" stroke="black" d="M1050.3,-248.5C1058.33,-248.5 1067.7,-248.5 1077.73,-248.5"/>
<polygon fill="black" stroke="black" points="1077.95,-252 1087.95,-248.5 1077.95,-245 1077.95,-252"/>
</g>
<!-- 140306462357632 -->
<g id="node6" class="node">
<title>140306462357632</title>
<polygon fill="none" stroke="red" points="385,-110.5 385,-146.5 643,-146.5 643,-110.5 385,-110.5"/>
<text text-anchor="middle" x="431" y="-124.8" font-family="Times,serif" font-size="14.00">L0w1&#45;&gt;L1w0</text>
<polyline fill="none" stroke="red" points="477,-110.5 477,-146.5 "/>
<text text-anchor="middle" x="517" y="-124.8" font-family="Times,serif" font-size="14.00">data 0.6177</text>
<polyline fill="none" stroke="red" points="557,-110.5 557,-146.5 "/>
<text text-anchor="middle" x="600" y="-124.8" font-family="Times,serif" font-size="14.00">grad &#45;0.3985</text>
</g>
<!-- 140306462358160* -->
<g id="node24" class="node">
<title>140306462358160*</title>
<ellipse fill="none" stroke="black" cx="706" cy="-128.5" rx="27" ry="18"/>
<text text-anchor="middle" x="706" y="-124.8" font-family="Times,serif" font-size="14.00">*</text>
</g>
<!-- 140306462357632&#45;&gt;140306462358160* -->
<g id="edge35" class="edge">
<title>140306462357632&#45;&gt;140306462358160*</title>
<path fill="none" stroke="black" d="M643.05,-128.5C652.25,-128.5 660.97,-128.5 668.82,-128.5"/>
<polygon fill="black" stroke="black" points="668.93,-132 678.93,-128.5 668.93,-125 668.93,-132"/>
</g>
<!-- 140306462353600 -->
<g id="node7" class="node">
<title>140306462353600</title>
<polygon fill="none" stroke="red" points="406,-55.5 406,-91.5 622,-91.5 622,-55.5 406,-55.5"/>
<text text-anchor="middle" x="428.5" y="-69.8" font-family="Times,serif" font-size="14.00">L1b0</text>
<polyline fill="none" stroke="red" points="451,-55.5 451,-91.5 "/>
<text text-anchor="middle" x="493.5" y="-69.8" font-family="Times,serif" font-size="14.00">data &#45;0.1240</text>
<polyline fill="none" stroke="red" points="536,-55.5 536,-91.5 "/>
<text text-anchor="middle" x="579" y="-69.8" font-family="Times,serif" font-size="14.00">grad &#45;0.4428</text>
</g>
<!-- 140306462348416+ -->
<g id="node33" class="node">
<title>140306462348416+</title>
<ellipse fill="none" stroke="black" cx="706" cy="-73.5" rx="27" ry="18"/>
<text text-anchor="middle" x="706" y="-69.8" font-family="Times,serif" font-size="14.00">+</text>
</g>
<!-- 140306462353600&#45;&gt;140306462348416+ -->
<g id="edge41" class="edge">
<title>140306462353600&#45;&gt;140306462348416+</title>
<path fill="none" stroke="black" d="M622.22,-73.5C638.82,-73.5 654.92,-73.5 668.44,-73.5"/>
<polygon fill="black" stroke="black" points="668.68,-77 678.68,-73.5 668.68,-70 668.68,-77"/>
</g>
<!-- 140306462343424 -->
<g id="node8" class="node">
<title>140306462343424</title>
<polygon fill="none" stroke="black" points="2620,-213.5 2620,-249.5 2802,-249.5 2802,-213.5 2620,-213.5"/>
<text text-anchor="middle" x="2630" y="-227.8" font-family="Times,serif" font-size="14.00"> </text>
<polyline fill="none" stroke="black" points="2640,-213.5 2640,-249.5 "/>
<text text-anchor="middle" x="2680" y="-227.8" font-family="Times,serif" font-size="14.00">data 2.5316</text>
<polyline fill="none" stroke="black" points="2720,-213.5 2720,-249.5 "/>
<text text-anchor="middle" x="2761" y="-227.8" font-family="Times,serif" font-size="14.00">grad 0.5000</text>
</g>
<!-- 140306462348896+ -->
<g id="node46" class="node">
<title>140306462348896+</title>
<ellipse fill="none" stroke="black" cx="3083" cy="-203.5" rx="27" ry="18"/>
<text text-anchor="middle" x="3083" y="-199.8" font-family="Times,serif" font-size="14.00">+</text>
</g>
<!-- 140306462343424&#45;&gt;140306462348896+ -->
<g id="edge47" class="edge">
<title>140306462343424&#45;&gt;140306462348896+</title>
<path fill="none" stroke="black" d="M2802.04,-224.69C2880.41,-218.76 2989.98,-210.46 3045.96,-206.23"/>
<polygon fill="black" stroke="black" points="3046.39,-209.7 3056.1,-205.46 3045.86,-202.72 3046.39,-209.7"/>
</g>
<!-- 140306462343424**2 -->
<g id="node9" class="node">
<title>140306462343424**2</title>
<ellipse fill="none" stroke="black" cx="2339" cy="-231.5" rx="27" ry="18"/>
<text text-anchor="middle" x="2339" y="-227.8" font-family="Times,serif" font-size="14.00">**2</text>
</g>
<!-- 140306462343424**2&#45;&gt;140306462343424 -->
<g id="edge2" class="edge">
<title>140306462343424**2&#45;&gt;140306462343424</title>
<path fill="none" stroke="black" d="M2366.02,-231.5C2415.84,-231.5 2527.08,-231.5 2609.65,-231.5"/>
<polygon fill="black" stroke="black" points="2609.82,-235 2619.82,-231.5 2609.82,-228 2609.82,-235"/>
</g>
<!-- 140306462353744 -->
<g id="node10" class="node">
<title>140306462353744</title>
<polygon fill="none" stroke="red" points="408,-330.5 408,-366.5 620,-366.5 620,-330.5 408,-330.5"/>
<text text-anchor="middle" x="430.5" y="-344.8" font-family="Times,serif" font-size="14.00">L1b1</text>
<polyline fill="none" stroke="red" points="453,-330.5 453,-366.5 "/>
<text text-anchor="middle" x="495.5" y="-344.8" font-family="Times,serif" font-size="14.00">data &#45;0.1362</text>
<polyline fill="none" stroke="red" points="538,-330.5 538,-366.5 "/>
<text text-anchor="middle" x="579" y="-344.8" font-family="Times,serif" font-size="14.00">grad 1.0352</text>
</g>
<!-- 140306462354176+ -->
<g id="node28" class="node">
<title>140306462354176+</title>
<ellipse fill="none" stroke="black" cx="706" cy="-293.5" rx="27" ry="18"/>
<text text-anchor="middle" x="706" y="-289.8" font-family="Times,serif" font-size="14.00">+</text>
</g>
<!-- 140306462353744&#45;&gt;140306462354176+ -->
<g id="edge39" class="edge">
<title>140306462353744&#45;&gt;140306462354176+</title>
<path fill="none" stroke="black" d="M607.86,-330.44C619.78,-327.46 631.75,-324.14 643,-320.5 653.47,-317.11 664.59,-312.58 674.47,-308.2"/>
<polygon fill="black" stroke="black" points="676.23,-311.25 683.88,-303.92 673.33,-304.88 676.23,-311.25"/>
</g>
<!-- 140306462353792 -->
<g id="node11" class="node">
<title>140306462353792</title>
<polygon fill="none" stroke="red" points="0.5,-21.5 0.5,-57.5 258.5,-57.5 258.5,-21.5 0.5,-21.5"/>
<text text-anchor="middle" x="46.5" y="-35.8" font-family="Times,serif" font-size="14.00">L0w0&#45;&gt;L1w0</text>
<polyline fill="none" stroke="red" points="92.5,-21.5 92.5,-57.5 "/>
<text text-anchor="middle" x="132.5" y="-35.8" font-family="Times,serif" font-size="14.00">data 0.4868</text>
<polyline fill="none" stroke="red" points="172.5,-21.5 172.5,-57.5 "/>
<text text-anchor="middle" x="215.5" y="-35.8" font-family="Times,serif" font-size="14.00">grad &#45;0.0443</text>
</g>
<!-- 140306462353792&#45;&gt;140306462343712* -->
<g id="edge42" class="edge">
<title>140306462353792&#45;&gt;140306462343712*</title>
<path fill="none" stroke="black" d="M258.62,-39.5C267.88,-39.5 276.66,-39.5 284.56,-39.5"/>
<polygon fill="black" stroke="black" points="284.74,-43 294.74,-39.5 284.74,-36 284.74,-43"/>
</g>
<!-- 140306462357968 -->
<g id="node12" class="node">
<title>140306462357968</title>
<polygon fill="none" stroke="black" points="420.5,-275.5 420.5,-311.5 607.5,-311.5 607.5,-275.5 420.5,-275.5"/>
<text text-anchor="middle" x="430.5" y="-289.8" font-family="Times,serif" font-size="14.00"> </text>
<polyline fill="none" stroke="black" points="440.5,-275.5 440.5,-311.5 "/>
<text text-anchor="middle" x="483" y="-289.8" font-family="Times,serif" font-size="14.00">data &#45;0.0700</text>
<polyline fill="none" stroke="black" points="525.5,-275.5 525.5,-311.5 "/>
<text text-anchor="middle" x="566.5" y="-289.8" font-family="Times,serif" font-size="14.00">grad 1.0352</text>
</g>
<!-- 140306462357968&#45;&gt;140306462354176+ -->
<g id="edge40" class="edge">
<title>140306462357968&#45;&gt;140306462354176+</title>
<path fill="none" stroke="black" d="M607.77,-293.5C629.3,-293.5 650.99,-293.5 668.4,-293.5"/>
<polygon fill="black" stroke="black" points="668.64,-297 678.64,-293.5 668.64,-290 668.64,-297"/>
</g>
<!-- 140306462357968*&#45;&gt;140306462357968 -->
<g id="edge3" class="edge">
<title>140306462357968*&#45;&gt;140306462357968</title>
<path fill="none" stroke="black" d="M349.02,-275.38C365.31,-277.18 387.47,-279.63 410.23,-282.14"/>
<polygon fill="black" stroke="black" points="410.03,-285.64 420.36,-283.26 410.8,-278.68 410.03,-285.64"/>
</g>
<!-- 140306462343664 -->
<g id="node14" class="node">
<title>140306462343664</title>
<polygon fill="none" stroke="black" points="2085,-213.5 2085,-249.5 2276,-249.5 2276,-213.5 2085,-213.5"/>
<text text-anchor="middle" x="2095" y="-227.8" font-family="Times,serif" font-size="14.00"> </text>
<polyline fill="none" stroke="black" points="2105,-213.5 2105,-249.5 "/>
<text text-anchor="middle" x="2147.5" y="-227.8" font-family="Times,serif" font-size="14.00">data &#45;1.5911</text>
<polyline fill="none" stroke="black" points="2190,-213.5 2190,-249.5 "/>
<text text-anchor="middle" x="2233" y="-227.8" font-family="Times,serif" font-size="14.00">grad &#45;1.5911</text>
</g>
<!-- 140306462343664&#45;&gt;140306462343424**2 -->
<g id="edge20" class="edge">
<title>140306462343664&#45;&gt;140306462343424**2</title>
<path fill="none" stroke="black" d="M2276.15,-231.5C2285.09,-231.5 2293.73,-231.5 2301.57,-231.5"/>
<polygon fill="black" stroke="black" points="2301.73,-235 2311.73,-231.5 2301.73,-228 2301.73,-235"/>
</g>
<!-- 140306462343664+ -->
<g id="node15" class="node">
<title>140306462343664+</title>
<ellipse fill="none" stroke="black" cx="2022" cy="-231.5" rx="27" ry="18"/>
<text text-anchor="middle" x="2022" y="-227.8" font-family="Times,serif" font-size="14.00">+</text>
</g>
<!-- 140306462343664+&#45;&gt;140306462343664 -->
<g id="edge4" class="edge">
<title>140306462343664+&#45;&gt;140306462343664</title>
<path fill="none" stroke="black" d="M2049.19,-231.5C2056.67,-231.5 2065.31,-231.5 2074.51,-231.5"/>
<polygon fill="black" stroke="black" points="2074.68,-235 2084.68,-231.5 2074.68,-228 2074.68,-235"/>
</g>
<!-- 140306462347792 -->
<g id="node16" class="node">
<title>140306462347792</title>
<polygon fill="#c9c9c9" stroke="#c9c9c9" points="2402,-162.5 2402,-198.5 2584,-198.5 2584,-162.5 2402,-162.5"/>
<text text-anchor="middle" x="2412" y="-176.8" font-family="Times,serif" font-size="14.00"> </text>
<polyline fill="none" stroke="#c9c9c9" points="2422,-162.5 2422,-198.5 "/>
<text text-anchor="middle" x="2462" y="-176.8" font-family="Times,serif" font-size="14.00">data 0.0000</text>
<polyline fill="none" stroke="#c9c9c9" points="2502,-162.5 2502,-198.5 "/>
<text text-anchor="middle" x="2543" y="-176.8" font-family="Times,serif" font-size="14.00">grad 0.5000</text>
</g>
<!-- 140306462347984+ -->
<g id="node26" class="node">
<title>140306462347984+</title>
<ellipse fill="none" stroke="black" cx="2711" cy="-176.5" rx="27" ry="18"/>
<text text-anchor="middle" x="2711" y="-172.8" font-family="Times,serif" font-size="14.00">+</text>
</g>
<!-- 140306462347792&#45;&gt;140306462347984+ -->
<g id="edge29" class="edge">
<title>140306462347792&#45;&gt;140306462347984+</title>
<path fill="none" stroke="black" d="M2584.04,-178.83C2615.5,-178.25 2649.05,-177.63 2673.61,-177.17"/>
<polygon fill="black" stroke="black" points="2673.95,-180.67 2683.89,-176.98 2673.83,-173.67 2673.95,-180.67"/>
</g>
<!-- 140306462343712 -->
<g id="node17" class="node">
<title>140306462343712</title>
<polygon fill="none" stroke="black" points="421,-0.5 421,-36.5 607,-36.5 607,-0.5 421,-0.5"/>
<text text-anchor="middle" x="431" y="-14.8" font-family="Times,serif" font-size="14.00"> </text>
<polyline fill="none" stroke="black" points="441,-0.5 441,-36.5 "/>
<text text-anchor="middle" x="481" y="-14.8" font-family="Times,serif" font-size="14.00">data 0.0487</text>
<polyline fill="none" stroke="black" points="521,-0.5 521,-36.5 "/>
<text text-anchor="middle" x="564" y="-14.8" font-family="Times,serif" font-size="14.00">grad &#45;0.4428</text>
</g>
<!-- 140306462343712&#45;&gt;140306462348416+ -->
<g id="edge27" class="edge">
<title>140306462343712&#45;&gt;140306462348416+</title>
<path fill="none" stroke="black" d="M607.23,-35.45C619.37,-38.41 631.56,-41.76 643,-45.5 653.72,-49.01 665.07,-53.79 675.08,-58.41"/>
<polygon fill="black" stroke="black" points="673.68,-61.62 684.22,-62.75 676.68,-55.3 673.68,-61.62"/>
</g>
<!-- 140306462343712*&#45;&gt;140306462343712 -->
<g id="edge5" class="edge">
<title>140306462343712*&#45;&gt;140306462343712</title>
<path fill="none" stroke="black" d="M349.02,-36.62C365.4,-34.81 387.71,-32.35 410.6,-29.82"/>
<polygon fill="black" stroke="black" points="411.23,-33.27 420.78,-28.69 410.46,-26.31 411.23,-33.27"/>
</g>
<!-- 140306462358064 -->
<g id="node19" class="node">
<title>140306462358064</title>
<polygon fill="none" stroke="black" points="1422,-99.5 1422,-135.5 1632,-135.5 1632,-99.5 1422,-99.5"/>
<text text-anchor="middle" x="1444" y="-113.8" font-family="Times,serif" font-size="14.00">L1a0</text>
<polyline fill="none" stroke="black" points="1466,-99.5 1466,-135.5 "/>
<text text-anchor="middle" x="1506" y="-113.8" font-family="Times,serif" font-size="14.00">data 0.4468</text>
<polyline fill="none" stroke="black" points="1546,-99.5 1546,-135.5 "/>
<text text-anchor="middle" x="1589" y="-113.8" font-family="Times,serif" font-size="14.00">grad &#45;0.5532</text>
</g>
<!-- 140306462350480* -->
<g id="node35" class="node">
<title>140306462350480*</title>
<ellipse fill="none" stroke="black" cx="1695" cy="-89.5" rx="27" ry="18"/>
<text text-anchor="middle" x="1695" y="-85.8" font-family="Times,serif" font-size="14.00">*</text>
</g>
<!-- 140306462358064&#45;&gt;140306462350480* -->
<g id="edge46" class="edge">
<title>140306462358064&#45;&gt;140306462350480*</title>
<path fill="none" stroke="black" d="M1632.19,-99.93C1641.52,-98.35 1650.47,-96.84 1658.51,-95.49"/>
<polygon fill="black" stroke="black" points="1659.26,-98.91 1668.53,-93.8 1658.09,-92.01 1659.26,-98.91"/>
</g>
<!-- 140306462358064tanh -->
<g id="node20" class="node">
<title>140306462358064tanh</title>
<ellipse fill="none" stroke="black" cx="1359" cy="-117.5" rx="27" ry="18"/>
<text text-anchor="middle" x="1359" y="-113.8" font-family="Times,serif" font-size="14.00">tanh</text>
</g>
<!-- 140306462358064tanh&#45;&gt;140306462358064 -->
<g id="edge6" class="edge">
<title>140306462358064tanh&#45;&gt;140306462358064</title>
<path fill="none" stroke="black" d="M1386.3,-117.5C1393.76,-117.5 1402.38,-117.5 1411.6,-117.5"/>
<polygon fill="black" stroke="black" points="1411.83,-121 1421.83,-117.5 1411.83,-114 1411.83,-121"/>
</g>
<!-- 140306462358112 -->
<g id="node21" class="node">
<title>140306462358112</title>
<polygon fill="none" stroke="black" points="1086,-99.5 1086,-135.5 1296,-135.5 1296,-99.5 1086,-99.5"/>
<text text-anchor="middle" x="1108" y="-113.8" font-family="Times,serif" font-size="14.00">L1z0</text>
<polyline fill="none" stroke="black" points="1130,-99.5 1130,-135.5 "/>
<text text-anchor="middle" x="1170" y="-113.8" font-family="Times,serif" font-size="14.00">data 0.4807</text>
<polyline fill="none" stroke="black" points="1210,-99.5 1210,-135.5 "/>
<text text-anchor="middle" x="1253" y="-113.8" font-family="Times,serif" font-size="14.00">grad &#45;0.4428</text>
</g>
<!-- 140306462358112&#45;&gt;140306462358064tanh -->
<g id="edge49" class="edge">
<title>140306462358112&#45;&gt;140306462358064tanh</title>
<path fill="none" stroke="black" d="M1296.19,-117.5C1305.23,-117.5 1313.92,-117.5 1321.78,-117.5"/>
<polygon fill="black" stroke="black" points="1321.93,-121 1331.93,-117.5 1321.93,-114 1321.93,-121"/>
</g>
<!-- 140306462358112+ -->
<g id="node22" class="node">
<title>140306462358112+</title>
<ellipse fill="none" stroke="black" cx="1023" cy="-117.5" rx="27" ry="18"/>
<text text-anchor="middle" x="1023" y="-113.8" font-family="Times,serif" font-size="14.00">+</text>
</g>
<!-- 140306462358112+&#45;&gt;140306462358112 -->
<g id="edge7" class="edge">
<title>140306462358112+&#45;&gt;140306462358112</title>
<path fill="none" stroke="black" d="M1050.3,-117.5C1057.76,-117.5 1066.38,-117.5 1075.6,-117.5"/>
<polygon fill="black" stroke="black" points="1075.83,-121 1085.83,-117.5 1075.83,-114 1075.83,-121"/>
</g>
<!-- 140306462358160 -->
<g id="node23" class="node">
<title>140306462358160</title>
<polygon fill="none" stroke="black" points="771.5,-110.5 771.5,-146.5 957.5,-146.5 957.5,-110.5 771.5,-110.5"/>
<text text-anchor="middle" x="781.5" y="-124.8" font-family="Times,serif" font-size="14.00"> </text>
<polyline fill="none" stroke="black" points="791.5,-110.5 791.5,-146.5 "/>
<text text-anchor="middle" x="831.5" y="-124.8" font-family="Times,serif" font-size="14.00">data 0.5560</text>
<polyline fill="none" stroke="black" points="871.5,-110.5 871.5,-146.5 "/>
<text text-anchor="middle" x="914.5" y="-124.8" font-family="Times,serif" font-size="14.00">grad &#45;0.4428</text>
</g>
<!-- 140306462358160&#45;&gt;140306462358112+ -->
<g id="edge34" class="edge">
<title>140306462358160&#45;&gt;140306462358112+</title>
<path fill="none" stroke="black" d="M957.89,-122.01C967.67,-121.32 977.13,-120.65 985.66,-120.05"/>
<polygon fill="black" stroke="black" points="986.18,-123.53 995.91,-119.33 985.69,-116.54 986.18,-123.53"/>
</g>
<!-- 140306462358160*&#45;&gt;140306462358160 -->
<g id="edge8" class="edge">
<title>140306462358160*&#45;&gt;140306462358160</title>
<path fill="none" stroke="black" d="M733.19,-128.5C741.35,-128.5 750.89,-128.5 761.03,-128.5"/>
<polygon fill="black" stroke="black" points="761.35,-132 771.35,-128.5 761.35,-125 761.35,-132"/>
</g>
<!-- 140306462347984 -->
<g id="node25" class="node">
<title>140306462347984</title>
<polygon fill="none" stroke="black" points="2838,-162.5 2838,-198.5 3020,-198.5 3020,-162.5 2838,-162.5"/>
<text text-anchor="middle" x="2848" y="-176.8" font-family="Times,serif" font-size="14.00"> </text>
<polyline fill="none" stroke="black" points="2858,-162.5 2858,-198.5 "/>
<text text-anchor="middle" x="2898" y="-176.8" font-family="Times,serif" font-size="14.00">data 0.3060</text>
<polyline fill="none" stroke="black" points="2938,-162.5 2938,-198.5 "/>
<text text-anchor="middle" x="2979" y="-176.8" font-family="Times,serif" font-size="14.00">grad 0.5000</text>
</g>
<!-- 140306462347984&#45;&gt;140306462348896+ -->
<g id="edge22" class="edge">
<title>140306462347984&#45;&gt;140306462348896+</title>
<path fill="none" stroke="black" d="M3020.18,-194.15C3029.42,-195.54 3038.38,-196.9 3046.47,-198.12"/>
<polygon fill="black" stroke="black" points="3046.15,-201.61 3056.56,-199.65 3047.19,-194.69 3046.15,-201.61"/>
</g>
<!-- 140306462347984+&#45;&gt;140306462347984 -->
<g id="edge9" class="edge">
<title>140306462347984+&#45;&gt;140306462347984</title>
<path fill="none" stroke="black" d="M2738.05,-176.98C2760.53,-177.4 2794.48,-178.03 2827.5,-178.64"/>
<polygon fill="black" stroke="black" points="2827.64,-182.14 2837.7,-178.83 2827.77,-175.14 2827.64,-182.14"/>
</g>
<!-- 140306462354176 -->
<g id="node27" class="node">
<title>140306462354176</title>
<polygon fill="none" stroke="black" points="771,-275.5 771,-311.5 958,-311.5 958,-275.5 771,-275.5"/>
<text text-anchor="middle" x="781" y="-289.8" font-family="Times,serif" font-size="14.00"> </text>
<polyline fill="none" stroke="black" points="791,-275.5 791,-311.5 "/>
<text text-anchor="middle" x="833.5" y="-289.8" font-family="Times,serif" font-size="14.00">data &#45;0.2062</text>
<polyline fill="none" stroke="black" points="876,-275.5 876,-311.5 "/>
<text text-anchor="middle" x="917" y="-289.8" font-family="Times,serif" font-size="14.00">grad 1.0352</text>
</g>
<!-- 140306462354176&#45;&gt;140306462353504+ -->
<g id="edge52" class="edge">
<title>140306462354176&#45;&gt;140306462353504+</title>
<path fill="none" stroke="black" d="M928.25,-275.46C948.73,-269.57 970.67,-263.26 988.18,-258.22"/>
<polygon fill="black" stroke="black" points="989.29,-261.55 997.93,-255.42 987.35,-254.82 989.29,-261.55"/>
</g>
<!-- 140306462354176+&#45;&gt;140306462354176 -->
<g id="edge10" class="edge">
<title>140306462354176+&#45;&gt;140306462354176</title>
<path fill="none" stroke="black" d="M733.19,-293.5C741.22,-293.5 750.59,-293.5 760.55,-293.5"/>
<polygon fill="black" stroke="black" points="760.68,-297 770.68,-293.5 760.68,-290 760.68,-297"/>
</g>
<!-- 140306462352160 -->
<g id="node29" class="node">
<title>140306462352160</title>
<polygon fill="none" stroke="black" points="1424,-230.5 1424,-266.5 1630,-266.5 1630,-230.5 1424,-230.5"/>
<text text-anchor="middle" x="1446" y="-244.8" font-family="Times,serif" font-size="14.00">L1a1</text>
<polyline fill="none" stroke="black" points="1468,-230.5 1468,-266.5 "/>
<text text-anchor="middle" x="1508" y="-244.8" font-family="Times,serif" font-size="14.00">data 0.5911</text>
<polyline fill="none" stroke="black" points="1548,-230.5 1548,-266.5 "/>
<text text-anchor="middle" x="1589" y="-244.8" font-family="Times,serif" font-size="14.00">grad 1.5911</text>
</g>
<!-- 140306462352160&#45;&gt;140306462346592* -->
<g id="edge50" class="edge">
<title>140306462352160&#45;&gt;140306462346592*</title>
<path fill="none" stroke="black" d="M1630.29,-260.82C1640.15,-262.01 1649.61,-263.15 1658.1,-264.17"/>
<polygon fill="black" stroke="black" points="1657.93,-267.68 1668.28,-265.4 1658.77,-260.73 1657.93,-267.68"/>
</g>
<!-- 140306462352160tanh&#45;&gt;140306462352160 -->
<g id="edge11" class="edge">
<title>140306462352160tanh&#45;&gt;140306462352160</title>
<path fill="none" stroke="black" d="M1386.3,-248.5C1394.33,-248.5 1403.7,-248.5 1413.73,-248.5"/>
<polygon fill="black" stroke="black" points="1413.95,-252 1423.95,-248.5 1413.95,-245 1413.95,-252"/>
</g>
<!-- 140306462358544 -->
<g id="node31" class="node">
<title>140306462358544</title>
<polygon fill="none" stroke="red" points="387,-220.5 387,-256.5 641,-256.5 641,-220.5 387,-220.5"/>
<text text-anchor="middle" x="433" y="-234.8" font-family="Times,serif" font-size="14.00">L0w1&#45;&gt;L1w1</text>
<polyline fill="none" stroke="red" points="479,-220.5 479,-256.5 "/>
<text text-anchor="middle" x="519" y="-234.8" font-family="Times,serif" font-size="14.00">data 0.9839</text>
<polyline fill="none" stroke="red" points="559,-220.5 559,-256.5 "/>
<text text-anchor="middle" x="600" y="-234.8" font-family="Times,serif" font-size="14.00">grad 0.9316</text>
</g>
<!-- 140306462355136* -->
<g id="node48" class="node">
<title>140306462355136*</title>
<ellipse fill="none" stroke="black" cx="706" cy="-238.5" rx="27" ry="18"/>
<text text-anchor="middle" x="706" y="-234.8" font-family="Times,serif" font-size="14.00">*</text>
</g>
<!-- 140306462358544&#45;&gt;140306462355136* -->
<g id="edge33" class="edge">
<title>140306462358544&#45;&gt;140306462355136*</title>
<path fill="none" stroke="black" d="M641.2,-238.5C650.93,-238.5 660.16,-238.5 668.42,-238.5"/>
<polygon fill="black" stroke="black" points="668.7,-242 678.7,-238.5 668.7,-235 668.7,-242"/>
</g>
<!-- 140306462348416 -->
<g id="node32" class="node">
<title>140306462348416</title>
<polygon fill="none" stroke="black" points="769,-55.5 769,-91.5 960,-91.5 960,-55.5 769,-55.5"/>
<text text-anchor="middle" x="779" y="-69.8" font-family="Times,serif" font-size="14.00"> </text>
<polyline fill="none" stroke="black" points="789,-55.5 789,-91.5 "/>
<text text-anchor="middle" x="831.5" y="-69.8" font-family="Times,serif" font-size="14.00">data &#45;0.0753</text>
<polyline fill="none" stroke="black" points="874,-55.5 874,-91.5 "/>
<text text-anchor="middle" x="917" y="-69.8" font-family="Times,serif" font-size="14.00">grad &#45;0.4428</text>
</g>
<!-- 140306462348416&#45;&gt;140306462358112+ -->
<g id="edge21" class="edge">
<title>140306462348416&#45;&gt;140306462358112+</title>
<path fill="none" stroke="black" d="M929.61,-91.52C949.46,-97.11 970.57,-103.04 987.59,-107.83"/>
<polygon fill="black" stroke="black" points="987.04,-111.31 997.61,-110.64 988.93,-104.57 987.04,-111.31"/>
</g>
<!-- 140306462348416+&#45;&gt;140306462348416 -->
<g id="edge12" class="edge">
<title>140306462348416+&#45;&gt;140306462348416</title>
<path fill="none" stroke="black" d="M733.19,-73.5C740.67,-73.5 749.31,-73.5 758.51,-73.5"/>
<polygon fill="black" stroke="black" points="758.68,-77 768.68,-73.5 758.68,-70 758.68,-77"/>
</g>
<!-- 140306462350480 -->
<g id="node34" class="node">
<title>140306462350480</title>
<polygon fill="none" stroke="black" points="1765,-71.5 1765,-107.5 1952,-107.5 1952,-71.5 1765,-71.5"/>
<text text-anchor="middle" x="1775" y="-85.8" font-family="Times,serif" font-size="14.00"> </text>
<polyline fill="none" stroke="black" points="1785,-71.5 1785,-107.5 "/>
<text text-anchor="middle" x="1827.5" y="-85.8" font-family="Times,serif" font-size="14.00">data &#45;0.4468</text>
<polyline fill="none" stroke="black" points="1870,-71.5 1870,-107.5 "/>
<text text-anchor="middle" x="1911" y="-85.8" font-family="Times,serif" font-size="14.00">grad 0.5532</text>
</g>
<!-- 140306462350480&#45;&gt;140306462348992+ -->
<g id="edge25" class="edge">
<title>140306462350480&#45;&gt;140306462348992+</title>
<path fill="none" stroke="black" d="M1940.72,-107.61C1956.87,-111.21 1973,-114.8 1986.51,-117.81"/>
<polygon fill="black" stroke="black" points="1985.77,-121.23 1996.29,-119.99 1987.3,-114.4 1985.77,-121.23"/>
</g>
<!-- 140306462350480*&#45;&gt;140306462350480 -->
<g id="edge13" class="edge">
<title>140306462350480*&#45;&gt;140306462350480</title>
<path fill="none" stroke="black" d="M1722.31,-89.5C1731.66,-89.5 1742.85,-89.5 1754.72,-89.5"/>
<polygon fill="black" stroke="black" points="1754.83,-93 1764.83,-89.5 1754.83,-86 1754.83,-93"/>
</g>
<!-- 140306462348560 -->
<g id="node36" class="node">
<title>140306462348560</title>
<polygon fill="none" stroke="black" points="3454,-212.5 3454,-248.5 3686,-248.5 3686,-212.5 3454,-212.5"/>
<text text-anchor="middle" x="3489" y="-226.8" font-family="Times,serif" font-size="14.00">MSE loss</text>
<polyline fill="none" stroke="black" points="3524,-212.5 3524,-248.5 "/>
<text text-anchor="middle" x="3564" y="-226.8" font-family="Times,serif" font-size="14.00">data 1.4188</text>
<polyline fill="none" stroke="black" points="3604,-212.5 3604,-248.5 "/>
<text text-anchor="middle" x="3645" y="-226.8" font-family="Times,serif" font-size="14.00">grad 1.0000</text>
</g>
<!-- 140306462348560* -->
<g id="node37" class="node">
<title>140306462348560*</title>
<ellipse fill="none" stroke="black" cx="3391" cy="-230.5" rx="27" ry="18"/>
<text text-anchor="middle" x="3391" y="-226.8" font-family="Times,serif" font-size="14.00">*</text>
</g>
<!-- 140306462348560*&#45;&gt;140306462348560 -->
<g id="edge14" class="edge">
<title>140306462348560*&#45;&gt;140306462348560</title>
<path fill="none" stroke="black" d="M3418.12,-230.5C3425.53,-230.5 3434.14,-230.5 3443.4,-230.5"/>
<polygon fill="black" stroke="black" points="3443.69,-234 3453.69,-230.5 3443.69,-227 3443.69,-234"/>
</g>
<!-- 140306462348608 -->
<g id="node38" class="node">
<title>140306462348608</title>
<polygon fill="none" stroke="black" points="3146,-240.5 3146,-276.5 3328,-276.5 3328,-240.5 3146,-240.5"/>
<text text-anchor="middle" x="3156" y="-254.8" font-family="Times,serif" font-size="14.00"> </text>
<polyline fill="none" stroke="black" points="3166,-240.5 3166,-276.5 "/>
<text text-anchor="middle" x="3206" y="-254.8" font-family="Times,serif" font-size="14.00">data 0.5000</text>
<polyline fill="none" stroke="black" points="3246,-240.5 3246,-276.5 "/>
<text text-anchor="middle" x="3287" y="-254.8" font-family="Times,serif" font-size="14.00">grad 2.8376</text>
</g>
<!-- 140306462348608&#45;&gt;140306462348560* -->
<g id="edge30" class="edge">
<title>140306462348608&#45;&gt;140306462348560*</title>
<path fill="none" stroke="black" d="M3328.18,-241.89C3337.61,-240.15 3346.75,-238.47 3354.98,-236.95"/>
<polygon fill="black" stroke="black" points="3355.66,-240.39 3364.86,-235.13 3354.39,-233.5 3355.66,-240.39"/>
</g>
<!-- 140306462350672 -->
<g id="node39" class="node">
<title>140306462350672</title>
<polygon fill="none" stroke="black" points="1433.5,-44.5 1433.5,-80.5 1620.5,-80.5 1620.5,-44.5 1433.5,-44.5"/>
<text text-anchor="middle" x="1443.5" y="-58.8" font-family="Times,serif" font-size="14.00"> </text>
<polyline fill="none" stroke="black" points="1453.5,-44.5 1453.5,-80.5 "/>
<text text-anchor="middle" x="1496" y="-58.8" font-family="Times,serif" font-size="14.00">data &#45;1.0000</text>
<polyline fill="none" stroke="black" points="1538.5,-44.5 1538.5,-80.5 "/>
<text text-anchor="middle" x="1579.5" y="-58.8" font-family="Times,serif" font-size="14.00">grad 0.2472</text>
</g>
<!-- 140306462350672&#45;&gt;140306462350480* -->
<g id="edge28" class="edge">
<title>140306462350672&#45;&gt;140306462350480*</title>
<path fill="none" stroke="black" d="M1620.71,-77.58C1634.24,-79.78 1647.42,-81.92 1658.79,-83.77"/>
<polygon fill="black" stroke="black" points="1658.25,-87.23 1668.68,-85.38 1659.37,-80.32 1658.25,-87.23"/>
</g>
<!-- 140306462346592 -->
<g id="node40" class="node">
<title>140306462346592</title>
<polygon fill="none" stroke="black" points="1763,-250.5 1763,-286.5 1954,-286.5 1954,-250.5 1763,-250.5"/>
<text text-anchor="middle" x="1773" y="-264.8" font-family="Times,serif" font-size="14.00"> </text>
<polyline fill="none" stroke="black" points="1783,-250.5 1783,-286.5 "/>
<text text-anchor="middle" x="1825.5" y="-264.8" font-family="Times,serif" font-size="14.00">data &#45;0.5911</text>
<polyline fill="none" stroke="black" points="1868,-250.5 1868,-286.5 "/>
<text text-anchor="middle" x="1911" y="-264.8" font-family="Times,serif" font-size="14.00">grad &#45;1.5911</text>
</g>
<!-- 140306462346592&#45;&gt;140306462343664+ -->
<g id="edge51" class="edge">
<title>140306462346592&#45;&gt;140306462343664+</title>
<path fill="none" stroke="black" d="M1938.36,-250.43C1955.24,-246.57 1972.23,-242.67 1986.38,-239.43"/>
<polygon fill="black" stroke="black" points="1987.17,-242.84 1996.14,-237.2 1985.61,-236.02 1987.17,-242.84"/>
</g>
<!-- 140306462346592*&#45;&gt;140306462346592 -->
<g id="edge15" class="edge">
<title>140306462346592*&#45;&gt;140306462346592</title>
<path fill="none" stroke="black" d="M1722.31,-268.5C1731.07,-268.5 1741.43,-268.5 1752.45,-268.5"/>
<polygon fill="black" stroke="black" points="1752.74,-272 1762.74,-268.5 1752.74,-265 1752.74,-272"/>
</g>
<!-- 140306462348848 -->
<g id="node42" class="node">
<title>140306462348848</title>
<polygon fill="none" stroke="black" points="2402,-107.5 2402,-143.5 2584,-143.5 2584,-107.5 2402,-107.5"/>
<text text-anchor="middle" x="2412" y="-121.8" font-family="Times,serif" font-size="14.00"> </text>
<polyline fill="none" stroke="black" points="2422,-107.5 2422,-143.5 "/>
<text text-anchor="middle" x="2462" y="-121.8" font-family="Times,serif" font-size="14.00">data 0.3060</text>
<polyline fill="none" stroke="black" points="2502,-107.5 2502,-143.5 "/>
<text text-anchor="middle" x="2543" y="-121.8" font-family="Times,serif" font-size="14.00">grad 0.5000</text>
</g>
<!-- 140306462348848&#45;&gt;140306462347984+ -->
<g id="edge31" class="edge">
<title>140306462348848&#45;&gt;140306462347984+</title>
<path fill="none" stroke="black" d="M2570.46,-143.55C2606.34,-152.03 2647.32,-161.7 2675.54,-168.36"/>
<polygon fill="black" stroke="black" points="2674.79,-171.78 2685.33,-170.67 2676.4,-164.97 2674.79,-171.78"/>
</g>
<!-- 140306462348848**2 -->
<g id="node43" class="node">
<title>140306462348848**2</title>
<ellipse fill="none" stroke="black" cx="2339" cy="-125.5" rx="27" ry="18"/>
<text text-anchor="middle" x="2339" y="-121.8" font-family="Times,serif" font-size="14.00">**2</text>
</g>
<!-- 140306462348848**2&#45;&gt;140306462348848 -->
<g id="edge16" class="edge">
<title>140306462348848**2&#45;&gt;140306462348848</title>
<path fill="none" stroke="black" d="M2366.13,-125.5C2373.67,-125.5 2382.39,-125.5 2391.64,-125.5"/>
<polygon fill="black" stroke="black" points="2391.87,-129 2401.87,-125.5 2391.87,-122 2391.87,-129"/>
</g>
<!-- 140306462357056 -->
<g id="node44" class="node">
<title>140306462357056</title>
<polygon fill="none" stroke="red" points="0,-254.5 0,-290.5 259,-290.5 259,-254.5 0,-254.5"/>
<text text-anchor="middle" x="46" y="-268.8" font-family="Times,serif" font-size="14.00">L0w0&#45;&gt;L1w1</text>
<polyline fill="none" stroke="red" points="92,-254.5 92,-290.5 "/>
<text text-anchor="middle" x="134.5" y="-268.8" font-family="Times,serif" font-size="14.00">data &#45;0.6999</text>
<polyline fill="none" stroke="red" points="177,-254.5 177,-290.5 "/>
<text text-anchor="middle" x="218" y="-268.8" font-family="Times,serif" font-size="14.00">grad 0.1035</text>
</g>
<!-- 140306462357056&#45;&gt;140306462357968* -->
<g id="edge48" class="edge">
<title>140306462357056&#45;&gt;140306462357968*</title>
<path fill="none" stroke="black" d="M259.15,-272.5C268.34,-272.5 277.05,-272.5 284.89,-272.5"/>
<polygon fill="black" stroke="black" points="284.98,-276 294.98,-272.5 284.98,-269 284.98,-276"/>
</g>
<!-- 140306462348896 -->
<g id="node45" class="node">
<title>140306462348896</title>
<polygon fill="none" stroke="black" points="3146,-185.5 3146,-221.5 3328,-221.5 3328,-185.5 3146,-185.5"/>
<text text-anchor="middle" x="3156" y="-199.8" font-family="Times,serif" font-size="14.00"> </text>
<polyline fill="none" stroke="black" points="3166,-185.5 3166,-221.5 "/>
<text text-anchor="middle" x="3206" y="-199.8" font-family="Times,serif" font-size="14.00">data 2.8376</text>
<polyline fill="none" stroke="black" points="3246,-185.5 3246,-221.5 "/>
<text text-anchor="middle" x="3287" y="-199.8" font-family="Times,serif" font-size="14.00">grad 0.5000</text>
</g>
<!-- 140306462348896&#45;&gt;140306462348560* -->
<g id="edge23" class="edge">
<title>140306462348896&#45;&gt;140306462348560*</title>
<path fill="none" stroke="black" d="M3328.18,-219.52C3337.42,-221.16 3346.38,-222.75 3354.47,-224.19"/>
<polygon fill="black" stroke="black" points="3354.1,-227.68 3364.56,-225.98 3355.32,-220.79 3354.1,-227.68"/>
</g>
<!-- 140306462348896+&#45;&gt;140306462348896 -->
<g id="edge17" class="edge">
<title>140306462348896+&#45;&gt;140306462348896</title>
<path fill="none" stroke="black" d="M3110.13,-203.5C3117.67,-203.5 3126.39,-203.5 3135.64,-203.5"/>
<polygon fill="black" stroke="black" points="3135.87,-207 3145.87,-203.5 3135.87,-200 3135.87,-207"/>
</g>
<!-- 140306462355136 -->
<g id="node47" class="node">
<title>140306462355136</title>
<polygon fill="none" stroke="black" points="773.5,-220.5 773.5,-256.5 955.5,-256.5 955.5,-220.5 773.5,-220.5"/>
<text text-anchor="middle" x="783.5" y="-234.8" font-family="Times,serif" font-size="14.00"> </text>
<polyline fill="none" stroke="black" points="793.5,-220.5 793.5,-256.5 "/>
<text text-anchor="middle" x="833.5" y="-234.8" font-family="Times,serif" font-size="14.00">data 0.8855</text>
<polyline fill="none" stroke="black" points="873.5,-220.5 873.5,-256.5 "/>
<text text-anchor="middle" x="914.5" y="-234.8" font-family="Times,serif" font-size="14.00">grad 1.0352</text>
</g>
<!-- 140306462355136&#45;&gt;140306462353504+ -->
<g id="edge44" class="edge">
<title>140306462355136&#45;&gt;140306462353504+</title>
<path fill="none" stroke="black" d="M955.63,-244.26C966.18,-244.93 976.43,-245.59 985.6,-246.17"/>
<polygon fill="black" stroke="black" points="985.61,-249.68 995.82,-246.83 986.06,-242.7 985.61,-249.68"/>
</g>
<!-- 140306462355136*&#45;&gt;140306462355136 -->
<g id="edge18" class="edge">
<title>140306462355136*&#45;&gt;140306462355136</title>
<path fill="none" stroke="black" d="M733.19,-238.5C741.92,-238.5 752.23,-238.5 763.17,-238.5"/>
<polygon fill="black" stroke="black" points="763.36,-242 773.36,-238.5 763.36,-235 763.36,-242"/>
</g>
<!-- 140306462348992 -->
<g id="node49" class="node">
<title>140306462348992</title>
<polygon fill="none" stroke="black" points="2089.5,-107.5 2089.5,-143.5 2271.5,-143.5 2271.5,-107.5 2089.5,-107.5"/>
<text text-anchor="middle" x="2099.5" y="-121.8" font-family="Times,serif" font-size="14.00"> </text>
<polyline fill="none" stroke="black" points="2109.5,-107.5 2109.5,-143.5 "/>
<text text-anchor="middle" x="2149.5" y="-121.8" font-family="Times,serif" font-size="14.00">data 0.5532</text>
<polyline fill="none" stroke="black" points="2189.5,-107.5 2189.5,-143.5 "/>
<text text-anchor="middle" x="2230.5" y="-121.8" font-family="Times,serif" font-size="14.00">grad 0.5532</text>
</g>
<!-- 140306462348992&#45;&gt;140306462348848**2 -->
<g id="edge36" class="edge">
<title>140306462348992&#45;&gt;140306462348848**2</title>
<path fill="none" stroke="black" d="M2271.63,-125.5C2282.18,-125.5 2292.43,-125.5 2301.6,-125.5"/>
<polygon fill="black" stroke="black" points="2301.82,-129 2311.82,-125.5 2301.82,-122 2301.82,-129"/>
</g>
<!-- 140306462348992+&#45;&gt;140306462348992 -->
<g id="edge19" class="edge">
<title>140306462348992+&#45;&gt;140306462348992</title>
<path fill="none" stroke="black" d="M2049.19,-125.5C2057.92,-125.5 2068.23,-125.5 2079.17,-125.5"/>
<polygon fill="black" stroke="black" points="2079.36,-129 2089.36,-125.5 2079.36,-122 2079.36,-129"/>
</g>
<!-- 140306462349280 -->
<g id="node51" class="node">
<title>140306462349280</title>
<polygon fill="none" stroke="black" points="1758,-195.5 1758,-231.5 1959,-231.5 1959,-195.5 1758,-195.5"/>
<text text-anchor="middle" x="1773" y="-209.8" font-family="Times,serif" font-size="14.00">y1</text>
<polyline fill="none" stroke="black" points="1788,-195.5 1788,-231.5 "/>
<text text-anchor="middle" x="1830.5" y="-209.8" font-family="Times,serif" font-size="14.00">data &#45;1.0000</text>
<polyline fill="none" stroke="black" points="1873,-195.5 1873,-231.5 "/>
<text text-anchor="middle" x="1916" y="-209.8" font-family="Times,serif" font-size="14.00">grad &#45;1.5911</text>
</g>
<!-- 140306462349280&#45;&gt;140306462343664+ -->
<g id="edge45" class="edge">
<title>140306462349280&#45;&gt;140306462343664+</title>
<path fill="none" stroke="black" d="M1959.02,-224.59C1968.23,-225.62 1977.09,-226.61 1985.09,-227.5"/>
<polygon fill="black" stroke="black" points="1984.75,-230.98 1995.07,-228.61 1985.52,-224.02 1984.75,-230.98"/>
</g>
<!-- 140306462357488 -->
<g id="node52" class="node">
<title>140306462357488</title>
<polygon fill="none" stroke="black" points="418,-165.5 418,-201.5 610,-201.5 610,-165.5 418,-165.5"/>
<text text-anchor="middle" x="433" y="-179.8" font-family="Times,serif" font-size="14.00">x1</text>
<polyline fill="none" stroke="black" points="448,-165.5 448,-201.5 "/>
<text text-anchor="middle" x="488" y="-179.8" font-family="Times,serif" font-size="14.00">data 0.9000</text>
<polyline fill="none" stroke="black" points="528,-165.5 528,-201.5 "/>
<text text-anchor="middle" x="569" y="-179.8" font-family="Times,serif" font-size="14.00">grad 0.7450</text>
</g>
<!-- 140306462357488&#45;&gt;140306462358160* -->
<g id="edge38" class="edge">
<title>140306462357488&#45;&gt;140306462358160*</title>
<path fill="none" stroke="black" d="M607.86,-165.44C619.78,-162.46 631.75,-159.14 643,-155.5 653.47,-152.11 664.59,-147.58 674.47,-143.2"/>
<polygon fill="black" stroke="black" points="676.23,-146.25 683.88,-138.92 673.33,-139.88 676.23,-146.25"/>
</g>
<!-- 140306462357488&#45;&gt;140306462355136* -->
<g id="edge32" class="edge">
<title>140306462357488&#45;&gt;140306462355136*</title>
<path fill="none" stroke="black" d="M610.32,-201.21C621.43,-203.98 632.53,-207.08 643,-210.5 653.72,-214.01 665.07,-218.79 675.08,-223.41"/>
<polygon fill="black" stroke="black" points="673.68,-226.62 684.22,-227.75 676.68,-220.3 673.68,-226.62"/>
</g>
</g>
</svg>
