<?xml version="1.0" encoding="UTF-8" standalone="no"?>
<!DOCTYPE svg PUBLIC "-//W3C//DTD SVG 1.1//EN"
 "http://www.w3.org/Graphics/SVG/1.1/DTD/svg11.dtd">
<!-- Generated by graphviz version 2.50.0 (0)
 -->
<!-- Pages: 1 -->
<svg width="1132pt" height="210pt"
 viewBox="0.00 0.00 1132.00 210.00" xmlns="http://www.w3.org/2000/svg" xmlns:xlink="http://www.w3.org/1999/xlink">
<g id="graph0" class="graph" transform="scale(1 1) rotate(0) translate(4 206)">
<polygon fill="white" stroke="transparent" points="-4,4 -4,-206 1128,-206 1128,4 -4,4"/>
<!-- 140528200400032 -->
<g id="node1" class="node">
<title>140528200400032</title>
<polygon fill="none" stroke="grey" points="313,-55.5 313,-91.5 495,-91.5 495,-55.5 313,-55.5"/>
<text text-anchor="middle" x="323" y="-69.8" font-family="Times,serif" font-size="14.00" fill="grey"> </text>
<polyline fill="none" stroke="grey" points="333,-55.5 333,-91.5 "/>
<text text-anchor="middle" x="373" y="-69.8" font-family="Times,serif" font-size="14.00" fill="grey">data 0.2300</text>
<polyline fill="none" stroke="grey" points="413,-55.5 413,-91.5 "/>
<text text-anchor="middle" x="454" y="-69.8" font-family="Times,serif" font-size="14.00" fill="grey">grad 0.0000</text>
</g>
<!-- 140528200398256log -->
<g id="node12" class="node">
<title>140528200398256log</title>
<ellipse fill="none" stroke="black" cx="558" cy="-73.5" rx="27" ry="18"/>
<text text-anchor="middle" x="558" y="-69.8" font-family="Times,serif" font-size="14.00">log</text>
</g>
<!-- 140528200400032&#45;&gt;140528200398256log -->
<g id="edge12" class="edge">
<title>140528200400032&#45;&gt;140528200398256log</title>
<path fill="none" stroke="black" d="M495.18,-73.5C504.14,-73.5 512.83,-73.5 520.73,-73.5"/>
<polygon fill="black" stroke="black" points="520.96,-77 530.96,-73.5 520.96,-70 520.96,-77"/>
</g>
<!-- 140528200400032+ -->
<g id="node2" class="node">
<title>140528200400032+</title>
<ellipse fill="none" stroke="black" cx="250" cy="-73.5" rx="27" ry="18"/>
<text text-anchor="middle" x="250" y="-69.8" font-family="Times,serif" font-size="14.00">+</text>
</g>
<!-- 140528200400032+&#45;&gt;140528200400032 -->
<g id="edge1" class="edge">
<title>140528200400032+&#45;&gt;140528200400032</title>
<path fill="none" stroke="black" d="M277.13,-73.5C284.67,-73.5 293.39,-73.5 302.64,-73.5"/>
<polygon fill="black" stroke="black" points="302.87,-77 312.87,-73.5 302.87,-70 302.87,-77"/>
</g>
<!-- 140528200390864 -->
<g id="node3" class="node">
<title>140528200390864</title>
<polygon fill="none" stroke="grey" points="313,-110.5 313,-146.5 495,-146.5 495,-110.5 313,-110.5"/>
<text text-anchor="middle" x="323" y="-124.8" font-family="Times,serif" font-size="14.00" fill="grey"> </text>
<polyline fill="none" stroke="grey" points="333,-110.5 333,-146.5 "/>
<text text-anchor="middle" x="373" y="-124.8" font-family="Times,serif" font-size="14.00" fill="grey">data 0.0667</text>
<polyline fill="none" stroke="grey" points="413,-110.5 413,-146.5 "/>
<text text-anchor="middle" x="454" y="-124.8" font-family="Times,serif" font-size="14.00" fill="grey">grad 0.0000</text>
</g>
<!-- 140528200400224**2 -->
<g id="node7" class="node">
<title>140528200400224**2</title>
<ellipse fill="none" stroke="black" cx="558" cy="-128.5" rx="27" ry="18"/>
<text text-anchor="middle" x="558" y="-124.8" font-family="Times,serif" font-size="14.00">**2</text>
</g>
<!-- 140528200390864&#45;&gt;140528200400224**2 -->
<g id="edge11" class="edge">
<title>140528200390864&#45;&gt;140528200400224**2</title>
<path fill="none" stroke="black" d="M495.18,-128.5C504.14,-128.5 512.83,-128.5 520.73,-128.5"/>
<polygon fill="black" stroke="black" points="520.96,-132 530.96,-128.5 520.96,-125 520.96,-132"/>
</g>
<!-- 140528200390864* -->
<g id="node4" class="node">
<title>140528200390864*</title>
<ellipse fill="none" stroke="black" cx="250" cy="-128.5" rx="27" ry="18"/>
<text text-anchor="middle" x="250" y="-124.8" font-family="Times,serif" font-size="14.00">*</text>
</g>
<!-- 140528200390864*&#45;&gt;140528200390864 -->
<g id="edge2" class="edge">
<title>140528200390864*&#45;&gt;140528200390864</title>
<path fill="none" stroke="black" d="M277.13,-128.5C284.67,-128.5 293.39,-128.5 302.64,-128.5"/>
<polygon fill="black" stroke="black" points="302.87,-132 312.87,-128.5 302.87,-125 302.87,-132"/>
</g>
<!-- 140528200492336 -->
<g id="node5" class="node">
<title>140528200492336</title>
<polygon fill="none" stroke="grey" points="1,-165.5 1,-201.5 186,-201.5 186,-165.5 1,-165.5"/>
<text text-anchor="middle" x="12.5" y="-179.8" font-family="Times,serif" font-size="14.00" fill="grey">x</text>
<polyline fill="none" stroke="grey" points="24,-165.5 24,-201.5 "/>
<text text-anchor="middle" x="64" y="-179.8" font-family="Times,serif" font-size="14.00" fill="grey">data 0.2000</text>
<polyline fill="none" stroke="grey" points="104,-165.5 104,-201.5 "/>
<text text-anchor="middle" x="145" y="-179.8" font-family="Times,serif" font-size="14.00" fill="grey">grad 0.0000</text>
</g>
<!-- 140528200492336&#45;&gt;140528200390864* -->
<g id="edge10" class="edge">
<title>140528200492336&#45;&gt;140528200390864*</title>
<path fill="none" stroke="black" d="M160.56,-165.45C169.51,-162.64 178.53,-159.63 187,-156.5 197.49,-152.62 208.71,-147.78 218.68,-143.22"/>
<polygon fill="black" stroke="black" points="220.2,-146.37 227.79,-138.97 217.25,-140.02 220.2,-146.37"/>
</g>
<!-- 140528200400224 -->
<g id="node6" class="node">
<title>140528200400224</title>
<polygon fill="none" stroke="grey" points="623.5,-110.5 623.5,-146.5 805.5,-146.5 805.5,-110.5 623.5,-110.5"/>
<text text-anchor="middle" x="633.5" y="-124.8" font-family="Times,serif" font-size="14.00" fill="grey"> </text>
<polyline fill="none" stroke="grey" points="643.5,-110.5 643.5,-146.5 "/>
<text text-anchor="middle" x="683.5" y="-124.8" font-family="Times,serif" font-size="14.00" fill="grey">data 0.0044</text>
<polyline fill="none" stroke="grey" points="723.5,-110.5 723.5,-146.5 "/>
<text text-anchor="middle" x="764.5" y="-124.8" font-family="Times,serif" font-size="14.00" fill="grey">grad 0.0000</text>
</g>
<!-- 140528200399264+ -->
<g id="node10" class="node">
<title>140528200399264+</title>
<ellipse fill="none" stroke="black" cx="871" cy="-100.5" rx="27" ry="18"/>
<text text-anchor="middle" x="871" y="-96.8" font-family="Times,serif" font-size="14.00">+</text>
</g>
<!-- 140528200400224&#45;&gt;140528200399264+ -->
<g id="edge8" class="edge">
<title>140528200400224&#45;&gt;140528200399264+</title>
<path fill="none" stroke="black" d="M805.82,-112.13C816.07,-110.27 826.01,-108.47 834.88,-106.87"/>
<polygon fill="black" stroke="black" points="835.54,-110.3 844.75,-105.08 834.29,-103.42 835.54,-110.3"/>
</g>
<!-- 140528200400224**2&#45;&gt;140528200400224 -->
<g id="edge3" class="edge">
<title>140528200400224**2&#45;&gt;140528200400224</title>
<path fill="none" stroke="black" d="M585.21,-128.5C593.34,-128.5 602.85,-128.5 612.94,-128.5"/>
<polygon fill="black" stroke="black" points="613.19,-132 623.19,-128.5 613.19,-125 613.19,-132"/>
</g>
<!-- 140528200391104 -->
<g id="node8" class="node">
<title>140528200391104</title>
<polygon fill="none" stroke="grey" points="2.5,-110.5 2.5,-146.5 184.5,-146.5 184.5,-110.5 2.5,-110.5"/>
<text text-anchor="middle" x="12.5" y="-124.8" font-family="Times,serif" font-size="14.00" fill="grey"> </text>
<polyline fill="none" stroke="grey" points="22.5,-110.5 22.5,-146.5 "/>
<text text-anchor="middle" x="62.5" y="-124.8" font-family="Times,serif" font-size="14.00" fill="grey">data 0.3333</text>
<polyline fill="none" stroke="grey" points="102.5,-110.5 102.5,-146.5 "/>
<text text-anchor="middle" x="143.5" y="-124.8" font-family="Times,serif" font-size="14.00" fill="grey">grad 0.0000</text>
</g>
<!-- 140528200391104&#45;&gt;140528200390864* -->
<g id="edge9" class="edge">
<title>140528200391104&#45;&gt;140528200390864*</title>
<path fill="none" stroke="black" d="M184.82,-128.5C194.57,-128.5 204.04,-128.5 212.57,-128.5"/>
<polygon fill="black" stroke="black" points="212.83,-132 222.83,-128.5 212.83,-125 212.83,-132"/>
</g>
<!-- 140528200399264 -->
<g id="node9" class="node">
<title>140528200399264</title>
<polygon fill="none" stroke="grey" points="934,-82.5 934,-118.5 1124,-118.5 1124,-82.5 934,-82.5"/>
<text text-anchor="middle" x="945.5" y="-96.8" font-family="Times,serif" font-size="14.00" fill="grey">z</text>
<polyline fill="none" stroke="grey" points="957,-82.5 957,-118.5 "/>
<text text-anchor="middle" x="999.5" y="-96.8" font-family="Times,serif" font-size="14.00" fill="grey">data &#45;1.4652</text>
<polyline fill="none" stroke="grey" points="1042,-82.5 1042,-118.5 "/>
<text text-anchor="middle" x="1083" y="-96.8" font-family="Times,serif" font-size="14.00" fill="grey">grad 0.0000</text>
</g>
<!-- 140528200399264+&#45;&gt;140528200399264 -->
<g id="edge4" class="edge">
<title>140528200399264+&#45;&gt;140528200399264</title>
<path fill="none" stroke="black" d="M898.11,-100.5C905.63,-100.5 914.32,-100.5 923.58,-100.5"/>
<polygon fill="black" stroke="black" points="923.81,-104 933.81,-100.5 923.81,-97 923.81,-104"/>
</g>
<!-- 140528200398256 -->
<g id="node11" class="node">
<title>140528200398256</title>
<polygon fill="none" stroke="grey" points="621,-55.5 621,-91.5 808,-91.5 808,-55.5 621,-55.5"/>
<text text-anchor="middle" x="631" y="-69.8" font-family="Times,serif" font-size="14.00" fill="grey"> </text>
<polyline fill="none" stroke="grey" points="641,-55.5 641,-91.5 "/>
<text text-anchor="middle" x="683.5" y="-69.8" font-family="Times,serif" font-size="14.00" fill="grey">data &#45;1.4697</text>
<polyline fill="none" stroke="grey" points="726,-55.5 726,-91.5 "/>
<text text-anchor="middle" x="767" y="-69.8" font-family="Times,serif" font-size="14.00" fill="grey">grad 0.0000</text>
</g>
<!-- 140528200398256&#45;&gt;140528200399264+ -->
<g id="edge6" class="edge">
<title>140528200398256&#45;&gt;140528200399264+</title>
<path fill="none" stroke="black" d="M808.05,-89.67C817.34,-91.3 826.33,-92.87 834.44,-94.29"/>
<polygon fill="black" stroke="black" points="834.1,-97.78 844.55,-96.05 835.3,-90.88 834.1,-97.78"/>
</g>
<!-- 140528200398256log&#45;&gt;140528200398256 -->
<g id="edge5" class="edge">
<title>140528200398256log&#45;&gt;140528200398256</title>
<path fill="none" stroke="black" d="M585.21,-73.5C592.73,-73.5 601.43,-73.5 610.67,-73.5"/>
<polygon fill="black" stroke="black" points="610.89,-77 620.89,-73.5 610.89,-70 610.89,-77"/>
</g>
<!-- 140528200397728 -->
<g id="node13" class="node">
<title>140528200397728</title>
<polygon fill="none" stroke="grey" points="0,-55.5 0,-91.5 187,-91.5 187,-55.5 0,-55.5"/>
<text text-anchor="middle" x="10" y="-69.8" font-family="Times,serif" font-size="14.00" fill="grey"> </text>
<polyline fill="none" stroke="grey" points="20,-55.5 20,-91.5 "/>
<text text-anchor="middle" x="62.5" y="-69.8" font-family="Times,serif" font-size="14.00" fill="grey">data &#45;0.1200</text>
<polyline fill="none" stroke="grey" points="105,-55.5 105,-91.5 "/>
<text text-anchor="middle" x="146" y="-69.8" font-family="Times,serif" font-size="14.00" fill="grey">grad 0.0000</text>
</g>
<!-- 140528200397728&#45;&gt;140528200400032+ -->
<g id="edge13" class="edge">
<title>140528200397728&#45;&gt;140528200400032+</title>
<path fill="none" stroke="black" d="M187.05,-73.5C196.06,-73.5 204.79,-73.5 212.7,-73.5"/>
<polygon fill="black" stroke="black" points="212.95,-77 222.95,-73.5 212.95,-70 212.95,-77"/>
</g>
<!-- 140528200484848 -->
<g id="node14" class="node">
<title>140528200484848</title>
<polygon fill="none" stroke="grey" points="1,-0.5 1,-36.5 186,-36.5 186,-0.5 1,-0.5"/>
<text text-anchor="middle" x="12.5" y="-14.8" font-family="Times,serif" font-size="14.00" fill="grey">y</text>
<polyline fill="none" stroke="grey" points="24,-0.5 24,-36.5 "/>
<text text-anchor="middle" x="64" y="-14.8" font-family="Times,serif" font-size="14.00" fill="grey">data 0.3500</text>
<polyline fill="none" stroke="grey" points="104,-0.5 104,-36.5 "/>
<text text-anchor="middle" x="145" y="-14.8" font-family="Times,serif" font-size="14.00" fill="grey">grad 0.0000</text>
</g>
<!-- 140528200484848&#45;&gt;140528200400032+ -->
<g id="edge7" class="edge">
<title>140528200484848&#45;&gt;140528200400032+</title>
<path fill="none" stroke="black" d="M158.02,-36.65C167.79,-39.76 177.71,-43.08 187,-46.5 197.25,-50.27 208.23,-54.86 218.07,-59.18"/>
<polygon fill="black" stroke="black" points="216.89,-62.49 227.45,-63.37 219.74,-56.1 216.89,-62.49"/>
</g>
</g>
</svg>
