<?xml version="1.0" encoding="UTF-8" standalone="no"?>
<!DOCTYPE svg PUBLIC "-//W3C//DTD SVG 1.1//EN"
 "http://www.w3.org/Graphics/SVG/1.1/DTD/svg11.dtd">
<!-- Generated by graphviz version 2.50.0 (0)
 -->
<!-- Pages: 1 -->
<svg width="1140pt" height="210pt"
 viewBox="0.00 0.00 1140.00 210.00" xmlns="http://www.w3.org/2000/svg" xmlns:xlink="http://www.w3.org/1999/xlink">
<g id="graph0" class="graph" transform="scale(1 1) rotate(0) translate(4 206)">
<polygon fill="white" stroke="transparent" points="-4,4 -4,-206 1136,-206 1136,4 -4,4"/>
<!-- 140528200486432 -->
<g id="node1" class="node">
<title>140528200486432</title>
<polygon fill="none" stroke="black" points="0,-165.5 0,-201.5 191,-201.5 191,-165.5 0,-165.5"/>
<text text-anchor="middle" x="10" y="-179.8" font-family="Times,serif" font-size="14.00"> </text>
<polyline fill="none" stroke="black" points="20,-165.5 20,-201.5 "/>
<text text-anchor="middle" x="62.5" y="-179.8" font-family="Times,serif" font-size="14.00">data &#45;0.1200</text>
<polyline fill="none" stroke="black" points="105,-165.5 105,-201.5 "/>
<text text-anchor="middle" x="148" y="-179.8" font-family="Times,serif" font-size="14.00">grad &#45;0.6804</text>
</g>
<!-- 140528200488352+ -->
<g id="node13" class="node">
<title>140528200488352+</title>
<ellipse fill="none" stroke="black" cx="254" cy="-128.5" rx="27" ry="18"/>
<text text-anchor="middle" x="254" y="-124.8" font-family="Times,serif" font-size="14.00">+</text>
</g>
<!-- 140528200486432&#45;&gt;140528200488352+ -->
<g id="edge13" class="edge">
<title>140528200486432&#45;&gt;140528200488352+</title>
<path fill="none" stroke="black" d="M164.25,-165.44C173.31,-162.65 182.43,-159.64 191,-156.5 201.5,-152.65 212.72,-147.82 222.69,-143.25"/>
<polygon fill="black" stroke="black" points="224.22,-146.4 231.8,-139 221.26,-140.06 224.22,-146.4"/>
</g>
<!-- 140528200395856 -->
<g id="node2" class="node">
<title>140528200395856</title>
<polygon fill="none" stroke="black" points="629,-110.5 629,-146.5 816,-146.5 816,-110.5 629,-110.5"/>
<text text-anchor="middle" x="639" y="-124.8" font-family="Times,serif" font-size="14.00"> </text>
<polyline fill="none" stroke="black" points="649,-110.5 649,-146.5 "/>
<text text-anchor="middle" x="691.5" y="-124.8" font-family="Times,serif" font-size="14.00">data &#45;1.4697</text>
<polyline fill="none" stroke="black" points="734,-110.5 734,-146.5 "/>
<text text-anchor="middle" x="775" y="-124.8" font-family="Times,serif" font-size="14.00">grad 1.0000</text>
</g>
<!-- 140528200391776+ -->
<g id="node5" class="node">
<title>140528200391776+</title>
<ellipse fill="none" stroke="black" cx="879" cy="-100.5" rx="27" ry="18"/>
<text text-anchor="middle" x="879" y="-96.8" font-family="Times,serif" font-size="14.00">+</text>
</g>
<!-- 140528200395856&#45;&gt;140528200391776+ -->
<g id="edge9" class="edge">
<title>140528200395856&#45;&gt;140528200391776+</title>
<path fill="none" stroke="black" d="M816.05,-111.73C825.54,-110.01 834.71,-108.35 842.95,-106.85"/>
<polygon fill="black" stroke="black" points="843.64,-110.28 852.85,-105.06 842.39,-103.4 843.64,-110.28"/>
</g>
<!-- 140528200395856log -->
<g id="node3" class="node">
<title>140528200395856log</title>
<ellipse fill="none" stroke="black" cx="566" cy="-128.5" rx="27" ry="18"/>
<text text-anchor="middle" x="566" y="-124.8" font-family="Times,serif" font-size="14.00">log</text>
</g>
<!-- 140528200395856log&#45;&gt;140528200395856 -->
<g id="edge1" class="edge">
<title>140528200395856log&#45;&gt;140528200395856</title>
<path fill="none" stroke="black" d="M593.21,-128.5C600.73,-128.5 609.43,-128.5 618.67,-128.5"/>
<polygon fill="black" stroke="black" points="618.89,-132 628.89,-128.5 618.89,-125 618.89,-132"/>
</g>
<!-- 140528200391776 -->
<g id="node4" class="node">
<title>140528200391776</title>
<polygon fill="none" stroke="black" points="942,-82.5 942,-118.5 1132,-118.5 1132,-82.5 942,-82.5"/>
<text text-anchor="middle" x="953.5" y="-96.8" font-family="Times,serif" font-size="14.00">z</text>
<polyline fill="none" stroke="black" points="965,-82.5 965,-118.5 "/>
<text text-anchor="middle" x="1007.5" y="-96.8" font-family="Times,serif" font-size="14.00">data &#45;1.4652</text>
<polyline fill="none" stroke="black" points="1050,-82.5 1050,-118.5 "/>
<text text-anchor="middle" x="1091" y="-96.8" font-family="Times,serif" font-size="14.00">grad 1.0000</text>
</g>
<!-- 140528200391776+&#45;&gt;140528200391776 -->
<g id="edge2" class="edge">
<title>140528200391776+&#45;&gt;140528200391776</title>
<path fill="none" stroke="black" d="M906.11,-100.5C913.63,-100.5 922.32,-100.5 931.58,-100.5"/>
<polygon fill="black" stroke="black" points="931.81,-104 941.81,-100.5 931.81,-97 931.81,-104"/>
</g>
<!-- 140528200392352 -->
<g id="node6" class="node">
<title>140528200392352</title>
<polygon fill="none" stroke="black" points="631.5,-55.5 631.5,-91.5 813.5,-91.5 813.5,-55.5 631.5,-55.5"/>
<text text-anchor="middle" x="641.5" y="-69.8" font-family="Times,serif" font-size="14.00"> </text>
<polyline fill="none" stroke="black" points="651.5,-55.5 651.5,-91.5 "/>
<text text-anchor="middle" x="691.5" y="-69.8" font-family="Times,serif" font-size="14.00">data 0.0044</text>
<polyline fill="none" stroke="black" points="731.5,-55.5 731.5,-91.5 "/>
<text text-anchor="middle" x="772.5" y="-69.8" font-family="Times,serif" font-size="14.00">grad 1.0000</text>
</g>
<!-- 140528200392352&#45;&gt;140528200391776+ -->
<g id="edge10" class="edge">
<title>140528200392352&#45;&gt;140528200391776+</title>
<path fill="none" stroke="black" d="M813.82,-89.28C824.07,-91.08 834.01,-92.81 842.88,-94.36"/>
<polygon fill="black" stroke="black" points="842.3,-97.81 852.75,-96.09 843.5,-90.92 842.3,-97.81"/>
</g>
<!-- 140528200392352**2 -->
<g id="node7" class="node">
<title>140528200392352**2</title>
<ellipse fill="none" stroke="black" cx="566" cy="-73.5" rx="27" ry="18"/>
<text text-anchor="middle" x="566" y="-69.8" font-family="Times,serif" font-size="14.00">**2</text>
</g>
<!-- 140528200392352**2&#45;&gt;140528200392352 -->
<g id="edge3" class="edge">
<title>140528200392352**2&#45;&gt;140528200392352</title>
<path fill="none" stroke="black" d="M593.21,-73.5C601.34,-73.5 610.85,-73.5 620.94,-73.5"/>
<polygon fill="black" stroke="black" points="621.19,-77 631.19,-73.5 621.19,-70 621.19,-77"/>
</g>
<!-- 140528200485664 -->
<g id="node8" class="node">
<title>140528200485664</title>
<polygon fill="none" stroke="black" points="4.5,-55.5 4.5,-91.5 186.5,-91.5 186.5,-55.5 4.5,-55.5"/>
<text text-anchor="middle" x="14.5" y="-69.8" font-family="Times,serif" font-size="14.00"> </text>
<polyline fill="none" stroke="black" points="24.5,-55.5 24.5,-91.5 "/>
<text text-anchor="middle" x="64.5" y="-69.8" font-family="Times,serif" font-size="14.00">data 0.3333</text>
<polyline fill="none" stroke="black" points="104.5,-55.5 104.5,-91.5 "/>
<text text-anchor="middle" x="145.5" y="-69.8" font-family="Times,serif" font-size="14.00">grad 0.0267</text>
</g>
<!-- 140528200489360* -->
<g id="node11" class="node">
<title>140528200489360*</title>
<ellipse fill="none" stroke="black" cx="254" cy="-73.5" rx="27" ry="18"/>
<text text-anchor="middle" x="254" y="-69.8" font-family="Times,serif" font-size="14.00">*</text>
</g>
<!-- 140528200485664&#45;&gt;140528200489360* -->
<g id="edge7" class="edge">
<title>140528200485664&#45;&gt;140528200489360*</title>
<path fill="none" stroke="black" d="M186.63,-73.5C197.18,-73.5 207.43,-73.5 216.6,-73.5"/>
<polygon fill="black" stroke="black" points="216.82,-77 226.82,-73.5 216.82,-70 216.82,-77"/>
</g>
<!-- 140528200487728 -->
<g id="node9" class="node">
<title>140528200487728</title>
<polygon fill="none" stroke="black" points="3,-0.5 3,-36.5 188,-36.5 188,-0.5 3,-0.5"/>
<text text-anchor="middle" x="14.5" y="-14.8" font-family="Times,serif" font-size="14.00">x</text>
<polyline fill="none" stroke="black" points="26,-0.5 26,-36.5 "/>
<text text-anchor="middle" x="66" y="-14.8" font-family="Times,serif" font-size="14.00">data 0.2000</text>
<polyline fill="none" stroke="black" points="106,-0.5 106,-36.5 "/>
<text text-anchor="middle" x="147" y="-14.8" font-family="Times,serif" font-size="14.00">grad 0.0444</text>
</g>
<!-- 140528200487728&#45;&gt;140528200489360* -->
<g id="edge6" class="edge">
<title>140528200487728&#45;&gt;140528200489360*</title>
<path fill="none" stroke="black" d="M164.25,-36.56C173.31,-39.35 182.43,-42.36 191,-45.5 201.5,-49.35 212.72,-54.18 222.69,-58.75"/>
<polygon fill="black" stroke="black" points="221.26,-61.94 231.8,-63 224.22,-55.6 221.26,-61.94"/>
</g>
<!-- 140528200489360 -->
<g id="node10" class="node">
<title>140528200489360</title>
<polygon fill="none" stroke="black" points="319,-55.5 319,-91.5 501,-91.5 501,-55.5 319,-55.5"/>
<text text-anchor="middle" x="329" y="-69.8" font-family="Times,serif" font-size="14.00"> </text>
<polyline fill="none" stroke="black" points="339,-55.5 339,-91.5 "/>
<text text-anchor="middle" x="379" y="-69.8" font-family="Times,serif" font-size="14.00">data 0.0667</text>
<polyline fill="none" stroke="black" points="419,-55.5 419,-91.5 "/>
<text text-anchor="middle" x="460" y="-69.8" font-family="Times,serif" font-size="14.00">grad 0.1333</text>
</g>
<!-- 140528200489360&#45;&gt;140528200392352**2 -->
<g id="edge12" class="edge">
<title>140528200489360&#45;&gt;140528200392352**2</title>
<path fill="none" stroke="black" d="M501.03,-73.5C510.75,-73.5 520.18,-73.5 528.69,-73.5"/>
<polygon fill="black" stroke="black" points="528.91,-77 538.91,-73.5 528.91,-70 528.91,-77"/>
</g>
<!-- 140528200489360*&#45;&gt;140528200489360 -->
<g id="edge4" class="edge">
<title>140528200489360*&#45;&gt;140528200489360</title>
<path fill="none" stroke="black" d="M281.12,-73.5C289.23,-73.5 298.71,-73.5 308.76,-73.5"/>
<polygon fill="black" stroke="black" points="308.98,-77 318.98,-73.5 308.98,-70 308.98,-77"/>
</g>
<!-- 140528200488352 -->
<g id="node12" class="node">
<title>140528200488352</title>
<polygon fill="none" stroke="black" points="317,-110.5 317,-146.5 503,-146.5 503,-110.5 317,-110.5"/>
<text text-anchor="middle" x="327" y="-124.8" font-family="Times,serif" font-size="14.00"> </text>
<polyline fill="none" stroke="black" points="337,-110.5 337,-146.5 "/>
<text text-anchor="middle" x="377" y="-124.8" font-family="Times,serif" font-size="14.00">data 0.2300</text>
<polyline fill="none" stroke="black" points="417,-110.5 417,-146.5 "/>
<text text-anchor="middle" x="460" y="-124.8" font-family="Times,serif" font-size="14.00">grad &#45;0.6804</text>
</g>
<!-- 140528200488352&#45;&gt;140528200395856log -->
<g id="edge8" class="edge">
<title>140528200488352&#45;&gt;140528200395856log</title>
<path fill="none" stroke="black" d="M503.25,-128.5C512.15,-128.5 520.76,-128.5 528.59,-128.5"/>
<polygon fill="black" stroke="black" points="528.73,-132 538.73,-128.5 528.73,-125 528.73,-132"/>
</g>
<!-- 140528200488352+&#45;&gt;140528200488352 -->
<g id="edge5" class="edge">
<title>140528200488352+&#45;&gt;140528200488352</title>
<path fill="none" stroke="black" d="M281.12,-128.5C288.62,-128.5 297.29,-128.5 306.5,-128.5"/>
<polygon fill="black" stroke="black" points="306.69,-132 316.69,-128.5 306.69,-125 306.69,-132"/>
</g>
<!-- 140528200491472 -->
<g id="node14" class="node">
<title>140528200491472</title>
<polygon fill="none" stroke="black" points="1,-110.5 1,-146.5 190,-146.5 190,-110.5 1,-110.5"/>
<text text-anchor="middle" x="12.5" y="-124.8" font-family="Times,serif" font-size="14.00">y</text>
<polyline fill="none" stroke="black" points="24,-110.5 24,-146.5 "/>
<text text-anchor="middle" x="64" y="-124.8" font-family="Times,serif" font-size="14.00">data 0.3500</text>
<polyline fill="none" stroke="black" points="104,-110.5 104,-146.5 "/>
<text text-anchor="middle" x="147" y="-124.8" font-family="Times,serif" font-size="14.00">grad &#45;0.6804</text>
</g>
<!-- 140528200491472&#45;&gt;140528200488352+ -->
<g id="edge11" class="edge">
<title>140528200491472&#45;&gt;140528200488352+</title>
<path fill="none" stroke="black" d="M190.25,-128.5C199.57,-128.5 208.59,-128.5 216.74,-128.5"/>
<polygon fill="black" stroke="black" points="216.92,-132 226.92,-128.5 216.92,-125 216.92,-132"/>
</g>
</g>
</svg>
