<?xml version="1.0" encoding="UTF-8" standalone="no"?>
<!DOCTYPE svg PUBLIC "-//W3C//DTD SVG 1.1//EN"
 "http://www.w3.org/Graphics/SVG/1.1/DTD/svg11.dtd">
<!-- Generated by graphviz version 2.50.0 (0)
 -->
<!-- Pages: 1 -->
<svg width="1489pt" height="129pt"
 viewBox="0.00 0.00 1489.09 128.50" xmlns="http://www.w3.org/2000/svg" xmlns:xlink="http://www.w3.org/1999/xlink">
<g id="graph0" class="graph" transform="scale(1 1) rotate(0) translate(4 124.5)">
<polygon fill="white" stroke="transparent" points="-4,4 -4,-124.5 1485.09,-124.5 1485.09,4 -4,4"/>
<!-- 140528200489072 -->
<g id="node1" class="node">
<title>140528200489072</title>
<polygon fill="none" stroke="black" points="629,-29 629,-65 819,-65 819,-29 629,-29"/>
<text text-anchor="middle" x="640.5" y="-43.3" font-family="Times,serif" font-size="14.00">c</text>
<polyline fill="none" stroke="black" points="652,-29 652,-65 "/>
<text text-anchor="middle" x="694.5" y="-43.3" font-family="Times,serif" font-size="14.00">data &#45;0.2500</text>
<polyline fill="none" stroke="black" points="737,-29 737,-65 "/>
<text text-anchor="middle" x="778" y="-43.3" font-family="Times,serif" font-size="14.00">grad 0.0200</text>
</g>
<!-- 140528200485184* -->
<g id="node10" class="node">
<title>140528200485184*</title>
<ellipse fill="none" stroke="black" cx="882" cy="-23" rx="27" ry="18"/>
<text text-anchor="middle" x="882" y="-19.3" font-family="Times,serif" font-size="14.00">*</text>
</g>
<!-- 140528200489072&#45;&gt;140528200485184* -->
<g id="edge7" class="edge">
<title>140528200489072&#45;&gt;140528200485184*</title>
<path fill="none" stroke="black" d="M819.34,-32.49C828.54,-31.07 837.41,-29.71 845.42,-28.47"/>
<polygon fill="black" stroke="black" points="846.07,-31.92 855.42,-26.94 845,-25 846.07,-31.92"/>
</g>
<!-- 140528200489072* -->
<g id="node2" class="node">
<title>140528200489072*</title>
<ellipse fill="none" stroke="black" cx="566" cy="-47" rx="27" ry="18"/>
<text text-anchor="middle" x="566" y="-43.3" font-family="Times,serif" font-size="14.00">*</text>
</g>
<!-- 140528200489072*&#45;&gt;140528200489072 -->
<g id="edge1" class="edge">
<title>140528200489072*&#45;&gt;140528200489072</title>
<path fill="none" stroke="black" d="M593.11,-47C600.63,-47 609.32,-47 618.58,-47"/>
<polygon fill="black" stroke="black" points="618.81,-50.5 628.81,-47 618.81,-43.5 618.81,-50.5"/>
</g>
<!-- 140528200486528 -->
<g id="node3" class="node">
<title>140528200486528</title>
<polygon fill="none" stroke="black" points="0,-72 0,-108 190,-108 190,-72 0,-72"/>
<text text-anchor="middle" x="11.5" y="-86.3" font-family="Times,serif" font-size="14.00">a</text>
<polyline fill="none" stroke="black" points="23,-72 23,-108 "/>
<text text-anchor="middle" x="65.5" y="-86.3" font-family="Times,serif" font-size="14.00">data &#45;3.0000</text>
<polyline fill="none" stroke="black" points="108,-72 108,-108 "/>
<text text-anchor="middle" x="149" y="-86.3" font-family="Times,serif" font-size="14.00">grad 0.0050</text>
</g>
<!-- 140528200487680+ -->
<g id="node8" class="node">
<title>140528200487680+</title>
<ellipse fill="none" stroke="black" cx="253" cy="-90" rx="27" ry="18"/>
<text text-anchor="middle" x="253" y="-86.3" font-family="Times,serif" font-size="14.00">+</text>
</g>
<!-- 140528200486528&#45;&gt;140528200487680+ -->
<g id="edge8" class="edge">
<title>140528200486528&#45;&gt;140528200487680+</title>
<path fill="none" stroke="black" d="M190.34,-90C199.26,-90 207.87,-90 215.69,-90"/>
<polygon fill="black" stroke="black" points="215.82,-93.5 225.82,-90 215.82,-86.5 215.82,-93.5"/>
</g>
<!-- 140528200484464 -->
<g id="node4" class="node">
<title>140528200484464</title>
<polygon fill="none" stroke="black" points="1291.09,-5 1291.09,-41 1481.09,-41 1481.09,-5 1291.09,-5"/>
<text text-anchor="middle" x="1302.59" y="-19.3" font-family="Times,serif" font-size="14.00">d</text>
<polyline fill="none" stroke="black" points="1314.09,-5 1314.09,-41 "/>
<text text-anchor="middle" x="1356.59" y="-19.3" font-family="Times,serif" font-size="14.00">data &#45;0.0050</text>
<polyline fill="none" stroke="black" points="1399.09,-5 1399.09,-41 "/>
<text text-anchor="middle" x="1440.09" y="-19.3" font-family="Times,serif" font-size="14.00">grad 1.0000</text>
</g>
<!-- 140528200484464leakyrelu -->
<g id="node5" class="node">
<title>140528200484464leakyrelu</title>
<ellipse fill="none" stroke="black" cx="1211.55" cy="-23" rx="43.59" ry="18"/>
<text text-anchor="middle" x="1211.55" y="-19.3" font-family="Times,serif" font-size="14.00">leakyrelu</text>
</g>
<!-- 140528200484464leakyrelu&#45;&gt;140528200484464 -->
<g id="edge2" class="edge">
<title>140528200484464leakyrelu&#45;&gt;140528200484464</title>
<path fill="none" stroke="black" d="M1255.2,-23C1263.17,-23 1271.82,-23 1280.75,-23"/>
<polygon fill="black" stroke="black" points="1280.91,-26.5 1290.91,-23 1280.91,-19.5 1280.91,-26.5"/>
</g>
<!-- 140528200487536 -->
<g id="node6" class="node">
<title>140528200487536</title>
<polygon fill="none" stroke="black" points="2.5,-5 2.5,-41 187.5,-41 187.5,-5 2.5,-5"/>
<text text-anchor="middle" x="14" y="-19.3" font-family="Times,serif" font-size="14.00">b</text>
<polyline fill="none" stroke="black" points="25.5,-5 25.5,-41 "/>
<text text-anchor="middle" x="65.5" y="-19.3" font-family="Times,serif" font-size="14.00">data 2.0000</text>
<polyline fill="none" stroke="black" points="105.5,-5 105.5,-41 "/>
<text text-anchor="middle" x="146.5" y="-19.3" font-family="Times,serif" font-size="14.00">grad 0.0025</text>
</g>
<!-- 140528200487536&#45;&gt;140528200487680+ -->
<g id="edge5" class="edge">
<title>140528200487536&#45;&gt;140528200487680+</title>
<path fill="none" stroke="black" d="M140.59,-41.17C156.25,-47.64 173.95,-55.05 190,-62 200.08,-66.37 211.02,-71.25 220.86,-75.71"/>
<polygon fill="black" stroke="black" points="219.71,-79.03 230.27,-79.99 222.61,-72.66 219.71,-79.03"/>
</g>
<!-- 140528200487536&#45;&gt;140528200485184* -->
<g id="edge9" class="edge">
<title>140528200487536&#45;&gt;140528200485184*</title>
<path fill="none" stroke="black" d="M187.83,-12.68C250.02,-6.56 334.11,0 408.5,0 408.5,0 408.5,0 567,0 668.11,0 787.05,-12.01 845.26,-18.67"/>
<polygon fill="black" stroke="black" points="845.07,-22.17 855.4,-19.85 845.87,-15.22 845.07,-22.17"/>
</g>
<!-- 140528200487680 -->
<g id="node7" class="node">
<title>140528200487680</title>
<polygon fill="none" stroke="black" points="316,-84 316,-120 503,-120 503,-84 316,-84"/>
<text text-anchor="middle" x="326" y="-98.3" font-family="Times,serif" font-size="14.00"> </text>
<polyline fill="none" stroke="black" points="336,-84 336,-120 "/>
<text text-anchor="middle" x="378.5" y="-98.3" font-family="Times,serif" font-size="14.00">data &#45;1.0000</text>
<polyline fill="none" stroke="black" points="421,-84 421,-120 "/>
<text text-anchor="middle" x="462" y="-98.3" font-family="Times,serif" font-size="14.00">grad 0.0050</text>
</g>
<!-- 140528200487680&#45;&gt;140528200489072* -->
<g id="edge11" class="edge">
<title>140528200487680&#45;&gt;140528200489072*</title>
<path fill="none" stroke="black" d="M474.02,-83.85C483.79,-80.74 493.71,-77.42 503,-74 513.25,-70.23 524.23,-65.64 534.07,-61.32"/>
<polygon fill="black" stroke="black" points="535.74,-64.4 543.45,-57.13 532.89,-58.01 535.74,-64.4"/>
</g>
<!-- 140528200487680+&#45;&gt;140528200487680 -->
<g id="edge3" class="edge">
<title>140528200487680+&#45;&gt;140528200487680</title>
<path fill="none" stroke="black" d="M279.86,-92.01C287.51,-92.6 296.39,-93.29 305.84,-94.03"/>
<polygon fill="black" stroke="black" points="305.63,-97.52 315.87,-94.81 306.18,-90.54 305.63,-97.52"/>
</g>
<!-- 140528200485184 -->
<g id="node9" class="node">
<title>140528200485184</title>
<polygon fill="none" stroke="black" points="945,-5 945,-41 1132,-41 1132,-5 945,-5"/>
<text text-anchor="middle" x="955" y="-19.3" font-family="Times,serif" font-size="14.00"> </text>
<polyline fill="none" stroke="black" points="965,-5 965,-41 "/>
<text text-anchor="middle" x="1007.5" y="-19.3" font-family="Times,serif" font-size="14.00">data &#45;0.5000</text>
<polyline fill="none" stroke="black" points="1050,-5 1050,-41 "/>
<text text-anchor="middle" x="1091" y="-19.3" font-family="Times,serif" font-size="14.00">grad 0.0100</text>
</g>
<!-- 140528200485184&#45;&gt;140528200484464leakyrelu -->
<g id="edge6" class="edge">
<title>140528200485184&#45;&gt;140528200484464leakyrelu</title>
<path fill="none" stroke="black" d="M1132.03,-23C1140.78,-23 1149.42,-23 1157.6,-23"/>
<polygon fill="black" stroke="black" points="1157.68,-26.5 1167.68,-23 1157.68,-19.5 1157.68,-26.5"/>
</g>
<!-- 140528200485184*&#45;&gt;140528200485184 -->
<g id="edge4" class="edge">
<title>140528200485184*&#45;&gt;140528200485184</title>
<path fill="none" stroke="black" d="M909.21,-23C916.73,-23 925.43,-23 934.67,-23"/>
<polygon fill="black" stroke="black" points="934.89,-26.5 944.89,-23 934.89,-19.5 934.89,-26.5"/>
</g>
<!-- 140528200489312 -->
<g id="node11" class="node">
<title>140528200489312</title>
<polygon fill="none" stroke="black" points="316.5,-29 316.5,-65 502.5,-65 502.5,-29 316.5,-29"/>
<text text-anchor="middle" x="326.5" y="-43.3" font-family="Times,serif" font-size="14.00"> </text>
<polyline fill="none" stroke="black" points="336.5,-29 336.5,-65 "/>
<text text-anchor="middle" x="376.5" y="-43.3" font-family="Times,serif" font-size="14.00">data 0.2500</text>
<polyline fill="none" stroke="black" points="416.5,-29 416.5,-65 "/>
<text text-anchor="middle" x="459.5" y="-43.3" font-family="Times,serif" font-size="14.00">grad &#45;0.0200</text>
</g>
<!-- 140528200489312&#45;&gt;140528200489072* -->
<g id="edge10" class="edge">
<title>140528200489312&#45;&gt;140528200489072*</title>
<path fill="none" stroke="black" d="M502.6,-47C511.77,-47 520.65,-47 528.69,-47"/>
<polygon fill="black" stroke="black" points="528.74,-50.5 538.74,-47 528.74,-43.5 528.74,-50.5"/>
</g>
</g>
</svg>
